<svg width="24" height="24" viewBox="0 0 24 24" fill="none" xmlns="http://www.w3.org/2000/svg">
<path d="M21.1647 12.5377L21.1648 12.5376L21.1571 12.5285L13.1735 3.06032C13.0326 2.88641 12.8549 2.7458 12.6531 2.64882C12.4493 2.55089 12.2261 2.5 12 2.5C11.7739 2.5 11.5507 2.55089 11.3469 2.64882C11.1451 2.7458 10.9674 2.88641 10.8265 3.06032L2.84286 12.5285L2.84275 12.5284L2.8353 12.5377C2.65608 12.7608 2.54354 13.0301 2.51032 13.3143C2.47709 13.5985 2.52448 13.8865 2.64719 14.145C2.76991 14.4035 2.96307 14.6222 3.20475 14.7756C3.44645 14.9289 3.72664 15.0104 4.0129 15.0104C4.1759 15.0104 4.41941 15.0843 4.62083 15.2218C4.83469 15.3678 4.87301 15.4911 4.87301 15.5295V19.981C4.87301 20.3828 5.03166 20.7689 5.31504 21.054C5.59852 21.3392 5.98365 21.5 6.38587 21.5H8.19615C8.59837 21.5 8.9835 21.3392 9.26698 21.054C9.55036 20.7689 9.70901 20.3828 9.70901 19.981V16.9529C9.70901 16.8843 9.72244 16.8165 9.74846 16.7533C9.77448 16.6901 9.81253 16.6329 9.8603 16.5848C9.90806 16.5368 9.9646 16.4988 10.0266 16.473L9.83427 16.0114L10.0266 16.473C10.0886 16.4471 10.1549 16.4339 10.2219 16.4339H13.7781C13.8451 16.4339 13.9114 16.4471 13.9734 16.473L14.1657 16.0114L13.9734 16.473C14.0354 16.4988 14.0919 16.5368 14.1397 16.5848L14.4943 16.2323L14.1397 16.5848C14.1875 16.6329 14.2255 16.6901 14.2515 16.7533C14.2776 16.8165 14.291 16.8843 14.291 16.9529V19.981C14.291 20.3828 14.4496 20.7689 14.733 21.054C15.0165 21.3392 15.4016 21.5 15.8038 21.5H17.6141C18.0164 21.5 18.4015 21.3392 18.685 21.054C18.9683 20.7689 19.127 20.3828 19.127 19.981V15.5295C19.127 15.4911 19.1653 15.3678 19.3792 15.2218C19.5806 15.0843 19.8241 15.0104 19.9871 15.0104C20.2734 15.0104 20.5536 14.9289 20.7953 14.7756C21.0369 14.6222 21.2301 14.4035 21.3528 14.145C21.4755 13.8865 21.5229 13.5985 21.4897 13.3143C21.4565 13.0301 21.3439 12.7608 21.1647 12.5377Z" fill="#34303E" stroke="#A5A3A9" stroke-linecap="square" stroke-linejoin="round"/>
</svg>
