<svg width="24" height="24" viewBox="0 0 24 24" fill="none" xmlns="http://www.w3.org/2000/svg">
<mask id="path-1-outside-1_1_1859" maskUnits="userSpaceOnUse" x="2" y="4.3999" width="20" height="16" fill="black">
<rect fill="white" x="2" y="4.3999" width="20" height="16"/>
<path d="M21 7.1999C21 6.2039 20.196 5.3999 19.2 5.3999H4.8C3.804 5.3999 3 6.2039 3 7.1999V8.9999H21V7.1999Z"/>
<path d="M15.0007 13.7999V14.9999H18.6007V13.7999H15.0007Z"/>
<path d="M5.40096 13.7999V14.9999H12.601V13.7999H5.40096Z"/>
<path d="M3 16.7999C3 17.7959 3.804 18.5999 4.8 18.5999H19.2C20.196 18.5999 21 17.7959 21 16.7999V10.1999H3V16.7999Z"/>
</mask>
<path d="M21 7.1999C21 6.2039 20.196 5.3999 19.2 5.3999H4.8C3.804 5.3999 3 6.2039 3 7.1999V8.9999H21V7.1999Z" fill="#34303E"/>
<path d="M15.0007 13.7999V14.9999H18.6007V13.7999H15.0007Z" fill="#34303E"/>
<path d="M5.40096 13.7999V14.9999H12.601V13.7999H5.40096Z" fill="#34303E"/>
<path d="M3 16.7999C3 17.7959 3.804 18.5999 4.8 18.5999H19.2C20.196 18.5999 21 17.7959 21 16.7999V10.1999H3V16.7999Z" fill="#34303E"/>
<path d="M3 8.9999H2V9.9999H3V8.9999ZM21 8.9999V9.9999H22V8.9999H21ZM15.0007 13.7999V12.7999H14.0007V13.7999H15.0007ZM15.0007 14.9999H14.0007V15.9999H15.0007V14.9999ZM18.6007 14.9999V15.9999H19.6007V14.9999H18.6007ZM18.6007 13.7999H19.6007V12.7999H18.6007V13.7999ZM5.40096 13.7999V12.7999H4.40096V13.7999H5.40096ZM5.40096 14.9999H4.40096V15.9999H5.40096V14.9999ZM12.601 14.9999V15.9999H13.601V14.9999H12.601ZM12.601 13.7999H13.601V12.7999H12.601V13.7999ZM21 10.1999H22V9.1999H21V10.1999ZM3 10.1999V9.1999H2V10.1999H3ZM22 7.1999C22 5.65162 20.7483 4.3999 19.2 4.3999V6.3999C19.6437 6.3999 20 6.75619 20 7.1999H22ZM19.2 4.3999H4.8V6.3999H19.2V4.3999ZM4.8 4.3999C3.25172 4.3999 2 5.65162 2 7.1999H4C4 6.75619 4.35628 6.3999 4.8 6.3999V4.3999ZM2 7.1999V8.9999H4V7.1999H2ZM3 9.9999H21V7.9999H3V9.9999ZM22 8.9999V7.1999H20V8.9999H22ZM14.0007 13.7999V14.9999H16.0007V13.7999H14.0007ZM15.0007 15.9999H18.6007V13.9999H15.0007V15.9999ZM19.6007 14.9999V13.7999H17.6007V14.9999H19.6007ZM18.6007 12.7999H15.0007V14.7999H18.6007V12.7999ZM4.40096 13.7999V14.9999H6.40096V13.7999H4.40096ZM5.40096 15.9999H12.601V13.9999H5.40096V15.9999ZM13.601 14.9999V13.7999H11.601V14.9999H13.601ZM12.601 12.7999H5.40096V14.7999H12.601V12.7999ZM2 16.7999C2 18.3482 3.25172 19.5999 4.8 19.5999V17.5999C4.35628 17.5999 4 17.2436 4 16.7999H2ZM4.8 19.5999H19.2V17.5999H4.8V19.5999ZM19.2 19.5999C20.7483 19.5999 22 18.3482 22 16.7999H20C20 17.2436 19.6437 17.5999 19.2 17.5999V19.5999ZM22 16.7999V10.1999H20V16.7999H22ZM21 9.1999H3V11.1999H21V9.1999ZM2 10.1999V16.7999H4V10.1999H2Z" fill="#A5A3A9" mask="url(#path-1-outside-1_1_1859)"/>
</svg>
