<svg width="24" height="24" viewBox="0 0 24 24" fill="none" xmlns="http://www.w3.org/2000/svg">
                        <path
                            d="M4.55075 20.4956L4.55187 20.4955C6.28471 20.2923 7.44106 19.8266 8.12171 19.1354L4.55075 20.4956ZM4.55075 20.4956C4.50025 20.5017 4.44724 20.5017 4.39223 20.4952M4.55075 20.4956L4.39223 20.4952M8.89281 17.5726C8.8798 17.1152 8.6433 16.6161 8.11335 16.0774L8.89281 17.5726ZM8.89281 17.5726C8.90561 18.0229 8.70459 18.543 8.12182 19.1353L8.89281 17.5726ZM4.39223 20.4952C4.03838 20.4518 3.76574 20.1346 3.78026 19.756L3.78525 19.6923L3.80902 19.4964C3.8091 19.4958 3.80917 19.4952 3.80924 19.4947C4.02159 17.8453 4.47159 16.7334 5.12594 16.0684L4.39223 20.4952ZM6.65193 15.2885C6.21769 15.2757 5.70963 15.4754 5.12601 16.0683L6.65193 15.2885ZM6.65193 15.2885C7.09389 15.3015 7.58199 15.5379 8.1132 16.0773L6.65193 15.2885ZM18.9747 3.8005C18.9798 3.80197 18.9848 3.80336 18.9899 3.80467L19.1639 3.8579L19.3505 3.92011C19.5194 3.97991 19.6727 4.07713 19.7987 4.20453L20.1541 3.85284L19.7987 4.20453C19.9256 4.33277 20.0217 4.48821 20.0796 4.65907L20.0801 4.66052C20.8135 6.80335 20.5885 8.97656 19.3864 11.1648C18.889 12.0697 18.2504 12.9307 17.4684 13.7468L17.2495 13.9706L17.0409 14.1748C16.9562 14.2576 16.9037 14.3679 16.8928 14.4858L16.8871 14.5467C16.8229 15.1399 16.5596 15.8704 16.0573 16.7606C15.5563 17.6483 14.8332 18.6676 13.8814 19.8322C13.8812 19.8324 13.8811 19.8325 13.881 19.8327L13.7176 20.0317L13.7146 20.0354L13.4112 20.3979C13.4111 20.3981 13.411 20.3982 13.4109 20.3984C13.3144 20.5123 13.1266 20.4934 13.0594 20.3453L13.0442 20.3037L11.9717 16.8811C11.9385 16.7749 11.8707 16.6828 11.7792 16.6195L11.6845 16.5539C11.0994 16.1369 10.542 15.6824 10.0159 15.1931L9.75425 14.9437L9.49806 14.6894C8.74824 13.9261 8.07325 13.0928 7.48232 12.2008L7.42462 12.1111C7.36211 12.0139 7.26788 11.9414 7.15794 11.9059L3.65445 10.773C3.65441 10.773 3.65436 10.773 3.65431 10.773C3.50986 10.726 3.45176 10.5383 3.54406 10.4178L3.56142 10.3981L3.58275 10.3783C5.00964 9.13201 6.23085 8.21675 7.26967 7.62751C8.31592 7.03405 9.12363 6.80235 9.74072 6.84315L9.82502 6.85046L9.87317 6.85637C10.0269 6.87526 10.1808 6.82179 10.2897 6.7116L10.4166 6.58318C11.0832 5.92069 11.7774 5.3605 12.4992 4.90175L12.7444 4.75007L12.9686 4.61891C14.9735 3.48292 16.9766 3.21607 18.9747 3.8005ZM12.3022 7.80195L12.302 7.80215C11.2289 8.87578 11.2347 10.6168 12.3091 11.6912C13.3834 12.7655 15.1244 12.7713 16.1981 11.6983L16.1983 11.6981C17.2713 10.6244 17.2655 8.88342 16.1912 7.80905C15.1168 6.73468 13.3758 6.72893 12.3022 7.80195Z"
                            fill="#34303E" stroke="#A5A3A9" stroke-linecap="square" stroke-linejoin="round" />
                    </svg>