<svg width="24" height="24" viewBox="0 0 24 24" fill="none" xmlns="http://www.w3.org/2000/svg">
<path d="M20.5 12.9031C20.5 12.7304 20.4109 12.57 20.2643 12.4787C20.1178 12.3874 19.9345 12.3782 19.7795 12.4544C17.5735 13.5384 14.9322 14.1667 12.0004 14.1667C9.06777 14.1667 6.42569 13.5384 4.22145 12.4544C4.06647 12.3782 3.88314 12.3874 3.73653 12.4787C3.58992 12.5699 3.5008 12.7304 3.5008 12.9031V18.2222C3.5008 18.5144 3.55255 18.8048 3.65408 19.0772C3.75562 19.3496 3.90561 19.6003 4.09775 19.8138C4.28998 20.0274 4.52108 20.2 4.77941 20.3189C5.03793 20.4379 5.31719 20.5 5.60072 20.5H18.4001C18.6836 20.5 18.9629 20.4379 19.2214 20.3189C19.4797 20.2 19.7108 20.0274 19.903 19.8138C20.0952 19.6003 20.2452 19.3496 20.3467 19.0772C20.4483 18.8048 20.5 18.5144 20.5 18.2222V12.9031ZM6.71236 4.43696L6.32523 4.12053C6.04814 4.45952 5.9007 4.89226 5.90068 5.33331V5.33333V6.60933H5.60072C5.31718 6.60933 5.03793 6.67147 4.77941 6.79046C4.52108 6.90936 4.28998 7.08196 4.09775 7.29556C3.90561 7.50906 3.75562 7.75975 3.65408 8.03214C3.55257 8.30446 3.50082 8.59479 3.5008 8.88696C3.5008 8.88701 3.5008 8.88706 3.5008 8.88711L3.5 11.5492C3.49994 11.7373 3.60547 11.9095 3.7731 11.9949C6.09635 13.178 8.94114 13.8333 12.0004 13.8333C15.0596 13.8333 17.9036 13.1789 20.227 11.9948C20.3945 11.9094 20.5 11.7373 20.5 11.5493V8.88711C20.5 8.59489 20.4483 8.30451 20.3467 8.03214C20.2452 7.75974 20.0952 7.50906 19.903 7.29556C19.7108 7.08196 19.4797 6.90936 19.2214 6.79046C18.9629 6.67147 18.6836 6.60933 18.4001 6.60933H18.1001V5.33333C18.1001 4.86312 17.9325 4.40293 17.6203 4.05605C17.3066 3.70743 16.8691 3.5 16.4002 3.5H7.60062C7.59163 3.5 7.58263 3.50024 7.57365 3.50073L7.45846 3.50695C7.44967 3.50742 7.4409 3.50813 7.43215 3.50907C6.99592 3.55582 6.60334 3.78028 6.32523 4.12053L6.71236 4.43696ZM11.2008 10.2778C11.2009 10.2778 11.201 10.2778 11.2011 10.2778L12.8004 10.2778C12.8619 10.2778 12.933 10.3045 12.9944 10.3726C13.0572 10.4425 13.1003 10.5475 13.1003 10.6667C13.1003 10.7858 13.0572 10.8909 12.9944 10.9607C12.933 11.0289 12.8619 11.0556 12.8004 11.0556H11.217L11.1609 11.0518C11.1035 11.0411 11.0398 11.0061 10.9873 10.9364C10.9303 10.8607 10.896 10.755 10.902 10.641C10.9081 10.527 10.9529 10.4295 11.0141 10.3653C11.0737 10.3027 11.1415 10.2779 11.2008 10.2778ZM8.5006 6.27778H15.5002V6.60933H8.5006V6.27778Z" fill="#34303E" stroke="#A5A3A9" stroke-linecap="square" stroke-linejoin="round"/>
</svg>
