<svg width="24" height="24" viewBox="0 0 24 24" fill="none" xmlns="http://www.w3.org/2000/svg">
<path d="M8.46961 15.7266C9.63161 16.9076 9.76611 18.1771 8.47811 19.4861C7.68011 20.2966 6.38811 20.7836 4.61011 20.9921C4.51811 21.0031 4.42511 21.0026 4.33261 20.9916C3.70761 20.9156 3.25111 20.3601 3.28111 19.7256L3.28761 19.6426L3.31311 19.4326C3.53111 17.7376 4.00311 16.4966 4.76961 15.7176C6.05761 14.4091 7.30711 14.5461 8.46961 15.7266ZM19.1151 3.3201L19.3161 3.3816L19.5126 3.4471C19.7545 3.53191 19.9739 3.67066 20.1541 3.85284C20.3344 4.03503 20.4709 4.25586 20.5531 4.4986C21.3366 6.7876 21.0876 9.1066 19.8246 11.4056C19.3041 12.3526 18.6381 13.2491 17.8276 14.0946L17.6031 14.3241L17.3906 14.5321L17.3846 14.5966C17.2371 15.9736 16.1926 17.7946 14.2681 20.1491L14.1011 20.3526L13.7936 20.7201C13.4456 21.1331 12.7976 21.0181 12.5946 20.5301L12.5706 20.4646L11.4946 17.0306L11.3971 16.9631C10.7925 16.5324 10.2166 16.0627 9.67311 15.5571L9.40561 15.3021L9.14361 15.0421C8.36973 14.2546 7.67321 13.3947 7.06361 12.4741L7.00411 12.3816L3.50011 11.2486C3.00711 11.0886 2.84811 10.4791 3.16111 10.0961L3.20261 10.0491L3.24761 10.0071C6.12961 7.4891 8.25611 6.2406 9.77911 6.3446L9.87711 6.3531L9.93411 6.3601L10.0626 6.2301C10.7536 5.5431 11.4771 4.9586 12.2336 4.4781L12.4866 4.3216L12.7191 4.1856C14.8301 2.9886 16.9731 2.6941 19.1151 3.3206V3.3201ZM12.6556 8.1556C11.7791 9.0326 11.7821 10.4571 12.6626 11.3376C13.5431 12.2181 14.9676 12.2211 15.8446 11.3446C16.7211 10.4676 16.7181 9.0431 15.8376 8.1626C14.9571 7.2821 13.5326 7.2791 12.6556 8.1556Z" fill="white"/>
</svg>
