<svg width="24" height="24" viewBox="0 0 24 24" fill="none" xmlns="http://www.w3.org/2000/svg">
<path d="M20 12.9031V18.2222C20 18.4557 19.9586 18.6869 19.8782 18.9025C19.7978 19.1182 19.68 19.3142 19.5314 19.4793C19.3828 19.6444 19.2065 19.7753 19.0123 19.8647C18.8182 19.954 18.6102 20 18.4001 20H5.60072C5.39062 20 5.18257 19.954 4.98846 19.8647C4.79435 19.7753 4.61797 19.6444 4.46941 19.4793C4.32084 19.3142 4.20299 19.1182 4.12259 18.9025C4.04218 18.6869 4.0008 18.4557 4.0008 18.2222V12.9031C6.27829 14.0231 8.99655 14.6667 12.0004 14.6667C15.0034 14.6667 17.7209 14.0231 20 12.9031ZM16.4002 4C16.7184 4 17.0236 4.14048 17.2487 4.39052C17.4737 4.64057 17.6001 4.97971 17.6001 5.33333V7.10933H18.4001C18.6102 7.10933 18.8182 7.15532 19.0123 7.24466C19.2065 7.334 19.3828 7.46495 19.5314 7.63003C19.68 7.79511 19.7978 7.9911 19.8782 8.20679C19.9586 8.42248 20 8.65365 20 8.88711V11.5493C17.7553 12.6933 14.9907 13.3333 12.0004 13.3333C9.01015 13.3333 6.24469 12.6924 4 11.5493L4.0008 8.88711C4.0008 8.65365 4.04218 8.42248 4.12259 8.20679C4.20299 7.9911 4.32084 7.79511 4.46941 7.63003C4.61797 7.46495 4.79435 7.334 4.98846 7.24466C5.18257 7.15532 5.39062 7.10933 5.60072 7.10933H6.40068V5.33333C6.40069 5.00188 6.51181 4.68232 6.71236 4.43696C6.91291 4.1916 7.18851 4.03804 7.48543 4.00622L7.60062 4H16.4002ZM12.8004 9.77778H11.2004C10.9965 9.77803 10.8004 9.86478 10.6522 10.0203C10.5039 10.1758 10.4147 10.3884 10.4027 10.6146C10.3908 10.8407 10.457 11.0634 10.5879 11.2372C10.7187 11.4109 10.9044 11.5226 11.1068 11.5493L11.2004 11.5556H12.8004C13.0125 11.5556 13.216 11.4619 13.366 11.2952C13.516 11.1285 13.6003 10.9024 13.6003 10.6667C13.6003 10.4309 13.516 10.2048 13.366 10.0381C13.216 9.87143 13.0125 9.77778 12.8004 9.77778ZM16.0002 5.77778H8.0006V7.10933H16.0002V5.77778Z" fill="white"/>
</svg>
