<svg width="24" height="24" viewBox="0 0 24 24" fill="none" xmlns="http://www.w3.org/2000/svg">
<path d="M20.7749 12.8508L12.7878 3.37854C12.6928 3.26033 12.5728 3.16499 12.4365 3.09949C12.3002 3.03399 12.1511 3 12 3C11.8489 3 11.6998 3.03399 11.5635 3.09949C11.4272 3.16499 11.3072 3.26033 11.2122 3.37854L3.22511 12.8508C3.10491 13.0005 3.02927 13.1813 3.00693 13.3723C2.9846 13.5634 3.01648 13.7569 3.09888 13.9306C3.18129 14.1042 3.31086 14.2507 3.47261 14.3534C3.63435 14.456 3.82167 14.5104 4.01289 14.5104C4.57237 14.5104 5.37301 14.9666 5.37301 15.5295V19.981C5.37301 20.2512 5.47972 20.5104 5.66967 20.7015C5.85962 20.8926 6.11724 21 6.38587 21H8.19615C8.46478 21 8.7224 20.8926 8.91235 20.7015C9.1023 20.5104 9.20901 20.2512 9.20901 19.981V16.9529C9.20901 16.8191 9.23521 16.6866 9.28611 16.5629C9.33701 16.4393 9.41162 16.327 9.50567 16.2323C9.59972 16.1377 9.71138 16.0627 9.83427 16.0114C9.95715 15.9602 10.0889 15.9339 10.2219 15.9339H13.7781C13.9111 15.9339 14.0428 15.9602 14.1657 16.0114C14.2886 16.0627 14.4003 16.1377 14.4943 16.2323C14.5884 16.327 14.663 16.4393 14.7139 16.5629C14.7648 16.6866 14.791 16.8191 14.791 16.9529V19.981C14.791 20.2512 14.8977 20.5104 15.0876 20.7015C15.2776 20.8926 15.5352 21 15.8038 21H17.6141C17.8828 21 18.1404 20.8926 18.3303 20.7015C18.5203 20.5104 18.627 20.2512 18.627 19.981V15.5295C18.627 14.9666 19.4276 14.5104 19.9871 14.5104C20.1783 14.5104 20.3656 14.456 20.5274 14.3534C20.6891 14.2507 20.8187 14.1042 20.9011 13.9306C20.9835 13.7569 21.0154 13.5634 20.9931 13.3723C20.9707 13.1813 20.8951 13.0005 20.7749 12.8508Z" fill="white"/>
</svg>
