<svg width="24" height="24" viewBox="0 0 24 24" fill="none" xmlns="http://www.w3.org/2000/svg">
<path d="M20.9514 6.43563C20.9007 6.33497 20.8546 6.18855 20.7532 6.14165L17.8836 3.29329H17.9343C17.8371 3.19674 17.721 3.12096 17.5932 3.0706C17.4653 3.02024 17.3285 2.99636 17.191 3.00045H6.80763C6.67854 3.00115 6.5509 3.02742 6.43217 3.0777C6.31344 3.12799 6.20601 3.20128 6.11617 3.29329L3.29963 6.14279C3.20168 6.19312 3.10026 6.33955 3.05071 6.43678C3 6.5832 3 6.72962 3 6.83029C3.14751 14.2383 6.06777 18.9512 11.6536 20.9622C11.8518 21.0126 12.0961 21.0126 12.345 20.9622C17.9816 18.9512 20.85 14.2383 20.9975 6.828C21.0066 6.69589 20.9909 6.56324 20.9514 6.43678V6.43563ZM12.3485 19.9808C12.1376 20.0313 11.9175 20.0313 11.7066 19.9808C6.65896 18.1162 4.08905 13.8951 3.89083 7.26841C3.89083 7.12198 3.89083 7.02132 3.94153 6.8749C4.00819 6.76469 4.09223 6.66582 4.19046 6.58206L6.71197 4.07916C6.91019 3.88241 7.10841 3.78518 7.35388 3.78518H16.7001C16.949 3.78518 17.1426 3.88241 17.2947 4.07916L19.8623 6.58549C19.9603 6.68272 20.011 6.78224 20.0617 6.87947C20.1113 7.0259 20.1113 7.12199 20.1585 7.27298C19.9603 13.8963 17.3408 18.1173 12.3485 19.9808ZM8.1456 16.4952H8.1963L19.1225 7.85867C18.7768 13.5519 16.4051 17.2823 12.0523 19.0004C10.5853 18.4507 9.25314 17.5971 8.14444 16.4964L8.1456 16.4952ZM17.0942 5.15902L18.7745 6.82571L7.54979 15.714V15.7631C7.06208 15.1235 6.64735 14.4322 6.31323 13.7018C6.31323 13.7018 6.36394 13.6526 6.41119 13.6526L17.0412 5.2105C17.0435 5.15902 17.0435 5.15902 17.0942 5.15902ZM7.30548 4.81585H16.0075L5.92141 12.7661C5.27951 11.1955 4.93378 9.33089 4.88307 7.17232L7.30548 4.81241V4.81585Z" fill="white"/>
</svg>
