<svg width="24" height="24" viewBox="0 0 24 24" fill="none" xmlns="http://www.w3.org/2000/svg">
<path d="M21.4972 6.84924C21.5082 6.66634 21.487 6.48298 21.4347 6.30742C21.4258 6.27411 21.4135 6.24169 21.3979 6.2107C21.3927 6.20033 21.388 6.18982 21.3787 6.16947C21.3758 6.16295 21.3723 6.15541 21.3683 6.14653C21.3546 6.11641 21.334 6.0719 21.3085 6.02593C21.2728 5.96143 21.1984 5.83868 21.0638 5.74549L18.3932 3.09456C18.3684 3.0373 18.3326 2.98418 18.2866 2.93849C18.141 2.7939 17.9674 2.68061 17.7764 2.6054C17.5881 2.53118 17.3867 2.49553 17.1843 2.50045H6.80763V2.50044L6.80489 2.50046C6.60982 2.50152 6.41682 2.54121 6.23717 2.61729C6.05804 2.69316 5.89566 2.80374 5.75959 2.94279L2.98453 5.75032C2.88514 5.81949 2.81153 5.90334 2.76572 5.96093C2.69979 6.04381 2.64422 6.13323 2.60523 6.20974C2.59478 6.23023 2.58576 6.25142 2.57824 6.27316C2.49961 6.5002 2.49987 6.7177 2.49999 6.81936C2.5 6.82316 2.5 6.82681 2.5 6.83029H2.4999L2.5001 6.84024C2.57506 10.6048 3.35514 13.7293 4.86137 16.1818C6.37227 18.6419 8.59346 20.392 11.4842 21.4327C11.4994 21.4382 11.5149 21.4429 11.5305 21.4469C11.8169 21.5196 12.1391 21.514 12.4441 21.4523C12.4675 21.4476 12.4906 21.4412 12.5131 21.4332C15.4296 20.3926 17.6515 18.6423 19.1563 16.1806C20.6544 13.7297 21.4209 10.6083 21.4972 6.84924ZM7.36415 4.31585C7.31062 4.30952 7.25669 4.31195 7.20445 4.32273C7.25979 4.29218 7.30602 4.28518 7.35388 4.28518H16.7001C16.791 4.28518 16.8397 4.30813 16.8992 4.38499C16.9134 4.40337 16.9289 4.42073 16.9455 4.43696L17.1807 4.66655C17.1523 4.66157 17.1234 4.65902 17.0942 4.65902L17.094 4.65902C17.091 4.65898 17.0494 4.65842 17.0091 4.66295C16.9684 4.66751 16.8257 4.68586 16.7012 4.80674C16.6684 4.83863 16.6427 4.87201 16.6225 4.90454L16.4561 5.0367C16.5138 4.91938 16.5246 4.78116 16.4799 4.65205C16.4101 4.45079 16.2205 4.31585 16.0075 4.31585H7.36415ZM6.4064 15.149C5.45731 13.6015 4.83691 11.7033 4.55456 9.43743C4.72754 10.7269 5.0275 11.9005 5.45857 12.9552C5.51797 13.1006 5.64219 13.2096 5.79401 13.2496C5.93538 13.2868 6.08539 13.2602 6.20493 13.1779L6.17309 13.2032C6.12237 13.2252 6.08624 13.2485 6.06857 13.2602C6.03971 13.2793 6.01652 13.2976 6.00038 13.3112C5.99204 13.3182 5.9849 13.3245 5.97908 13.3298L5.9712 13.3371L5.96793 13.3402L5.96646 13.3416L5.96576 13.3423L5.96543 13.3426L5.96526 13.3428C5.96518 13.3428 5.9651 13.3429 6.31323 13.7018L5.9651 13.3429C5.81318 13.4903 5.77051 13.7173 5.85855 13.9098C6.20813 14.674 6.64201 15.3972 7.15219 16.0663C7.28225 16.2369 7.50659 16.3055 7.70979 16.2368C7.7129 16.2358 7.71599 16.2347 7.71906 16.2336C7.67066 16.312 7.64442 16.4029 7.64444 16.4965C7.64448 16.6297 7.69765 16.7574 7.79218 16.8512C8.95127 18.0019 10.3438 18.8941 11.8769 19.4686C11.9928 19.5121 12.1208 19.511 12.2359 19.4655C14.5042 18.5701 16.2716 17.1422 17.5121 15.1882C18.7491 13.2399 19.445 10.7961 19.6216 7.88898C19.6335 7.69218 19.5287 7.50673 19.3539 7.41547C19.1792 7.3242 18.9671 7.34415 18.8124 7.46641L7.99195 16.0194C7.98652 16.0212 7.98112 16.023 7.97575 16.025C7.97972 16.0185 7.98354 16.012 7.98722 16.0054L19.0848 7.2177C19.197 7.12892 19.2657 6.99638 19.2737 6.8536C19.2767 6.79882 19.2707 6.74456 19.2565 6.69278L19.5101 6.94035C19.5105 6.94074 19.5109 6.94113 19.5113 6.94152C19.5414 6.9717 19.5601 7.00064 19.5982 7.0722C19.606 7.10018 19.6121 7.12925 19.6205 7.17149C19.6212 7.1749 19.6218 7.1784 19.6225 7.18199C19.6305 7.22214 19.6407 7.27399 19.6563 7.33462C19.5505 10.551 18.861 13.1443 17.6256 15.1496C16.3904 17.1546 14.5901 18.6035 12.2053 19.5005C12.0878 19.5247 11.9665 19.5247 11.8491 19.5003C9.43681 18.6026 7.63585 17.1535 6.4064 15.149Z" fill="#34303E" stroke="#A5A3A9" stroke-linecap="square" stroke-linejoin="round"/>
</svg>
