<svg width="154" height="56" viewBox="0 0 154 56" fill="none" xmlns="http://www.w3.org/2000/svg">
<path d="M0 12C0 5.37258 5.37258 0 12 0H77H115.5H134.75H142C148.627 0 154 5.37258 154 12V13.5116V14V28V44C154 50.6274 148.627 56 142 56H12C5.37259 56 0 50.6274 0 44V12Z" fill="url(#paint0_linear_1_798)"/>
<path d="M30 38C35.5229 38 40 33.5229 40 28C40 22.4771 35.5229 18 30 18C24.4771 18 20 22.4771 20 28C20 33.5229 24.4771 38 30 38Z" stroke="white" stroke-width="1.5" stroke-linejoin="round"/>
<path d="M30 24V32" stroke="white" stroke-width="1.5" stroke-linecap="round" stroke-linejoin="round"/>
<path d="M26 28H34" stroke="white" stroke-width="1.5" stroke-linecap="round" stroke-linejoin="round"/>
<path d="M47.252 34L50.738 23.78H53.986L57.57 34H55.526L52.488 25.138L53.202 25.446H51.452L52.18 25.138L49.24 34H47.252ZM49.688 31.284L50.318 29.604H54.462L55.078 31.284H49.688ZM60.7961 30.864V29.142H62.7841C63.1855 29.142 63.5215 29.0627 63.7921 28.904C64.0721 28.7453 64.2821 28.526 64.4221 28.246C64.5715 27.966 64.6461 27.644 64.6461 27.28C64.6461 26.916 64.5715 26.594 64.4221 26.314C64.2821 26.034 64.0721 25.8193 63.7921 25.67C63.5215 25.5113 63.1855 25.432 62.7841 25.432H60.7961V23.71H62.6161C63.4748 23.71 64.2028 23.85 64.8001 24.13C65.4068 24.41 65.8688 24.8113 66.1861 25.334C66.5035 25.8473 66.6621 26.4587 66.6621 27.168V27.392C66.6621 28.1013 66.5035 28.7173 66.1861 29.24C65.8688 29.7533 65.4068 30.1547 64.8001 30.444C64.2028 30.724 63.4748 30.864 62.6161 30.864H60.7961ZM59.0881 34V23.71H61.0761V34H59.0881ZM70.011 30.864V29.142H71.999C72.4003 29.142 72.7363 29.0627 73.007 28.904C73.287 28.7453 73.497 28.526 73.637 28.246C73.7863 27.966 73.861 27.644 73.861 27.28C73.861 26.916 73.7863 26.594 73.637 26.314C73.497 26.034 73.287 25.8193 73.007 25.67C72.7363 25.5113 72.4003 25.432 71.999 25.432H70.011V23.71H71.831C72.6896 23.71 73.4176 23.85 74.015 24.13C74.6216 24.41 75.0836 24.8113 75.401 25.334C75.7183 25.8473 75.877 26.4587 75.877 27.168V27.392C75.877 28.1013 75.7183 28.7173 75.401 29.24C75.0836 29.7533 74.6216 30.1547 74.015 30.444C73.4176 30.724 72.6896 30.864 71.831 30.864H70.011ZM68.303 34V23.71H70.291V34H68.303ZM77.5178 34V23.78H79.5058V34H77.5178ZM79.2258 34V32.25H83.6358V34H79.2258ZM85.9173 30.094L82.8373 23.78H84.8813L87.2333 28.722L86.7853 28.582H88.1153L87.6393 28.722L89.7813 23.78H91.7133L88.8713 30.094H85.9173ZM86.4213 34V29.786H88.3673V34H86.4213ZM102.859 34V23.78H104.847V34H102.859ZM96.1526 34V23.78H98.1406V34H96.1526ZM97.7766 29.758V28.008H103.223V29.758H97.7766ZM107.364 34V23.78H109.31V34H107.364ZM109.03 34V32.32H113.664V34H109.03ZM109.03 29.646V27.966H113.3V29.646H109.03ZM109.03 25.46V23.78H113.552V25.46H109.03ZM115.703 34V23.71H117.691V34H115.703ZM121.947 34L118.811 29.548H121.037L124.271 34H121.947ZM117.103 30.584V28.974H119.707C120.071 28.974 120.384 28.8993 120.645 28.75C120.916 28.6007 121.126 28.3907 121.275 28.12C121.425 27.8493 121.499 27.5413 121.499 27.196C121.499 26.8413 121.425 26.5287 121.275 26.258C121.126 25.9873 120.916 25.7773 120.645 25.628C120.384 25.4787 120.071 25.404 119.707 25.404H117.103V23.71H119.497C120.319 23.71 121.028 23.8313 121.625 24.074C122.232 24.3167 122.699 24.6853 123.025 25.18C123.352 25.6747 123.515 26.2953 123.515 27.042V27.266C123.515 28.022 123.347 28.6427 123.011 29.128C122.685 29.6133 122.223 29.9773 121.625 30.22C121.028 30.4627 120.319 30.584 119.497 30.584H117.103ZM125.78 34V23.78H127.726V34H125.78ZM127.446 34V32.32H132.08V34H127.446ZM127.446 29.646V27.966H131.716V29.646H127.446ZM127.446 25.46V23.78H131.968V25.46H127.446Z" fill="white"/>
<defs>
<linearGradient id="paint0_linear_1_798" x1="6" y1="4" x2="154" y2="56" gradientUnits="userSpaceOnUse">
<stop stop-color="#12C2E9"/>
<stop offset="0.335" stop-color="#C471ED"/>
<stop offset="1" stop-color="#F64F59"/>
</linearGradient>
</defs>
</svg>
