<svg width="194" height="24" viewBox="0 0 194 24" fill="none" xmlns="http://www.w3.org/2000/svg">
<path d="M37.0115 18.266C36.0875 18.266 35.2942 18.1027 34.6315 17.776C33.9688 17.4493 33.4275 17.0247 33.0075 16.502C32.5968 15.9793 32.2935 15.41 32.0975 14.794C31.9015 14.178 31.8035 13.5853 31.8035 13.016V12.708C31.8035 12.0733 31.9015 11.448 32.0975 10.832C32.3028 10.216 32.6155 9.656 33.0355 9.152C33.4555 8.648 33.9875 8.24667 34.6315 7.948C35.2848 7.64 36.0548 7.486 36.9415 7.486C37.8655 7.486 38.6682 7.654 39.3495 7.99C40.0402 8.31667 40.5908 8.78333 41.0015 9.39C41.4122 9.98733 41.6595 10.6873 41.7435 11.49H39.7415C39.6668 11.0233 39.4988 10.6313 39.2375 10.314C38.9855 9.98733 38.6635 9.74467 38.2715 9.586C37.8795 9.418 37.4362 9.334 36.9415 9.334C36.4375 9.334 35.9895 9.42267 35.5975 9.6C35.2055 9.768 34.8788 10.0107 34.6175 10.328C34.3562 10.6453 34.1555 11.0187 34.0155 11.448C33.8848 11.8773 33.8195 12.3533 33.8195 12.876C33.8195 13.38 33.8848 13.8467 34.0155 14.276C34.1555 14.7053 34.3608 15.0833 34.6315 15.41C34.9022 15.7273 35.2335 15.9747 35.6255 16.152C36.0268 16.3293 36.4888 16.418 37.0115 16.418C37.7768 16.418 38.4208 16.2313 38.9435 15.858C39.4755 15.4753 39.7975 14.9433 39.9095 14.262H41.9115C41.8182 14.99 41.5708 15.6573 41.1695 16.264C40.7682 16.8707 40.2175 17.356 39.5175 17.72C38.8175 18.084 37.9822 18.266 37.0115 18.266ZM43.5891 18V7.71H45.5771V18H43.5891ZM49.8331 18L46.6971 13.548H48.9231L52.1571 18H49.8331ZM44.9891 14.584V12.974H47.5931C47.9571 12.974 48.2698 12.8993 48.5311 12.75C48.8018 12.6007 49.0118 12.3907 49.1611 12.12C49.3104 11.8493 49.3851 11.5413 49.3851 11.196C49.3851 10.8413 49.3104 10.5287 49.1611 10.258C49.0118 9.98733 48.8018 9.77733 48.5311 9.628C48.2698 9.47867 47.9571 9.404 47.5931 9.404H44.9891V7.71H47.3831C48.2044 7.71 48.9138 7.83133 49.5111 8.074C50.1178 8.31667 50.5844 8.68533 50.9111 9.18C51.2378 9.67467 51.4011 10.2953 51.4011 11.042V11.266C51.4011 12.022 51.2331 12.6427 50.8971 13.128C50.5704 13.6133 50.1084 13.9773 49.5111 14.22C48.9138 14.4627 48.2044 14.584 47.3831 14.584H44.9891ZM53.6653 18V7.78H55.6113V18H53.6653ZM55.3313 18V16.32H59.9653V18H55.3313ZM55.3313 13.646V11.966H59.6013V13.646H55.3313ZM55.3313 9.46V7.78H59.8533V9.46H55.3313ZM60.9971 18L64.4831 7.78H67.7311L71.3151 18H69.2711L66.2331 9.138L66.9471 9.446H65.1971L65.9251 9.138L62.9851 18H60.9971ZM63.4331 15.284L64.0631 13.604H68.2071L68.8231 15.284H63.4331ZM73.9879 18V9.25H75.9759V18H73.9879ZM71.0339 9.53V7.78H78.9299V9.53H71.0339ZM80.5168 18V7.78H82.4628V18H80.5168ZM82.1828 18V16.32H86.8168V18H82.1828ZM82.1828 13.646V11.966H86.4528V13.646H82.1828ZM82.1828 9.46V7.78H86.7048V9.46H82.1828ZM90.8702 18L94.3562 7.78H97.6042L101.188 18H99.1442L96.1062 9.138L96.8202 9.446H95.0702L95.7982 9.138L92.8582 18H90.8702ZM93.3062 15.284L93.9362 13.604H98.0802L98.6962 15.284H93.3062ZM105.728 18V7.78H108.99L113.288 16.348H113.75L113.47 16.6V7.78H115.346V18H112.07L107.772 9.432H107.296L107.576 9.18V18H105.728ZM117.868 18V7.78H119.814V18H117.868ZM119.534 18V16.32H124.168V18H119.534ZM119.534 13.646V11.966H123.804V13.646H119.534ZM119.534 9.46V7.78H124.056V9.46H119.534ZM127.888 18L125.284 7.78H127.342L129.456 16.67L128.91 16.348H130.31L129.694 16.67L131.36 8.172H133.068L130.996 18H127.888ZM133.992 18L131.738 8.172H133.516L135.434 16.67L134.832 16.348H136.204L135.672 16.67L137.534 7.78H139.48L137.156 18H133.992ZM146.107 18V9.25H148.095V18H146.107ZM143.153 9.53V7.78H151.049V9.53H143.153ZM157.137 18.266C156.213 18.266 155.411 18.1027 154.729 17.776C154.057 17.4493 153.497 17.0247 153.049 16.502C152.611 15.97 152.279 15.4007 152.055 14.794C151.841 14.178 151.733 13.5853 151.733 13.016V12.708C151.733 12.0827 151.845 11.462 152.069 10.846C152.293 10.2207 152.629 9.656 153.077 9.152C153.535 8.648 154.099 8.24667 154.771 7.948C155.443 7.64 156.232 7.486 157.137 7.486C158.033 7.486 158.817 7.64 159.489 7.948C160.161 8.24667 160.721 8.648 161.169 9.152C161.627 9.656 161.967 10.2207 162.191 10.846C162.415 11.462 162.527 12.0827 162.527 12.708V13.016C162.527 13.5853 162.415 14.178 162.191 14.794C161.977 15.4007 161.645 15.97 161.197 16.502C160.759 17.0247 160.199 17.4493 159.517 17.776C158.845 18.1027 158.052 18.266 157.137 18.266ZM157.137 16.418C157.66 16.418 158.127 16.3247 158.537 16.138C158.957 15.9513 159.312 15.6947 159.601 15.368C159.9 15.032 160.124 14.654 160.273 14.234C160.432 13.8047 160.511 13.352 160.511 12.876C160.511 12.3627 160.432 11.8913 160.273 11.462C160.124 11.0327 159.9 10.6593 159.601 10.342C159.312 10.0247 158.957 9.77733 158.537 9.6C158.117 9.42267 157.651 9.334 157.137 9.334C156.615 9.334 156.143 9.42267 155.723 9.6C155.303 9.77733 154.944 10.0247 154.645 10.342C154.356 10.6593 154.132 11.0327 153.973 11.462C153.824 11.8913 153.749 12.3627 153.749 12.876C153.749 13.352 153.824 13.8047 153.973 14.234C154.132 14.654 154.356 15.032 154.645 15.368C154.944 15.6947 155.303 15.9513 155.723 16.138C156.143 16.3247 156.615 16.418 157.137 16.418ZM171.07 18L167.332 13.226H165.89L170.328 7.78H172.61L168.606 12.68L168.55 11.7L173.492 18H171.07ZM164.448 18V7.78H166.436V18H164.448ZM174.634 18V7.78H176.58V18H174.634ZM176.3 18V16.32H180.934V18H176.3ZM176.3 13.646V11.966H180.57V13.646H176.3ZM176.3 9.46V7.78H180.822V9.46H176.3ZM182.974 18V7.78H186.236L190.534 16.348H190.996L190.716 16.6V7.78H192.592V18H189.316L185.018 9.432H184.542L184.822 9.18V18H182.974Z" fill="white"/>
<path d="M12 22C17.5229 22 22 17.5229 22 12C22 6.47715 17.5229 2 12 2C6.47715 2 2 6.47715 2 12C2 17.5229 6.47715 22 12 22Z" stroke="white" stroke-width="1.5" stroke-linejoin="round"/>
<path d="M5.5 14.066H8.34225L10.6117 6.5L12.4476 17.5L14.7241 12.3088L16.4564 14.066H18.5" stroke="white" stroke-width="1.5" stroke-linecap="round" stroke-linejoin="round"/>
</svg>
