<svg width="77" height="18" viewBox="0 0 77 18" fill="none" xmlns="http://www.w3.org/2000/svg">
<path d="M0.252 14L3.738 3.78H6.986L10.57 14H8.526L5.488 5.138L6.202 5.446H4.452L5.18 5.138L2.24 14H0.252ZM2.688 11.284L3.318 9.604H7.462L8.078 11.284H2.688ZM11.9341 16.8V6.398H13.4741V9.674L13.2361 9.66C13.2735 8.88533 13.4321 8.23667 13.7121 7.714C14.0015 7.19133 14.3841 6.804 14.8601 6.552C15.3361 6.29067 15.8681 6.16 16.4561 6.16C16.9975 6.16 17.4828 6.258 17.9121 6.454C18.3508 6.65 18.7241 6.92533 19.0321 7.28C19.3495 7.63467 19.5921 8.05 19.7601 8.526C19.9281 8.99267 20.0121 9.49667 20.0121 10.038V10.332C20.0121 10.8827 19.9281 11.396 19.7601 11.872C19.6015 12.3387 19.3635 12.754 19.0461 13.118C18.7381 13.4727 18.3648 13.7527 17.9261 13.958C17.4875 14.154 16.9975 14.252 16.4561 14.252C15.8868 14.252 15.3641 14.1353 14.8881 13.902C14.4215 13.6593 14.0435 13.2907 13.7541 12.796C13.4648 12.292 13.3015 11.6433 13.2641 10.85L13.8801 11.788V16.8H11.9341ZM15.9661 12.614C16.3861 12.614 16.7501 12.5113 17.0581 12.306C17.3755 12.1007 17.6228 11.816 17.8001 11.452C17.9775 11.0787 18.0661 10.6587 18.0661 10.192C18.0661 9.70667 17.9775 9.28667 17.8001 8.932C17.6228 8.57733 17.3755 8.302 17.0581 8.106C16.7501 7.90067 16.3861 7.798 15.9661 7.798C15.5835 7.798 15.2288 7.882 14.9021 8.05C14.5848 8.218 14.3235 8.46533 14.1181 8.792C13.9221 9.11867 13.8241 9.51067 13.8241 9.968V10.528C13.8241 10.9667 13.9268 11.34 14.1321 11.648C14.3375 11.956 14.6035 12.194 14.9301 12.362C15.2568 12.53 15.6021 12.614 15.9661 12.614ZM21.7232 16.8V6.398H23.2632V9.674L23.0252 9.66C23.0625 8.88533 23.2212 8.23667 23.5012 7.714C23.7905 7.19133 24.1732 6.804 24.6492 6.552C25.1252 6.29067 25.6572 6.16 26.2452 6.16C26.7865 6.16 27.2719 6.258 27.7012 6.454C28.1399 6.65 28.5132 6.92533 28.8212 7.28C29.1385 7.63467 29.3812 8.05 29.5492 8.526C29.7172 8.99267 29.8012 9.49667 29.8012 10.038V10.332C29.8012 10.8827 29.7172 11.396 29.5492 11.872C29.3905 12.3387 29.1525 12.754 28.8352 13.118C28.5272 13.4727 28.1539 13.7527 27.7152 13.958C27.2765 14.154 26.7865 14.252 26.2452 14.252C25.6759 14.252 25.1532 14.1353 24.6772 13.902C24.2105 13.6593 23.8325 13.2907 23.5432 12.796C23.2539 12.292 23.0905 11.6433 23.0532 10.85L23.6692 11.788V16.8H21.7232ZM25.7552 12.614C26.1752 12.614 26.5392 12.5113 26.8472 12.306C27.1645 12.1007 27.4119 11.816 27.5892 11.452C27.7665 11.0787 27.8552 10.6587 27.8552 10.192C27.8552 9.70667 27.7665 9.28667 27.5892 8.932C27.4119 8.57733 27.1645 8.302 26.8472 8.106C26.5392 7.90067 26.1752 7.798 25.7552 7.798C25.3725 7.798 25.0179 7.882 24.6912 8.05C24.3739 8.218 24.1125 8.46533 23.9072 8.792C23.7112 9.11867 23.6132 9.51067 23.6132 9.968V10.528C23.6132 10.9667 23.7159 11.34 23.9212 11.648C24.1265 11.956 24.3925 12.194 24.7192 12.362C25.0459 12.53 25.3912 12.614 25.7552 12.614ZM31.5123 14V6.398H33.0523V9.618H33.0103C33.0103 8.526 33.2436 7.7 33.7103 7.14C34.1769 6.58 34.8629 6.3 35.7683 6.3H36.0483V7.994H35.5163C34.8629 7.994 34.3543 8.17133 33.9903 8.526C33.6356 8.87133 33.4583 9.37533 33.4583 10.038V14H31.5123ZM40.9495 14.266C40.2775 14.266 39.6848 14.1587 39.1715 13.944C38.6581 13.7293 38.2241 13.44 37.8695 13.076C37.5148 12.7027 37.2441 12.2827 37.0575 11.816C36.8801 11.3493 36.7915 10.864 36.7915 10.36V10.066C36.7915 9.54333 36.8848 9.04867 37.0715 8.582C37.2675 8.106 37.5428 7.686 37.8975 7.322C38.2615 6.94867 38.7001 6.65933 39.2135 6.454C39.7268 6.23933 40.3055 6.132 40.9495 6.132C41.5935 6.132 42.1721 6.23933 42.6855 6.454C43.1988 6.65933 43.6328 6.94867 43.9875 7.322C44.3515 7.686 44.6268 8.106 44.8135 8.582C45.0001 9.04867 45.0935 9.54333 45.0935 10.066V10.36C45.0935 10.864 45.0001 11.3493 44.8135 11.816C44.6361 12.2827 44.3701 12.7027 44.0155 13.076C43.6608 13.44 43.2268 13.7293 42.7135 13.944C42.2001 14.1587 41.6121 14.266 40.9495 14.266ZM40.9495 12.6C41.4255 12.6 41.8268 12.4973 42.1535 12.292C42.4801 12.0773 42.7275 11.7927 42.8955 11.438C43.0635 11.074 43.1475 10.6633 43.1475 10.206C43.1475 9.73933 43.0588 9.32867 42.8815 8.974C42.7135 8.61 42.4615 8.32533 42.1255 8.12C41.7988 7.90533 41.4068 7.798 40.9495 7.798C40.4921 7.798 40.0955 7.90533 39.7595 8.12C39.4328 8.32533 39.1808 8.61 39.0035 8.974C38.8261 9.32867 38.7375 9.73933 38.7375 10.206C38.7375 10.6633 38.8215 11.074 38.9895 11.438C39.1668 11.7927 39.4188 12.0773 39.7455 12.292C40.0721 12.4973 40.4735 12.6 40.9495 12.6ZM48.1593 14L45.7793 6.398H47.7813L50.0633 14H48.1593ZM48.7333 14V12.404H50.7913V14H48.7333ZM49.5033 14L51.4633 6.398H53.3393L51.2813 14H49.5033ZM58.0471 14.266C57.3937 14.266 56.8197 14.154 56.3251 13.93C55.8397 13.706 55.4337 13.4073 55.1071 13.034C54.7897 12.6513 54.5471 12.2267 54.3791 11.76C54.2204 11.2933 54.1411 10.8173 54.1411 10.332V10.066C54.1411 9.562 54.2204 9.07667 54.3791 8.61C54.5471 8.134 54.7897 7.714 55.1071 7.35C55.4337 6.97667 55.8351 6.68267 56.3111 6.468C56.7871 6.244 57.3377 6.132 57.9631 6.132C58.7844 6.132 59.4704 6.314 60.0211 6.678C60.5811 7.03267 61.0011 7.504 61.2811 8.092C61.5611 8.67067 61.7011 9.296 61.7011 9.968V10.668H54.9671V9.478H60.4831L59.8811 10.066C59.8811 9.58067 59.8111 9.16533 59.6711 8.82C59.5311 8.47467 59.3164 8.20867 59.0271 8.022C58.7471 7.83533 58.3924 7.742 57.9631 7.742C57.5337 7.742 57.1697 7.84 56.8711 8.036C56.5724 8.232 56.3437 8.51667 56.1851 8.89C56.0357 9.254 55.9611 9.69267 55.9611 10.206C55.9611 10.682 56.0357 11.1067 56.1851 11.48C56.3344 11.844 56.5631 12.1333 56.8711 12.348C57.1791 12.5533 57.5711 12.656 58.0471 12.656C58.5231 12.656 58.9104 12.5627 59.2091 12.376C59.5077 12.18 59.6991 11.942 59.7831 11.662H61.5751C61.4631 12.1847 61.2484 12.642 60.9311 13.034C60.6137 13.426 60.2077 13.7293 59.7131 13.944C59.2277 14.1587 58.6724 14.266 58.0471 14.266Z" fill="white"/>
<path d="M70 3L76 9L70 15" stroke="white" stroke-width="2" stroke-linecap="round" stroke-linejoin="round"/>
</svg>
