<svg width="24" height="24" viewBox="0 0 24 24" fill="none" xmlns="http://www.w3.org/2000/svg">
<path d="M8.46961 15.7264C9.63161 16.9074 9.76611 18.1769 8.47811 19.4859C7.68011 20.2964 6.38811 20.7834 4.61011 20.9919C4.51811 21.0029 4.42511 21.0024 4.33261 20.9914C3.70761 20.9154 3.25111 20.3599 3.28111 19.7254L3.28761 19.6424L3.31311 19.4324C3.53111 17.7374 4.00311 16.4964 4.76961 15.7174C6.05761 14.4089 7.30711 14.5459 8.46961 15.7264ZM19.1151 3.31986L19.3161 3.38136L19.5126 3.44686C19.7545 3.53166 19.9739 3.67041 20.1541 3.8526C20.3344 4.03478 20.4709 4.25561 20.5531 4.49836C21.3366 6.78736 21.0876 9.10636 19.8246 11.4054C19.3041 12.3524 18.6381 13.2489 17.8276 14.0944L17.6031 14.3239L17.3906 14.5319L17.3846 14.5964C17.2371 15.9734 16.1926 17.7944 14.2681 20.1489L14.1011 20.3524L13.7936 20.7199C13.4456 21.1329 12.7976 21.0179 12.5946 20.5299L12.5706 20.4644L11.4946 17.0304L11.3971 16.9629C10.7925 16.5321 10.2166 16.0625 9.67311 15.5569L9.40561 15.3019L9.14361 15.0419C8.36973 14.2544 7.67321 13.3944 7.06361 12.4739L7.00411 12.3814L3.50011 11.2484C3.00711 11.0884 2.84811 10.4789 3.16111 10.0959L3.20261 10.0489L3.24761 10.0069C6.12961 7.48886 8.25611 6.24036 9.77911 6.34436L9.87711 6.35286L9.93411 6.35986L10.0626 6.22986C10.7536 5.54286 11.4771 4.95836 12.2336 4.47786L12.4866 4.32136L12.7191 4.18536C14.8301 2.98836 16.9731 2.69386 19.1151 3.32036V3.31986ZM12.6556 8.15536C11.7791 9.03236 11.7821 10.4569 12.6626 11.3374C13.5431 12.2179 14.9676 12.2209 15.8446 11.3444C16.7211 10.4674 16.7181 9.04286 15.8376 8.16236C14.9571 7.28186 13.5326 7.27886 12.6556 8.15536Z" stroke="white" stroke-width="1.5" stroke-linecap="square" stroke-linejoin="round"/>
</svg>
