<svg width="306" height="459" viewBox="0 0 306 459" fill="none" xmlns="http://www.w3.org/2000/svg">
<g clip-path="url(#clip0_131_553)">
<path d="M247.421 0H32C14.3269 0 0 14.3269 0 32V427C0 444.673 14.3269 459 32 459H274C291.673 459 306 444.673 306 427V76.7534C306 71.0024 304.45 65.3577 301.513 60.413L274.934 15.6597C269.168 5.95108 258.713 0 247.421 0Z" fill="#0E0C15"/>
<path d="M32 1H247.421C258.36 1 268.489 6.76511 274.075 16.1703L300.654 60.9237C303.499 65.7138 305 71.1821 305 76.7534V427C305 444.121 291.121 458 274 458H32C14.8792 458 1 444.121 1 427V32C1 14.8792 14.8792 1 32 1Z" stroke="white" stroke-opacity="0.15" stroke-width="2"/>
<path d="M32 1H247.421C258.36 1 268.489 6.76511 274.075 16.1703L300.654 60.9237C303.499 65.7138 305 71.1821 305 76.7534V427C305 444.121 291.121 458 274 458H32C14.8792 458 1 444.121 1 427V32C1 14.8792 14.8792 1 32 1Z" stroke="url(#paint0_linear_131_553)" stroke-opacity="0.85" stroke-width="2"/>
<rect x="40" y="36" width="48" height="48" rx="12" fill="#FF776F"/>
<path d="M63.6639 48.9999C65.1821 48.9999 66.6103 49.2882 67.9486 49.8675C69.2869 50.4467 70.4533 51.2322 71.4478 52.2267C72.4423 53.2211 73.2278 54.3875 73.807 55.7258C74.3862 57.0641 74.6745 58.4924 74.6745 60.0105C74.6745 61.5287 74.3862 62.9569 73.807 64.2952C73.2278 65.6335 72.4423 66.7999 71.4478 67.7944C70.4533 68.7888 69.2869 69.5717 67.9486 70.143C66.6103 70.7143 65.1821 70.9999 63.6639 70.9999C62.3177 70.9999 61.0455 70.7725 59.8474 70.3202C58.6493 69.8653 57.5649 69.2411 56.5942 68.4424L59.2708 62.7374C59.5988 63.269 59.9056 63.7636 60.1859 64.2159C60.4213 64.6073 60.6567 64.9802 60.8895 65.332C61.1249 65.6838 61.2888 65.9218 61.3814 66.0487C61.5533 66.2683 61.7147 66.4719 61.8628 66.6597C62.0109 66.8475 62.2198 66.9559 62.4843 66.9877C62.8123 67.0353 63.0477 66.9771 63.1879 66.8105C63.328 66.6465 63.4841 66.4296 63.6587 66.1651C63.7063 66.1016 63.7962 65.9377 63.9284 65.6732C64.0607 65.406 64.222 65.0781 64.4098 64.6866C64.5976 64.2952 64.8092 63.8614 65.0446 63.3827C65.28 62.904 65.5153 62.4147 65.7481 61.9148C66.2956 60.7564 66.9065 59.4657 67.581 58.0401L70.0698 59.3784L69.0595 52.1235L62.6774 56.0459L65.473 57.0086L62.5134 63.0891C62.0585 62.3539 61.6671 61.7112 61.3391 61.1637C61.1989 60.9283 61.0614 60.7061 60.9291 60.4945C60.7969 60.2829 60.6832 60.1004 60.588 59.9418L60.3764 59.59C60.4398 59.7143 60.4425 59.7355 60.387 59.6482C60.3314 59.5609 60.2415 59.4419 60.1172 59.2832C59.9929 59.1271 59.85 58.9711 59.694 58.8124C59.5379 58.6563 59.3898 58.577 59.247 58.577C58.8873 58.577 58.6281 58.6669 58.4721 58.8468C58.316 59.0266 58.1891 59.2329 58.0965 59.4683C58.0648 59.5318 57.9881 59.6984 57.8611 59.9735C57.7368 60.2486 57.5728 60.5871 57.3692 60.9944C57.1655 61.4017 56.946 61.8566 56.7106 62.3565L55.9594 63.8112C55.7241 64.3111 55.4966 64.7898 55.2797 65.2447C55.0602 65.6996 54.8724 66.0831 54.7164 66.3952C54.0578 65.488 53.5553 64.4936 53.2008 63.4118C52.8491 62.3327 52.6719 61.1981 52.6719 60.0079C52.6719 58.4897 52.9575 57.0615 53.5288 55.7232C54.1001 54.3849 54.883 53.2185 55.8775 52.224C56.8719 51.2296 58.0383 50.444 59.3766 49.8648C60.7176 49.2909 62.1458 48.9999 63.6639 48.9999Z" fill="black"/>
<g style="mix-blend-mode:color-dodge" opacity="0.4" filter="url(#filter0_f_131_553)">
<g clip-path="url(#clip1_131_553)">
<path d="M306 109H64V351H306V109Z" fill="white"/>
<path d="M306 109H64V351H306V109Z" fill="#907CFF" fill-opacity="0.163124"/>
<mask id="mask0_131_553" style="mask-type:luminance" maskUnits="userSpaceOnUse" x="64" y="109" width="242" height="242">
<path d="M306 109H64V351H306V109Z" fill="white"/>
</mask>
<g mask="url(#mask0_131_553)">
<g filter="url(#filter1_f_131_553)">
<path d="M305.244 230H120.265V403.333H305.244V230Z" fill="#907CFF"/>
</g>
</g>
<g style="mix-blend-mode:overlay">
<path d="M306 109H64V351H306V109Z" fill="#808080"/>
</g>
</g>
</g>
</g>
<defs>
<filter id="filter0_f_131_553" x="-56" y="-11" width="482" height="482" filterUnits="userSpaceOnUse" color-interpolation-filters="sRGB">
<feFlood flood-opacity="0" result="BackgroundImageFix"/>
<feBlend mode="normal" in="SourceGraphic" in2="BackgroundImageFix" result="shape"/>
<feGaussianBlur stdDeviation="60" result="effect1_foregroundBlur_131_553"/>
</filter>
<filter id="filter1_f_131_553" x="-129.735" y="-20" width="684.979" height="673.333" filterUnits="userSpaceOnUse" color-interpolation-filters="sRGB">
<feFlood flood-opacity="0" result="BackgroundImageFix"/>
<feBlend mode="normal" in="SourceGraphic" in2="BackgroundImageFix" result="shape"/>
<feGaussianBlur stdDeviation="125" result="effect1_foregroundBlur_131_553"/>
</filter>
<linearGradient id="paint0_linear_131_553" x1="153" y1="0" x2="153" y2="459" gradientUnits="userSpaceOnUse">
<stop stop-color="#B6EE7D"/>
<stop offset="0.562842" stop-color="#FF3F33" stop-opacity="0"/>
</linearGradient>
<clipPath id="clip0_131_553">
<rect width="306" height="459" fill="white"/>
</clipPath>
<clipPath id="clip1_131_553">
<rect x="64" y="109" width="242" height="242" rx="121" fill="white"/>
</clipPath>
</defs>
</svg>
