<svg width="306" height="459" viewBox="0 0 306 459" fill="none" xmlns="http://www.w3.org/2000/svg">
<g clip-path="url(#clip0_131_507)">
<rect x="246" y="10" width="52" height="52" rx="12" fill="#AC6AFF"/>
<path d="M247.421 0H32C14.3269 0 0 14.3269 0 32V427C0 444.673 14.3269 459 32 459H274C291.673 459 306 444.673 306 427V76.7534C306 71.0024 304.45 65.3577 301.513 60.413L274.934 15.6597C269.168 5.95108 258.713 0 247.421 0Z" fill="#0E0C15"/>
<path d="M32 1H247.421C258.36 1 268.489 6.76511 274.075 16.1703L300.654 60.9237C303.499 65.7138 305 71.1821 305 76.7534V427C305 444.121 291.121 458 274 458H32C14.8792 458 1 444.121 1 427V32C1 14.8792 14.8792 1 32 1Z" stroke="white" stroke-opacity="0.15" stroke-width="2"/>
<path d="M32 1H247.421C258.36 1 268.489 6.76511 274.075 16.1703L300.654 60.9237C303.499 65.7138 305 71.1821 305 76.7534V427C305 444.121 291.121 458 274 458H32C14.8792 458 1 444.121 1 427V32C1 14.8792 14.8792 1 32 1Z" stroke="url(#paint0_linear_131_507)" stroke-opacity="0.85" stroke-width="2"/>
<mask id="mask0_131_507" style="mask-type:alpha" maskUnits="userSpaceOnUse" x="-37" y="2" width="380" height="455">
<path d="M276.795 2H-5C-22.6731 2 -37 16.3269 -37 34V425C-37 442.673 -22.6731 457 -5 457H311C328.673 457 343 442.673 343 425V79.9734C343 73.0916 340.781 66.3932 336.674 60.8719L302.469 14.8986C296.431 6.78286 286.911 2 276.795 2Z" fill="#0E0C15"/>
<path d="M-5 3H276.795C286.595 3 295.817 7.63339 301.667 15.4955L335.871 61.4688C339.851 66.8176 342 73.3067 342 79.9734V425C342 442.121 328.121 456 311 456H-5C-22.1208 456 -36 442.121 -36 425V34C-36 16.8792 -22.1208 3 -5 3Z" stroke="white" stroke-opacity="0.15" stroke-width="2"/>
<path d="M-5 3H276.795C286.595 3 295.817 7.63339 301.667 15.4955L335.871 61.4688C339.851 66.8176 342 73.3067 342 79.9734V425C342 442.121 328.121 456 311 456H-5C-22.1208 456 -36 442.121 -36 425V34C-36 16.8792 -22.1208 3 -5 3Z" stroke="url(#paint1_linear_131_507)" stroke-opacity="0.85" stroke-width="2"/>
</mask>
<g mask="url(#mask0_131_507)">
</g>
<rect x="40" y="34" width="48" height="48" rx="12" fill="#FFC876"/>
<path d="M75.2223 48.9346C75.2226 48.4228 75.02 47.9318 74.6589 47.5691C74.2978 47.2065 73.8077 47.0018 73.2959 47H55.15C54.1861 47 53.2236 47.9666 53.2236 48.9346V51.9163H75.2223V48.9346ZM53.2236 53.9878V65.9888C53.2236 67.3363 53.9943 68.3111 55.15 68.3125H73.2959C74.0666 68.3125 74.4529 68.12 74.8373 67.5384C71.947 62.3113 68.4793 63.2779 68.4793 63.2779V66.3765L63.6626 61.3433L68.4793 57.2829V60.3733C68.4793 60.3733 74.4468 59.5991 75.2236 66.7629V53.9878H53.2236Z" fill="black"/>
</g>
<defs>
<linearGradient id="paint0_linear_131_507" x1="153" y1="0" x2="153" y2="459" gradientUnits="userSpaceOnUse">
<stop stop-color="#FFC876"/>
<stop offset="0.562842" stop-color="#D633FF" stop-opacity="0"/>
</linearGradient>
<linearGradient id="paint1_linear_131_507" x1="153" y1="2" x2="153" y2="457" gradientUnits="userSpaceOnUse">
<stop stop-color="#FFC876"/>
<stop offset="0.562842" stop-color="#D633FF" stop-opacity="0"/>
</linearGradient>
<clipPath id="clip0_131_507">
<rect width="306" height="459" fill="white"/>
</clipPath>
</defs>
</svg>
