<svg width="306" height="459" viewBox="0 0 306 459" fill="none" xmlns="http://www.w3.org/2000/svg">
<g clip-path="url(#clip0_131_531)">
<path d="M247.421 0H32C14.3269 0 0 14.3269 0 32V427C0 444.673 14.3269 459 32 459H274C291.673 459 306 444.673 306 427V76.7534C306 71.0024 304.45 65.3577 301.513 60.413L274.934 15.6597C269.168 5.95108 258.713 0 247.421 0Z" fill="#0E0C15"/>
<path d="M32 1H247.421C258.36 1 268.489 6.76511 274.075 16.1703L300.654 60.9237C303.499 65.7138 305 71.1821 305 76.7534V427C305 444.121 291.121 458 274 458H32C14.8792 458 1 444.121 1 427V32C1 14.8792 14.8792 1 32 1Z" stroke="white" stroke-opacity="0.15" stroke-width="2"/>
<path d="M32 1H247.421C258.36 1 268.489 6.76511 274.075 16.1703L300.654 60.9237C303.499 65.7138 305 71.1821 305 76.7534V427C305 444.121 291.121 458 274 458H32C14.8792 458 1 444.121 1 427V32C1 14.8792 14.8792 1 32 1Z" stroke="url(#paint0_linear_131_531)" stroke-opacity="0.85" stroke-width="2"/>
<rect x="40" y="34.5" width="48" height="48" rx="12" fill="#7ADB78"/>
<path d="M72.4229 62.2481C72.2147 62.0399 71.9324 61.923 71.638 61.923C71.3436 61.923 71.0612 62.0399 70.853 62.2481C70.6449 62.4563 70.5279 62.7386 70.5279 63.033C70.5279 63.3274 70.6449 63.6098 70.853 63.8179L71.6968 64.6617H70.8687C70.1013 64.6607 69.3416 64.5085 68.633 64.2139C67.9244 63.9193 67.2808 63.488 66.7388 62.9446C66.1969 62.4012 65.7673 61.7564 65.4746 61.047C65.1819 60.3376 65.0318 59.5775 65.0328 58.8101C65.0297 56.6804 64.1823 54.6388 62.6763 53.1328C61.1704 51.6269 59.1288 50.7795 56.9991 50.7764H54.5462C54.2547 50.7764 53.9752 50.8921 53.7691 51.0982C53.563 51.3043 53.4473 51.5838 53.4473 51.8753C53.4473 52.1667 53.563 52.4462 53.7691 52.6523C53.9752 52.8584 54.2547 52.9742 54.5462 52.9742H56.9991C58.5462 52.9762 60.0294 53.5918 61.1234 54.6858C62.2174 55.7798 62.8329 57.263 62.835 58.8101C62.8381 60.9398 63.6855 62.9814 65.1915 64.4874C66.6974 65.9933 68.739 66.8407 70.8687 66.8438H71.6537L70.8687 67.6052C70.7145 67.7594 70.6097 67.9559 70.5675 68.1698C70.5254 68.3837 70.5478 68.6053 70.632 68.8065C70.7161 69.0076 70.8582 69.1792 71.0401 69.2993C71.2221 69.4195 71.4356 69.4828 71.6537 69.4812C71.7994 69.4831 71.9441 69.4556 72.0789 69.4003C72.2138 69.345 72.3361 69.2631 72.4386 69.1594L75.1191 66.4788C75.2231 66.3762 75.3056 66.254 75.3619 66.1193C75.4183 65.9845 75.4473 65.84 75.4473 65.6939C75.4473 65.5479 75.4183 65.4033 75.3619 65.2685C75.3056 65.1338 75.2231 65.0116 75.1191 64.909L72.4229 62.2481ZM62.6309 63.241C62.5114 63.16 62.377 63.1034 62.2356 63.0744C62.0941 63.0453 61.9484 63.0445 61.8066 63.0718C61.6648 63.0991 61.5298 63.1541 61.4093 63.2337C61.2888 63.3132 61.1851 63.4157 61.1042 63.5354C60.5706 64.3284 59.8501 64.9781 59.0063 65.427C58.1624 65.876 57.221 66.1105 56.2652 66.1099H54.5462C54.2547 66.1099 53.9752 66.2257 53.7691 66.4318C53.563 66.6379 53.4473 66.9174 53.4473 67.2088C53.4473 67.5003 53.563 67.7798 53.7691 67.9859C53.9752 68.1919 54.2547 68.3077 54.5462 68.3077H56.2652C57.5817 68.3117 58.879 67.9915 60.0426 67.3755C61.2061 66.7595 62.2002 65.8666 62.937 64.7755C63.0187 64.655 63.0756 64.5195 63.1044 64.3767C63.1332 64.234 63.1334 64.087 63.1049 63.9443C63.0764 63.8015 63.0198 63.6658 62.9385 63.5451C62.8571 63.4243 62.7526 63.321 62.6309 63.241Z" fill="black"/>
<path d="M54.5462 59.9562H60.5509C60.8423 59.9562 61.1218 59.8404 61.3279 59.6343C61.534 59.4282 61.6498 59.1487 61.6498 58.8573C61.6498 58.5658 61.534 58.2863 61.3279 58.0802C61.1218 57.8742 60.8423 57.7584 60.5509 57.7584H54.5462C54.2547 57.7584 53.9752 57.8742 53.7691 58.0802C53.563 58.2863 53.4473 58.5658 53.4473 58.8573C53.4473 59.1487 53.563 59.4282 53.7691 59.6343C53.9752 59.8404 54.2547 59.9562 54.5462 59.9562ZM65.335 55.0582C65.519 55.1834 65.7364 55.2504 65.959 55.2505C66.1374 55.2512 66.3132 55.2083 66.4712 55.1255C66.6292 55.0428 66.7646 54.9227 66.8656 54.7757C67.402 53.9947 68.1203 53.3558 68.9585 52.9141C69.7967 52.4725 70.7297 52.2412 71.6772 52.2403H71.8106L70.8687 53.1823C70.7145 53.3364 70.6097 53.5329 70.5675 53.7469C70.5254 53.9608 70.5478 54.1824 70.632 54.3835C70.7161 54.5847 70.8582 54.7562 71.0401 54.8764C71.2221 54.9965 71.4356 55.0598 71.6537 55.0582C71.7994 55.0602 71.9441 55.0327 72.0789 54.9774C72.2138 54.9221 72.3361 54.8401 72.4386 54.7364L75.1191 52.0598C75.2231 51.9572 75.3056 51.835 75.3619 51.7003C75.4183 51.5655 75.4473 51.4209 75.4473 51.2749C75.4473 51.1288 75.4183 50.9842 75.3619 50.8495C75.3056 50.7148 75.2231 50.5925 75.1191 50.49L72.4229 47.8251C72.2147 47.617 71.9324 47.5 71.638 47.5C71.3436 47.5 71.0612 47.617 70.853 47.8251C70.6449 48.0333 70.5279 48.3156 70.5279 48.6101C70.5279 48.9045 70.6449 49.1868 70.853 49.395L71.5241 50.0622C70.2435 50.0847 68.9867 50.4127 67.8583 51.0189C66.7299 51.625 65.7626 52.4919 65.0367 53.5472C64.8795 53.7882 64.8227 54.0811 64.8784 54.3634C64.9341 54.6457 65.098 54.8951 65.335 55.0582Z" fill="black"/>
</g>
<defs>
<linearGradient id="paint0_linear_131_531" x1="153" y1="0" x2="153" y2="459" gradientUnits="userSpaceOnUse">
<stop stop-color="#D77DEE"/>
<stop offset="0.562842" stop-color="#D633FF" stop-opacity="0"/>
</linearGradient>
<clipPath id="clip0_131_531">
<rect width="306" height="459" fill="white"/>
</clipPath>
</defs>
</svg>
