<svg width="691" height="200" viewBox="0 0 691 200" fill="none" xmlns="http://www.w3.org/2000/svg">
<path d="M86.8925 56L101.833 12.2H115.753L131.113 56H122.353L109.333 18.02L112.393 19.34H104.893L108.013 18.02L95.4125 56H86.8925ZM97.3325 44.36L100.033 37.16H117.793L120.433 44.36H97.3325ZM136.959 56V23.42H143.559V37.22H143.379C143.379 32.54 144.379 29 146.379 26.6C148.379 24.2 151.319 23 155.199 23H156.399V30.26H154.119C151.319 30.26 149.139 31.02 147.579 32.54C146.059 34.02 145.299 36.18 145.299 39.02V56H136.959ZM176.324 57.14C173.524 57.14 171.064 56.66 168.944 55.7C166.864 54.74 165.124 53.46 163.724 51.86C162.364 50.22 161.324 48.4 160.604 46.4C159.924 44.4 159.584 42.36 159.584 40.28V39.14C159.584 36.98 159.924 34.9 160.604 32.9C161.324 30.86 162.364 29.06 163.724 27.5C165.124 25.9 166.844 24.64 168.884 23.72C170.924 22.76 173.284 22.28 175.964 22.28C179.484 22.28 182.424 23.06 184.784 24.62C187.184 26.14 188.984 28.16 190.184 30.68C191.384 33.16 191.984 35.84 191.984 38.72V41.72H163.124V36.62H186.764L184.184 39.14C184.184 37.06 183.884 35.28 183.284 33.8C182.684 32.32 181.764 31.18 180.524 30.38C179.324 29.58 177.804 29.18 175.964 29.18C174.124 29.18 172.564 29.6 171.284 30.44C170.004 31.28 169.024 32.5 168.344 34.1C167.704 35.66 167.384 37.54 167.384 39.74C167.384 41.78 167.704 43.6 168.344 45.2C168.984 46.76 169.964 48 171.284 48.92C172.604 49.8 174.284 50.24 176.324 50.24C178.364 50.24 180.024 49.84 181.304 49.04C182.584 48.2 183.404 47.18 183.764 45.98H191.444C190.964 48.22 190.044 50.18 188.684 51.86C187.324 53.54 185.584 54.84 183.464 55.76C181.384 56.68 179.004 57.14 176.324 57.14ZM210.94 68.84V61.7H217.06C218.22 61.7 219.18 61.54 219.94 61.22C220.74 60.94 221.4 60.46 221.92 59.78C222.44 59.14 222.84 58.24 223.12 57.08L231.88 23.42H239.86L230.2 58.88C229.56 61.32 228.66 63.26 227.5 64.7C226.34 66.18 224.84 67.24 223 67.88C221.2 68.52 218.96 68.84 216.28 68.84H210.94ZM221.08 55.28V48.68H228.04V55.28H221.08ZM218.26 55.28L207.7 23.42H216.1L226.12 55.28H218.26ZM260.548 57.14C257.668 57.14 255.128 56.68 252.928 55.76C250.728 54.84 248.868 53.6 247.348 52.04C245.828 50.44 244.668 48.64 243.868 46.64C243.108 44.64 242.728 42.56 242.728 40.4V39.14C242.728 36.9 243.128 34.78 243.928 32.78C244.768 30.74 245.948 28.94 247.468 27.38C249.028 25.78 250.908 24.54 253.108 23.66C255.308 22.74 257.788 22.28 260.548 22.28C263.308 22.28 265.788 22.74 267.988 23.66C270.188 24.54 272.048 25.78 273.568 27.38C275.128 28.94 276.308 30.74 277.108 32.78C277.908 34.78 278.308 36.9 278.308 39.14V40.4C278.308 42.56 277.908 44.64 277.108 46.64C276.348 48.64 275.208 50.44 273.688 52.04C272.168 53.6 270.308 54.84 268.108 55.76C265.908 56.68 263.388 57.14 260.548 57.14ZM260.548 50C262.588 50 264.308 49.56 265.708 48.68C267.108 47.76 268.168 46.54 268.888 45.02C269.608 43.46 269.968 41.7 269.968 39.74C269.968 37.74 269.588 35.98 268.828 34.46C268.108 32.9 267.028 31.68 265.588 30.8C264.188 29.88 262.508 29.42 260.548 29.42C258.588 29.42 256.888 29.88 255.448 30.8C254.048 31.68 252.968 32.9 252.208 34.46C251.448 35.98 251.068 37.74 251.068 39.74C251.068 41.7 251.428 43.46 252.148 45.02C252.908 46.54 253.988 47.76 255.388 48.68C256.788 49.56 258.508 50 260.548 50ZM296.711 57.02C292.951 57.02 290.031 55.78 287.951 53.3C285.911 50.82 284.891 47.14 284.891 42.26V23.36H293.231V42.98C293.231 44.98 293.791 46.58 294.911 47.78C296.031 48.94 297.551 49.52 299.471 49.52C301.391 49.52 302.951 48.9 304.151 47.66C305.391 46.42 306.011 44.74 306.011 42.62V23.36H314.351V56H307.751V42.14H308.411C308.411 45.42 307.991 48.16 307.151 50.36C306.311 52.56 305.051 54.22 303.371 55.34C301.691 56.46 299.591 57.02 297.071 57.02H296.711ZM356.621 56V46.34H355.241V35.6C355.241 33.72 354.781 32.32 353.861 31.4C352.941 30.48 351.521 30.02 349.601 30.02C348.601 30.02 347.401 30.04 346.001 30.08C344.601 30.12 343.181 30.18 341.741 30.26C340.341 30.3 339.081 30.36 337.961 30.44V23.36C338.881 23.28 339.921 23.2 341.081 23.12C342.241 23.04 343.421 23 344.621 23C345.861 22.96 347.021 22.94 348.101 22.94C351.461 22.94 354.241 23.38 356.441 24.26C358.681 25.14 360.361 26.52 361.481 28.4C362.641 30.28 363.221 32.74 363.221 35.78V56H356.621ZM346.121 56.84C343.761 56.84 341.681 56.42 339.881 55.58C338.121 54.74 336.741 53.54 335.741 51.98C334.781 50.42 334.301 48.54 334.301 46.34C334.301 43.94 334.881 41.98 336.041 40.46C337.241 38.94 338.901 37.8 341.021 37.04C343.181 36.28 345.701 35.9 348.581 35.9H356.141V40.88H348.461C346.541 40.88 345.061 41.36 344.021 42.32C343.021 43.24 342.521 44.44 342.521 45.92C342.521 47.4 343.021 48.6 344.021 49.52C345.061 50.44 346.541 50.9 348.461 50.9C349.621 50.9 350.681 50.7 351.641 50.3C352.641 49.86 353.461 49.14 354.101 48.14C354.781 47.1 355.161 45.7 355.241 43.94L357.281 46.28C357.081 48.56 356.521 50.48 355.601 52.04C354.721 53.6 353.481 54.8 351.881 55.64C350.321 56.44 348.401 56.84 346.121 56.84ZM393.083 42.56V35.18H401.603C403.323 35.18 404.763 34.84 405.923 34.16C407.123 33.48 408.023 32.54 408.623 31.34C409.263 30.14 409.583 28.76 409.583 27.2C409.583 25.64 409.263 24.26 408.623 23.06C408.023 21.86 407.123 20.94 405.923 20.3C404.763 19.62 403.323 19.28 401.603 19.28H393.083V11.9H400.883C404.563 11.9 407.683 12.5 410.243 13.7C412.843 14.9 414.823 16.62 416.183 18.86C417.543 21.06 418.223 23.68 418.223 26.72V27.68C418.223 30.72 417.543 33.36 416.183 35.6C414.823 37.8 412.843 39.52 410.243 40.76C407.683 41.96 404.563 42.56 400.883 42.56H393.083ZM385.763 56V11.9H394.283V56H385.763ZM424.83 56V23.42H431.43V37.22H431.25C431.25 32.54 432.25 29 434.25 26.6C436.25 24.2 439.19 23 443.07 23H444.27V30.26H441.99C439.19 30.26 437.01 31.02 435.45 32.54C433.93 34.02 433.17 36.18 433.17 39.02V56H424.83ZM465.275 57.14C462.395 57.14 459.855 56.68 457.655 55.76C455.455 54.84 453.595 53.6 452.075 52.04C450.555 50.44 449.395 48.64 448.595 46.64C447.835 44.64 447.455 42.56 447.455 40.4V39.14C447.455 36.9 447.855 34.78 448.655 32.78C449.495 30.74 450.675 28.94 452.195 27.38C453.755 25.78 455.635 24.54 457.835 23.66C460.035 22.74 462.515 22.28 465.275 22.28C468.035 22.28 470.515 22.74 472.715 23.66C474.915 24.54 476.775 25.78 478.295 27.38C479.855 28.94 481.035 30.74 481.835 32.78C482.635 34.78 483.035 36.9 483.035 39.14V40.4C483.035 42.56 482.635 44.64 481.835 46.64C481.075 48.64 479.935 50.44 478.415 52.04C476.895 53.6 475.035 54.84 472.835 55.76C470.635 56.68 468.115 57.14 465.275 57.14ZM465.275 50C467.315 50 469.035 49.56 470.435 48.68C471.835 47.76 472.895 46.54 473.615 45.02C474.335 43.46 474.695 41.7 474.695 39.74C474.695 37.74 474.315 35.98 473.555 34.46C472.835 32.9 471.755 31.68 470.315 30.8C468.915 29.88 467.235 29.42 465.275 29.42C463.315 29.42 461.615 29.88 460.175 30.8C458.775 31.68 457.695 32.9 456.935 34.46C456.175 35.98 455.795 37.74 455.795 39.74C455.795 41.7 456.155 43.46 456.875 45.02C457.635 46.54 458.715 47.76 460.115 48.68C461.515 49.56 463.235 50 465.275 50ZM485.718 68.3V61.16H488.238C489.718 61.16 490.858 60.76 491.658 59.96C492.458 59.16 492.858 58.02 492.858 56.54V23.42H500.898V56.06C500.898 59.06 500.438 61.44 499.518 63.2C498.598 65 497.178 66.3 495.258 67.1C493.338 67.9 490.818 68.3 487.698 68.3H485.718ZM488.118 29.66V23.42H500.898V29.66H488.118ZM495.558 19.28C493.958 19.28 492.758 18.86 491.958 18.02C491.198 17.14 490.818 16.04 490.818 14.72C490.818 13.4 491.198 12.32 491.958 11.48C492.758 10.64 493.958 10.22 495.558 10.22C497.198 10.22 498.398 10.64 499.158 11.48C499.958 12.32 500.358 13.4 500.358 14.72C500.358 16.04 499.958 17.14 499.158 18.02C498.398 18.86 497.198 19.28 495.558 19.28ZM524.84 57.14C522.04 57.14 519.58 56.66 517.46 55.7C515.38 54.74 513.64 53.46 512.24 51.86C510.88 50.22 509.84 48.4 509.12 46.4C508.44 44.4 508.1 42.36 508.1 40.28V39.14C508.1 36.98 508.44 34.9 509.12 32.9C509.84 30.86 510.88 29.06 512.24 27.5C513.64 25.9 515.36 24.64 517.4 23.72C519.44 22.76 521.8 22.28 524.48 22.28C528 22.28 530.94 23.06 533.3 24.62C535.7 26.14 537.5 28.16 538.7 30.68C539.9 33.16 540.5 35.84 540.5 38.72V41.72H511.64V36.62H535.28L532.7 39.14C532.7 37.06 532.4 35.28 531.8 33.8C531.2 32.32 530.28 31.18 529.04 30.38C527.84 29.58 526.32 29.18 524.48 29.18C522.64 29.18 521.08 29.6 519.8 30.44C518.52 31.28 517.54 32.5 516.86 34.1C516.22 35.66 515.9 37.54 515.9 39.74C515.9 41.78 516.22 43.6 516.86 45.2C517.5 46.76 518.48 48 519.8 48.92C521.12 49.8 522.8 50.24 524.84 50.24C526.88 50.24 528.54 49.84 529.82 49.04C531.1 48.2 531.92 47.18 532.28 45.98H539.96C539.48 48.22 538.56 50.18 537.2 51.86C535.84 53.54 534.1 54.84 531.98 55.76C529.9 56.68 527.52 57.14 524.84 57.14ZM561.927 57.14C559.087 57.14 556.627 56.66 554.547 55.7C552.507 54.74 550.787 53.46 549.387 51.86C548.027 50.26 547.007 48.46 546.327 46.46C545.647 44.46 545.307 42.42 545.307 40.34V39.2C545.307 37 545.647 34.9 546.327 32.9C547.047 30.86 548.107 29.06 549.507 27.5C550.907 25.9 552.627 24.64 554.667 23.72C556.747 22.76 559.147 22.28 561.867 22.28C564.707 22.28 567.247 22.84 569.487 23.96C571.727 25.04 573.507 26.56 574.827 28.52C576.187 30.48 576.947 32.76 577.107 35.36H569.007C568.807 33.68 568.087 32.28 566.847 31.16C565.647 30.04 563.987 29.48 561.867 29.48C560.027 29.48 558.487 29.92 557.247 30.8C556.047 31.68 555.147 32.9 554.547 34.46C553.947 35.98 553.647 37.74 553.647 39.74C553.647 41.66 553.927 43.4 554.487 44.96C555.087 46.52 555.987 47.74 557.187 48.62C558.427 49.5 560.007 49.94 561.927 49.94C563.367 49.94 564.607 49.68 565.647 49.16C566.687 48.64 567.507 47.92 568.107 47C568.747 46.08 569.147 45.04 569.307 43.88H577.407C577.247 46.52 576.467 48.84 575.067 50.84C573.707 52.8 571.887 54.34 569.607 55.46C567.367 56.58 564.807 57.14 561.927 57.14ZM598.248 56.42C595.248 56.42 592.768 56.04 590.808 55.28C588.888 54.48 587.448 53.16 586.488 51.32C585.528 49.44 585.048 46.92 585.048 43.76L585.108 14.24H592.908L592.848 44.3C592.848 45.9 593.268 47.14 594.108 48.02C594.988 48.86 596.228 49.28 597.828 49.28H602.928V56.42H598.248ZM579.888 29.54V23.42H602.928V29.54H579.888ZM206.349 128V84.2H214.869V128H206.349ZM213.669 109.76V102.56L231.189 102.5V109.7L213.669 109.76ZM213.669 91.4V84.2H232.029V91.4H213.669ZM254.162 129.14C251.282 129.14 248.742 128.68 246.542 127.76C244.342 126.84 242.482 125.6 240.962 124.04C239.442 122.44 238.282 120.64 237.482 118.64C236.722 116.64 236.342 114.56 236.342 112.4V111.14C236.342 108.9 236.742 106.78 237.542 104.78C238.382 102.74 239.562 100.94 241.082 99.38C242.642 97.78 244.522 96.54 246.722 95.66C248.922 94.74 251.402 94.28 254.162 94.28C256.922 94.28 259.402 94.74 261.602 95.66C263.802 96.54 265.662 97.78 267.182 99.38C268.742 100.94 269.922 102.74 270.722 104.78C271.522 106.78 271.922 108.9 271.922 111.14V112.4C271.922 114.56 271.522 116.64 270.722 118.64C269.962 120.64 268.822 122.44 267.302 124.04C265.782 125.6 263.922 126.84 261.722 127.76C259.522 128.68 257.002 129.14 254.162 129.14ZM254.162 122C256.202 122 257.922 121.56 259.322 120.68C260.722 119.76 261.782 118.54 262.502 117.02C263.222 115.46 263.582 113.7 263.582 111.74C263.582 109.74 263.202 107.98 262.442 106.46C261.722 104.9 260.642 103.68 259.202 102.8C257.802 101.88 256.122 101.42 254.162 101.42C252.202 101.42 250.502 101.88 249.062 102.8C247.662 103.68 246.582 104.9 245.822 106.46C245.062 107.98 244.682 109.74 244.682 111.74C244.682 113.7 245.042 115.46 245.762 117.02C246.522 118.54 247.602 119.76 249.002 120.68C250.402 121.56 252.122 122 254.162 122ZM290.324 129.02C286.564 129.02 283.644 127.78 281.564 125.3C279.524 122.82 278.504 119.14 278.504 114.26V95.36H286.844V114.98C286.844 116.98 287.404 118.58 288.524 119.78C289.644 120.94 291.164 121.52 293.084 121.52C295.004 121.52 296.564 120.9 297.764 119.66C299.004 118.42 299.624 116.74 299.624 114.62V95.36H307.964V128H301.364V114.14H302.024C302.024 117.42 301.604 120.16 300.764 122.36C299.924 124.56 298.664 126.22 296.984 127.34C295.304 128.46 293.204 129.02 290.684 129.02H290.324ZM317.545 128V95.42H324.145V109.4H323.545C323.545 106.08 323.985 103.32 324.865 101.12C325.745 98.88 327.045 97.2 328.765 96.08C330.525 94.96 332.705 94.4 335.305 94.4H335.665C339.545 94.4 342.485 95.66 344.485 98.18C346.485 100.66 347.485 104.38 347.485 109.34V128H339.145V108.62C339.145 106.62 338.565 105 337.405 103.76C336.285 102.52 334.725 101.9 332.725 101.9C330.685 101.9 329.025 102.54 327.745 103.82C326.505 105.06 325.885 106.74 325.885 108.86V128H317.545ZM369.951 129.08C367.671 129.08 365.571 128.66 363.651 127.82C361.731 126.98 360.071 125.8 358.671 124.28C357.271 122.76 356.191 121 355.431 119C354.671 116.96 354.291 114.76 354.291 112.4V111.14C354.291 108.82 354.651 106.64 355.371 104.6C356.131 102.56 357.171 100.78 358.491 99.26C359.851 97.74 361.471 96.56 363.351 95.72C365.271 94.84 367.391 94.4 369.711 94.4C372.271 94.4 374.511 94.96 376.431 96.08C378.391 97.16 379.951 98.8 381.111 101C382.271 103.2 382.911 105.96 383.031 109.28L380.571 106.4V84.2H388.911V128H382.311V114.14H383.751C383.631 117.46 382.951 120.24 381.711 122.48C380.471 124.68 378.831 126.34 376.791 127.46C374.791 128.54 372.511 129.08 369.951 129.08ZM371.811 122.06C373.451 122.06 374.951 121.7 376.311 120.98C377.671 120.22 378.751 119.14 379.551 117.74C380.391 116.3 380.811 114.62 380.811 112.7V110.3C380.811 108.38 380.391 106.78 379.551 105.5C378.711 104.18 377.611 103.18 376.251 102.5C374.891 101.78 373.411 101.42 371.811 101.42C370.011 101.42 368.411 101.86 367.011 102.74C365.651 103.58 364.571 104.78 363.771 106.34C363.011 107.9 362.631 109.72 362.631 111.8C362.631 113.88 363.031 115.7 363.831 117.26C364.631 118.78 365.711 119.96 367.071 120.8C368.471 121.64 370.051 122.06 371.811 122.06ZM412.984 129.14C410.184 129.14 407.724 128.66 405.604 127.7C403.524 126.74 401.784 125.46 400.384 123.86C399.024 122.22 397.984 120.4 397.264 118.4C396.584 116.4 396.244 114.36 396.244 112.28V111.14C396.244 108.98 396.584 106.9 397.264 104.9C397.984 102.86 399.024 101.06 400.384 99.5C401.784 97.9 403.504 96.64 405.544 95.72C407.584 94.76 409.944 94.28 412.624 94.28C416.144 94.28 419.084 95.06 421.444 96.62C423.844 98.14 425.644 100.16 426.844 102.68C428.044 105.16 428.644 107.84 428.644 110.72V113.72H399.784V108.62H423.424L420.844 111.14C420.844 109.06 420.544 107.28 419.944 105.8C419.344 104.32 418.424 103.18 417.184 102.38C415.984 101.58 414.464 101.18 412.624 101.18C410.784 101.18 409.224 101.6 407.944 102.44C406.664 103.28 405.684 104.5 405.004 106.1C404.364 107.66 404.044 109.54 404.044 111.74C404.044 113.78 404.364 115.6 405.004 117.2C405.644 118.76 406.624 120 407.944 120.92C409.264 121.8 410.944 122.24 412.984 122.24C415.024 122.24 416.684 121.84 417.964 121.04C419.244 120.2 420.064 119.18 420.424 117.98H428.104C427.624 120.22 426.704 122.18 425.344 123.86C423.984 125.54 422.244 126.84 420.124 127.76C418.044 128.68 415.664 129.14 412.984 129.14ZM435.611 128V95.42H442.211V109.22H442.031C442.031 104.54 443.031 101 445.031 98.6C447.031 96.2 449.971 95 453.851 95H455.051V102.26H452.771C449.971 102.26 447.791 103.02 446.231 104.54C444.711 106.02 443.951 108.18 443.951 111.02V128H435.611ZM467.695 113.84V103.16H472.795C475.195 103.16 476.955 102.54 478.075 101.3C479.235 100.02 479.815 98.46 479.815 96.62C479.815 95.3 479.555 94.16 479.035 93.2C478.515 92.2 477.755 91.44 476.755 90.92C475.755 90.4 474.595 90.14 473.275 90.14C471.835 90.14 470.595 90.44 469.555 91.04C468.555 91.64 467.775 92.44 467.215 93.44C466.655 94.44 466.375 95.6 466.375 96.92H458.395C458.395 94.36 458.975 92.02 460.135 89.9C461.295 87.78 462.995 86.1 465.235 84.86C467.475 83.58 470.215 82.94 473.455 82.94C476.415 82.94 478.955 83.52 481.075 84.68C483.235 85.8 484.895 87.34 486.055 89.3C487.215 91.26 487.795 93.48 487.795 95.96V96.68C487.795 99.12 487.215 101.3 486.055 103.22C484.895 105.14 483.175 106.66 480.895 107.78C478.655 108.86 475.915 109.44 472.675 109.52L476.095 106.4L475.975 113.84H467.695ZM467.035 128V119.12H476.635V128H467.035Z" fill="white"/>
<path d="M199.244 191L204.504 176.4H207.824L213.244 191H211.224L206.324 177.68L207.284 178.16H204.924L205.944 177.68L201.204 191H199.244ZM202.384 186.64L203.044 184.88H209.344L210.004 186.64H202.384ZM215.641 195V180.32H217.161V184.94L216.801 184.9C216.867 183.753 217.107 182.82 217.521 182.1C217.947 181.367 218.501 180.827 219.181 180.48C219.861 180.133 220.601 179.96 221.401 179.96C222.174 179.96 222.874 180.107 223.501 180.4C224.141 180.693 224.687 181.093 225.141 181.6C225.594 182.107 225.941 182.693 226.181 183.36C226.421 184.027 226.541 184.733 226.541 185.48V185.84C226.541 186.587 226.414 187.293 226.161 187.96C225.907 188.627 225.547 189.213 225.081 189.72C224.627 190.227 224.081 190.627 223.441 190.92C222.814 191.213 222.121 191.36 221.361 191.36C220.601 191.36 219.874 191.193 219.181 190.86C218.487 190.527 217.914 189.987 217.461 189.24C217.007 188.493 216.747 187.513 216.681 186.3L217.561 187.9V195H215.641ZM221.061 189.68C221.781 189.68 222.407 189.513 222.941 189.18C223.474 188.833 223.887 188.36 224.181 187.76C224.474 187.147 224.621 186.447 224.621 185.66C224.621 184.86 224.474 184.16 224.181 183.56C223.887 182.96 223.474 182.493 222.941 182.16C222.407 181.813 221.781 181.64 221.061 181.64C220.421 181.64 219.827 181.787 219.281 182.08C218.734 182.36 218.294 182.773 217.961 183.32C217.641 183.853 217.481 184.5 217.481 185.26V186.18C217.481 186.913 217.647 187.54 217.981 188.06C218.314 188.58 218.754 188.98 219.301 189.26C219.847 189.54 220.434 189.68 221.061 189.68ZM229.43 195V180.32H230.95V184.94L230.59 184.9C230.657 183.753 230.897 182.82 231.31 182.1C231.737 181.367 232.29 180.827 232.97 180.48C233.65 180.133 234.39 179.96 235.19 179.96C235.963 179.96 236.663 180.107 237.29 180.4C237.93 180.693 238.477 181.093 238.93 181.6C239.383 182.107 239.73 182.693 239.97 183.36C240.21 184.027 240.33 184.733 240.33 185.48V185.84C240.33 186.587 240.203 187.293 239.95 187.96C239.697 188.627 239.337 189.213 238.87 189.72C238.417 190.227 237.87 190.627 237.23 190.92C236.603 191.213 235.91 191.36 235.15 191.36C234.39 191.36 233.663 191.193 232.97 190.86C232.277 190.527 231.703 189.987 231.25 189.24C230.797 188.493 230.537 187.513 230.47 186.3L231.35 187.9V195H229.43ZM234.85 189.68C235.57 189.68 236.197 189.513 236.73 189.18C237.263 188.833 237.677 188.36 237.97 187.76C238.263 187.147 238.41 186.447 238.41 185.66C238.41 184.86 238.263 184.16 237.97 183.56C237.677 182.96 237.263 182.493 236.73 182.16C236.197 181.813 235.57 181.64 234.85 181.64C234.21 181.64 233.617 181.787 233.07 182.08C232.523 182.36 232.083 182.773 231.75 183.32C231.43 183.853 231.27 184.5 231.27 185.26V186.18C231.27 186.913 231.437 187.54 231.77 188.06C232.103 188.58 232.543 188.98 233.09 189.26C233.637 189.54 234.223 189.68 234.85 189.68ZM243.339 191V176.4H245.259V191H243.339ZM241.859 177.92V176.4H245.259V177.92H241.859ZM248.222 195.16V193.44H249.762C250.215 193.44 250.595 193.38 250.902 193.26C251.222 193.153 251.482 192.967 251.682 192.7C251.895 192.433 252.068 192.08 252.202 191.64L255.562 180.32H257.442L253.882 192.14C253.668 192.847 253.368 193.42 252.982 193.86C252.595 194.313 252.122 194.64 251.562 194.84C251.015 195.053 250.375 195.16 249.642 195.16H248.222ZM251.482 190.76V189.16H253.802V190.76H251.482ZM251.282 190.76L247.462 180.32H249.422L253.082 190.76H251.282ZM264.71 191V176.4H266.67V191H264.71ZM266.27 184.5V182.74L272.53 182.72V184.48L266.27 184.5ZM266.27 178.16V176.4H272.87V178.16H266.27ZM280.346 191.36C279.413 191.36 278.593 191.2 277.886 190.88C277.179 190.56 276.579 190.14 276.086 189.62C275.606 189.087 275.239 188.493 274.986 187.84C274.746 187.187 274.626 186.52 274.626 185.84V185.48C274.626 184.8 274.753 184.133 275.006 183.48C275.259 182.813 275.633 182.22 276.126 181.7C276.619 181.167 277.219 180.747 277.926 180.44C278.633 180.12 279.439 179.96 280.346 179.96C281.253 179.96 282.059 180.12 282.766 180.44C283.473 180.747 284.073 181.167 284.566 181.7C285.059 182.22 285.433 182.813 285.686 183.48C285.939 184.133 286.066 184.8 286.066 185.48V185.84C286.066 186.52 285.939 187.187 285.686 187.84C285.446 188.493 285.079 189.087 284.586 189.62C284.106 190.14 283.513 190.56 282.806 190.88C282.099 191.2 281.279 191.36 280.346 191.36ZM280.346 189.64C281.146 189.64 281.826 189.467 282.386 189.12C282.959 188.76 283.393 188.28 283.686 187.68C283.993 187.08 284.146 186.407 284.146 185.66C284.146 184.9 283.993 184.22 283.686 183.62C283.379 183.02 282.939 182.547 282.366 182.2C281.806 181.853 281.133 181.68 280.346 181.68C279.573 181.68 278.899 181.853 278.326 182.2C277.753 182.547 277.313 183.02 277.006 183.62C276.699 184.22 276.546 184.9 276.546 185.66C276.546 186.407 276.693 187.08 276.986 187.68C277.293 188.28 277.726 188.76 278.286 189.12C278.859 189.467 279.546 189.64 280.346 189.64ZM288.942 191V180.32H290.462V184.72H290.382C290.382 183.16 290.722 182.02 291.402 181.3C292.095 180.567 293.128 180.2 294.502 180.2H294.862V181.92H294.182C293.115 181.92 292.295 182.207 291.722 182.78C291.148 183.34 290.862 184.153 290.862 185.22V191H288.942ZM302.015 191V176.4H303.975V191H302.015ZM309.825 191.08V189.28H313.465C314.345 189.28 315.125 189.14 315.805 188.86C316.498 188.567 317.085 188.167 317.565 187.66C318.058 187.153 318.431 186.56 318.685 185.88C318.938 185.2 319.065 184.467 319.065 183.68C319.065 182.853 318.938 182.107 318.685 181.44C318.431 180.76 318.058 180.173 317.565 179.68C317.085 179.173 316.498 178.787 315.805 178.52C315.125 178.253 314.345 178.12 313.465 178.12H309.825V176.32H313.265C314.585 176.32 315.731 176.527 316.705 176.94C317.678 177.34 318.485 177.887 319.125 178.58C319.778 179.26 320.265 180.027 320.585 180.88C320.905 181.72 321.065 182.58 321.065 183.46V183.9C321.065 184.753 320.905 185.607 320.585 186.46C320.265 187.313 319.778 188.087 319.125 188.78C318.485 189.473 317.678 190.033 316.705 190.46C315.731 190.873 314.585 191.08 313.265 191.08H309.825ZM308.265 191.08V176.32H310.225V191.08H308.265ZM330.625 191.36C329.318 191.36 328.192 191.127 327.245 190.66C326.298 190.193 325.518 189.58 324.905 188.82C324.292 188.06 323.832 187.247 323.525 186.38C323.232 185.513 323.085 184.68 323.085 183.88V183.44C323.085 182.573 323.238 181.7 323.545 180.82C323.852 179.94 324.318 179.14 324.945 178.42C325.572 177.687 326.352 177.1 327.285 176.66C328.232 176.22 329.345 176 330.625 176C331.905 176 333.012 176.22 333.945 176.66C334.892 177.1 335.678 177.687 336.305 178.42C336.932 179.14 337.398 179.94 337.705 180.82C338.012 181.7 338.165 182.573 338.165 183.44V183.88C338.165 184.68 338.012 185.513 337.705 186.38C337.412 187.247 336.958 188.06 336.345 188.82C335.732 189.58 334.952 190.193 334.005 190.66C333.058 191.127 331.932 191.36 330.625 191.36ZM330.625 189.56C331.478 189.56 332.245 189.4 332.925 189.08C333.618 188.76 334.205 188.327 334.685 187.78C335.165 187.22 335.532 186.593 335.785 185.9C336.038 185.193 336.165 184.453 336.165 183.68C336.165 182.867 336.038 182.107 335.785 181.4C335.532 180.693 335.165 180.073 334.685 179.54C334.205 178.993 333.618 178.567 332.925 178.26C332.245 177.953 331.478 177.8 330.625 177.8C329.772 177.8 328.998 177.953 328.305 178.26C327.625 178.567 327.045 178.993 326.565 179.54C326.085 180.073 325.718 180.693 325.465 181.4C325.212 182.107 325.085 182.867 325.085 183.68C325.085 184.453 325.212 185.193 325.465 185.9C325.718 186.593 326.085 187.22 326.565 187.78C327.045 188.327 327.625 188.76 328.305 189.08C328.998 189.4 329.772 189.56 330.625 189.56ZM352.48 191.36C351.174 191.36 350.047 191.127 349.1 190.66C348.154 190.193 347.374 189.58 346.76 188.82C346.147 188.06 345.687 187.247 345.38 186.38C345.087 185.513 344.94 184.68 344.94 183.88V183.44C344.94 182.573 345.094 181.7 345.4 180.82C345.707 179.94 346.174 179.14 346.8 178.42C347.427 177.687 348.207 177.1 349.14 176.66C350.087 176.22 351.2 176 352.48 176C353.76 176 354.867 176.22 355.8 176.66C356.747 177.1 357.534 177.687 358.16 178.42C358.787 179.14 359.254 179.94 359.56 180.82C359.867 181.7 360.02 182.573 360.02 183.44V183.88C360.02 184.68 359.867 185.513 359.56 186.38C359.267 187.247 358.814 188.06 358.2 188.82C357.587 189.58 356.807 190.193 355.86 190.66C354.914 191.127 353.787 191.36 352.48 191.36ZM352.48 189.56C353.334 189.56 354.1 189.4 354.78 189.08C355.474 188.76 356.06 188.327 356.54 187.78C357.02 187.22 357.387 186.593 357.64 185.9C357.894 185.193 358.02 184.453 358.02 183.68C358.02 182.867 357.894 182.107 357.64 181.4C357.387 180.693 357.02 180.073 356.54 179.54C356.06 178.993 355.474 178.567 354.78 178.26C354.1 177.953 353.334 177.8 352.48 177.8C351.627 177.8 350.854 177.953 350.16 178.26C349.48 178.567 348.9 178.993 348.42 179.54C347.94 180.073 347.574 180.693 347.32 181.4C347.067 182.107 346.94 182.867 346.94 183.68C346.94 184.453 347.067 185.193 347.32 185.9C347.574 186.593 347.94 187.22 348.42 187.78C348.9 188.327 349.48 188.76 350.16 189.08C350.854 189.4 351.627 189.56 352.48 189.56ZM362.965 191V180.32H364.485V184.9H364.245C364.245 183.847 364.385 182.96 364.665 182.24C364.958 181.507 365.398 180.953 365.985 180.58C366.572 180.193 367.312 180 368.205 180H368.285C369.632 180 370.625 180.42 371.265 181.26C371.918 182.1 372.245 183.313 372.245 184.9V191H370.325V184.5C370.325 183.673 370.092 183.013 369.625 182.52C369.158 182.013 368.518 181.76 367.705 181.76C366.865 181.76 366.185 182.02 365.665 182.54C365.145 183.06 364.885 183.753 364.885 184.62V191H362.965ZM380.589 191V176.4H382.549V191H380.589ZM382.149 184.5V182.74L388.409 182.72V184.48L382.149 184.5ZM382.149 178.16V176.4H388.749V178.16H382.149ZM397.609 191V187.8H397.289V184.1C397.289 183.367 397.095 182.813 396.709 182.44C396.335 182.067 395.782 181.88 395.049 181.88C394.635 181.88 394.209 181.887 393.769 181.9C393.329 181.913 392.909 181.927 392.509 181.94C392.109 181.953 391.762 181.973 391.469 182V180.32C391.762 180.293 392.069 180.273 392.389 180.26C392.722 180.233 393.062 180.22 393.409 180.22C393.755 180.207 394.089 180.2 394.409 180.2C395.502 180.2 396.395 180.333 397.089 180.6C397.782 180.853 398.295 181.273 398.629 181.86C398.962 182.447 399.129 183.24 399.129 184.24V191H397.609ZM394.109 191.28C393.309 191.28 392.615 191.147 392.029 190.88C391.455 190.6 391.009 190.2 390.689 189.68C390.382 189.16 390.229 188.533 390.229 187.8C390.229 187.04 390.395 186.407 390.729 185.9C391.075 185.393 391.575 185.013 392.229 184.76C392.882 184.493 393.669 184.36 394.589 184.36H397.489V185.8H394.509C393.735 185.8 393.142 185.987 392.729 186.36C392.315 186.733 392.109 187.213 392.109 187.8C392.109 188.387 392.315 188.86 392.729 189.22C393.142 189.58 393.735 189.76 394.509 189.76C394.962 189.76 395.395 189.68 395.809 189.52C396.222 189.347 396.562 189.067 396.829 188.68C397.109 188.28 397.262 187.733 397.289 187.04L397.809 187.8C397.742 188.56 397.555 189.2 397.249 189.72C396.955 190.227 396.542 190.613 396.009 190.88C395.489 191.147 394.855 191.28 394.109 191.28ZM402.653 191V180.32H404.173V184.9H403.933C403.933 183.847 404.073 182.96 404.353 182.24C404.646 181.507 405.086 180.953 405.673 180.58C406.259 180.193 406.999 180 407.893 180H407.973C409.319 180 410.313 180.42 410.953 181.26C411.606 182.1 411.933 183.313 411.933 184.9V191H410.013V184.5C410.013 183.673 409.779 183.013 409.313 182.52C408.846 182.013 408.206 181.76 407.393 181.76C406.553 181.76 405.873 182.02 405.353 182.54C404.833 183.06 404.573 183.753 404.573 184.62V191H402.653ZM420.316 191V176.4H422.276V191H420.316ZM426.285 191V180.32H427.805V184.9H427.565C427.565 183.847 427.705 182.96 427.985 182.24C428.279 181.507 428.719 180.953 429.305 180.58C429.892 180.193 430.632 180 431.525 180H431.605C432.952 180 433.945 180.42 434.585 181.26C435.239 182.1 435.565 183.313 435.565 184.9V191H433.645V184.5C433.645 183.673 433.412 183.013 432.945 182.52C432.479 182.013 431.839 181.76 431.025 181.76C430.185 181.76 429.505 182.02 428.985 182.54C428.465 183.06 428.205 183.753 428.205 184.62V191H426.285ZM442.778 191.32C441.512 191.32 440.538 190.907 439.858 190.08C439.178 189.253 438.838 188.06 438.838 186.5V180.3H440.758V186.88C440.758 187.72 440.985 188.38 441.438 188.86C441.892 189.327 442.505 189.56 443.278 189.56C444.078 189.56 444.732 189.307 445.238 188.8C445.745 188.28 445.998 187.573 445.998 186.68V180.3H447.918V191H446.398V186.42H446.638C446.638 187.473 446.498 188.367 446.218 189.1C445.938 189.82 445.518 190.373 444.958 190.76C444.412 191.133 443.712 191.32 442.858 191.32H442.778ZM458.028 185.92V184.2H461.288C461.981 184.2 462.554 184.067 463.008 183.8C463.461 183.52 463.801 183.147 464.028 182.68C464.268 182.213 464.388 181.693 464.388 181.12C464.388 180.533 464.268 180.007 464.028 179.54C463.801 179.073 463.461 178.707 463.008 178.44C462.554 178.173 461.981 178.04 461.288 178.04H458.028V176.32H460.928C462.128 176.32 463.128 176.513 463.928 176.9C464.741 177.273 465.354 177.807 465.768 178.5C466.181 179.193 466.388 180.013 466.388 180.96V181.28C466.388 182.213 466.181 183.033 465.768 183.74C465.354 184.433 464.741 184.973 463.928 185.36C463.128 185.733 462.128 185.92 460.928 185.92H458.028ZM456.468 191V176.32H458.428V191H456.468ZM475.323 191V187.8H475.003V184.1C475.003 183.367 474.81 182.813 474.423 182.44C474.05 182.067 473.497 181.88 472.763 181.88C472.35 181.88 471.923 181.887 471.483 181.9C471.043 181.913 470.623 181.927 470.223 181.94C469.823 181.953 469.477 181.973 469.183 182V180.32C469.477 180.293 469.783 180.273 470.103 180.26C470.437 180.233 470.777 180.22 471.123 180.22C471.47 180.207 471.803 180.2 472.123 180.2C473.217 180.2 474.11 180.333 474.803 180.6C475.497 180.853 476.01 181.273 476.343 181.86C476.677 182.447 476.843 183.24 476.843 184.24V191H475.323ZM471.823 191.28C471.023 191.28 470.33 191.147 469.743 190.88C469.17 190.6 468.723 190.2 468.403 189.68C468.097 189.16 467.943 188.533 467.943 187.8C467.943 187.04 468.11 186.407 468.443 185.9C468.79 185.393 469.29 185.013 469.943 184.76C470.597 184.493 471.383 184.36 472.303 184.36H475.203V185.8H472.223C471.45 185.8 470.857 185.987 470.443 186.36C470.03 186.733 469.823 187.213 469.823 187.8C469.823 188.387 470.03 188.86 470.443 189.22C470.857 189.58 471.45 189.76 472.223 189.76C472.677 189.76 473.11 189.68 473.523 189.52C473.937 189.347 474.277 189.067 474.543 188.68C474.823 188.28 474.977 187.733 475.003 187.04L475.523 187.8C475.457 188.56 475.27 189.2 474.963 189.72C474.67 190.227 474.257 190.613 473.723 190.88C473.203 191.147 472.57 191.28 471.823 191.28ZM484.827 191.36C484.067 191.36 483.367 191.22 482.727 190.94C482.087 190.66 481.527 190.267 481.047 189.76C480.581 189.253 480.214 188.667 479.947 188C479.694 187.333 479.567 186.613 479.567 185.84V185.48C479.567 184.72 479.694 184.007 479.947 183.34C480.201 182.673 480.554 182.087 481.007 181.58C481.474 181.073 482.021 180.68 482.647 180.4C483.287 180.107 483.994 179.96 484.767 179.96C485.581 179.96 486.321 180.133 486.987 180.48C487.654 180.813 488.201 181.34 488.627 182.06C489.054 182.78 489.294 183.713 489.347 184.86L488.547 183.58V176.4H490.467V191H488.947V186.26H489.507C489.454 187.473 489.201 188.46 488.747 189.22C488.294 189.967 487.721 190.513 487.027 190.86C486.347 191.193 485.614 191.36 484.827 191.36ZM485.087 189.68C485.741 189.68 486.334 189.533 486.867 189.24C487.401 188.947 487.827 188.527 488.147 187.98C488.467 187.42 488.627 186.767 488.627 186.02V185.1C488.627 184.367 488.461 183.747 488.127 183.24C487.807 182.72 487.374 182.327 486.827 182.06C486.294 181.78 485.707 181.64 485.067 181.64C484.361 181.64 483.734 181.807 483.187 182.14C482.654 182.473 482.234 182.94 481.927 183.54C481.634 184.14 481.487 184.847 481.487 185.66C481.487 186.473 481.641 187.187 481.947 187.8C482.254 188.4 482.681 188.867 483.227 189.2C483.774 189.52 484.394 189.68 485.087 189.68Z" fill="#757185"/>
<path d="M187 152C240.827 145.963 378.385 137.511 498 152" stroke="url(#paint0_angular_1_453)" stroke-width="6"/>
<defs>
<radialGradient id="paint0_angular_1_453" cx="0" cy="0" r="1" gradientUnits="userSpaceOnUse" gradientTransform="translate(342.5 148) rotate(90) scale(4 155.5)">
<stop offset="0.0993526" stop-color="#FFC876"/>
<stop offset="0.526122" stop-color="#ACFF8E"/>
<stop offset="0.739587" stop-color="#9453FF"/>
<stop offset="0.913343" stop-color="#FF89C2"/>
</radialGradient>
</defs>
</svg>
