<svg width="614" height="616" viewBox="0 0 614 616" fill="none" xmlns="http://www.w3.org/2000/svg">
<rect x="61.5" y="0.5" width="552" height="575" rx="39.5" stroke="white" stroke-opacity="0.17"/>
<path d="M55.6616 566.042L60.0643 569.779L64.8677 573.108L70.0672 576.021L75.6541 578.511L81.6237 580.562L87.961 582.175L94.6577 583.343L101.699 584.066L109.075 584.336L116.769 584.156L124.769 583.516L133.066 582.418L141.639 580.858L150.476 578.839L159.556 576.364L168.864 573.441L178.376 570.07L188.078 566.259L197.946 562.012L207.967 557.334L218.114 552.232L228.372 546.718L238.716 540.8L249.125 534.496L259.575 527.816L270.047 520.773L280.515 513.382L290.959 505.655L301.354 497.605L311.682 489.252L321.918 480.616L332.042 471.714L342.028 462.566L351.859 453.193L361.512 443.612L370.962 433.844L380.191 423.909L389.18 413.83L397.913 403.63L406.367 393.328L414.529 382.949L422.379 372.515L429.901 362.049L437.078 351.572L443.892 341.107L450.33 330.677L456.388 320.303L462.051 310.005L467.305 299.808L472.145 289.731L476.558 279.796L480.538 270.025L484.073 260.435L487.16 251.046L489.799 241.878L491.984 232.945L493.716 224.266L494.991 215.858L495.808 207.737L496.167 199.917L496.066 192.419L495.51 185.25L494.505 178.421L493.055 171.949L491.169 165.835L488.848 160.099L486.102 154.746L482.933 149.785L479.35 145.229L475.367 141.079L473.473 139.143L471.536 137.251L469.553 135.408L467.524 133.611L463.166 129.889L461.1 128.145L458.995 126.45L456.85 124.805L454.663 123.212L449.961 119.934L447.748 118.4L445.5 116.921L443.216 115.495L440.899 114.125L435.885 111.294L433.551 109.987L431.186 108.738L428.791 107.546L426.368 106.411L421.079 104.031L418.649 102.966L416.194 101.959L413.716 101.011L411.215 100.124L405.686 98.1956L403.191 97.3807L400.677 96.6254L398.145 95.9313L392.382 94.439L389.864 93.816L387.333 93.2564L384.788 92.7609L378.821 91.6977L376.302 91.2719L373.771 90.9076L371.233 90.6093L365.097 89.9584L362.592 89.7298L360.083 89.5626L351.297 89.2082L348.827 89.1733L346.36 89.203L339.93 89.3289L337.514 89.4218L335.101 89.5791L328.54 90.0711L326.186 90.2881L323.838 90.5696L317.169 91.4143L314.888 91.7506L308.074 92.9432L305.864 93.3342L303.665 93.788L296.784 95.3051L294.664 95.8087L287.672 97.6524L285.633 98.2007L283.614 98.8118L276.598 100.948L274.666 101.598L267.577 104.033L265.737 104.72L258.59 107.438L256.85 108.157L249.658 111.148L242.367 114.435L240.807 115.147L233.502 118.685L232.048 119.414L224.748 123.192L217.382 127.239L216.12 127.941L208.787 132.203L201.418 136.716L200.355 137.376L193.043 142.076L185.724 147.008L184.864 147.609L177.627 152.702L170.407 158.004L163.212 163.51L156.056 169.208L155.573 169.605L148.553 175.416L141.596 181.396L134.712 187.534L127.916 193.817L121.216 200.238L114.627 206.785L108.161 213.443L101.827 220.208L95.6366 227.064L89.6008 233.997L83.729 240.999L83.3563 241.451L77.5921 248.593L72.0134 255.775L66.6317 262.992L61.4573 270.227L60.8825 271.054L55.867 278.378L51.0817 285.698L46.5332 292.999L45.8443 294.112L41.4896 301.465L37.39 308.771L36.6613 310.083L32.7804 317.416L32.0664 318.839L28.4191 326.18L25.0583 333.433L24.3245 335.041L21.2222 342.275L20.5182 343.986L17.6857 351.181L17.0116 352.992L14.4625 360.135L13.8214 362.039L11.5671 369.116L10.9658 371.109L9.01627 378.101L8.45801 380.179L6.31136 389.23L5.86421 391.403L4.54736 398.236L4.1498 400.485L3.81688 402.742L2.83301 409.497L2.55473 411.823L1.93197 418.415L1.71163 420.805L1.55761 423.199L1.29425 429.667L1.20144 432.115L1.17334 434.565L1.2114 437.015L1.32408 443.385L1.42679 445.88L1.59401 448.372L2.09429 454.571L2.32954 457.102L2.62763 459.623L2.99036 462.139L3.89807 468.181L4.33031 470.724L4.82397 473.255L5.38379 475.772L6.70888 481.626L7.33836 484.164L8.03073 486.685L8.78269 489.186L10.5418 494.817L11.365 497.33L12.2496 499.821L13.1953 502.288L15.3917 507.668L16.4054 510.136L17.4803 512.579L18.6133 514.994L19.8043 517.381L22.4578 522.495L23.715 524.869L25.0285 527.213L26.3966 529.525L27.8212 531.801L30.9301 536.619L32.4159 538.874L33.9564 541.093L35.5465 543.273L37.1913 545.415L40.7459 549.9L42.4453 552.011L44.1944 554.078L45.9933 556.102L47.8368 558.081L51.8271 562.207L53.7219 564.148L55.6616 566.042L57.6443 567.885L59.67 569.682L64.0759 573.423L66.1448 575.17L68.2534 576.868L70.3984 578.513L72.5832 580.104L79.6029 584.974L81.8539 586.457L84.1413 587.883L86.4586 589.252L91.6299 592.158L93.9686 593.466L96.339 594.717L98.7357 595.911L101.159 597.042L106.668 599.507L109.105 600.575L111.561 601.581L114.044 602.527L116.543 603.41L122.354 605.427L124.855 606.242L127.375 606.992L129.907 607.68L136.003 609.257L138.525 609.874L141.061 610.429L143.607 610.918L149.953 612.059L152.479 612.478L155.011 612.831L157.55 613.121L164.111 613.832L166.617 614.052L169.127 614.206L175.908 614.501L178.376 614.587L180.844 614.61L190.241 614.449L192.653 614.34L202.155 613.653L204.502 613.416L211.794 612.508L214.073 612.213L216.342 611.856L223.749 610.567L225.942 610.153L228.122 609.676L235.617 608.024L237.713 607.499L245.335 605.485L247.344 604.914L255.075 602.55L256.988 601.939L264.808 599.234L266.621 598.586L274.506 595.555L276.217 594.874L284.149 591.527L285.749 590.821L293.71 587.17L295.199 586.443L303.166 582.501L311.208 578.239L312.492 577.542L320.507 573.018L328.562 568.197L329.63 567.546L337.62 562.494L345.617 557.163L346.464 556.579L354.361 551.05L362.233 545.266L370.061 539.243L377.831 532.99L378.268 532.629L385.874 526.239L393.389 519.648L400.801 512.875L408.093 505.932L415.247 498.831L422.248 491.587L429.084 484.218L435.739 476.735L442.201 469.157L442.532 468.756L448.863 461.007L454.972 453.192L460.845 445.331L466.474 437.44L467.033 436.629L472.463 428.628L477.618 420.631L482.491 412.651L483.173 411.528L487.803 403.493L492.856 394.172L496.916 386.17L497.627 384.714L501.405 376.713L502.096 375.144L505.576 367.162L508.71 359.304L509.407 357.543L512.216 349.742L512.88 347.882L515.355 340.16L515.979 338.2L516.541 336.221L518.689 328.527L519.208 326.458L520.997 318.885L521.467 316.732L522.89 309.299L523.307 307.067L523.66 304.822L524.715 297.493L525.013 295.177L525.245 292.852L525.914 285.653L526.087 283.268L526.193 280.873L526.466 273.835L526.507 271.388L526.484 268.94L526.347 262.088L526.257 259.593L526.1 257.1L525.547 250.461L525.321 247.934L525.033 245.41L524.679 242.889L523.697 236.457L523.271 233.911L522.784 231.377L522.229 228.854L520.814 222.656L520.19 220.117L519.503 217.594L518.752 215.085L516.9 209.158L516.079 206.647L515.198 204.153L514.253 201.681L511.964 196.056L510.952 193.59L509.879 191.145L508.748 188.728L507.557 186.335L504.824 181.031L503.57 178.658L502.256 176.31L500.885 173.998L499.46 171.716L496.295 166.768L494.809 164.514L493.27 162.296L491.675 160.114L490.031 157.969L486.444 153.409L484.745 151.302L482.998 149.237L481.199 147.209L479.35 145.229" fill="#0E0C15"/>
<path d="M454.66 123.215L458.985 126.907L462.919 131.01L466.452 135.517L469.572 140.423L472.276 145.724L474.552 151.405L476.4 157.458L477.811 163.871L478.782 170.639L479.307 177.743L479.378 185.179L478.994 192.931L478.153 200.984L476.856 209.324L475.108 217.935L472.908 226.797L470.26 235.895L467.166 245.211L463.628 254.729L459.647 264.43L455.237 274.29L450.403 284.295L445.159 294.422L439.509 304.647L433.468 314.951L427.05 325.312L420.259 335.707L413.108 346.114L405.616 356.515L397.798 366.884L389.674 377.198L381.259 387.438L372.568 397.58L363.624 407.601L354.443 417.478L345.039 427.192L335.441 436.722L325.666 446.045L315.735 455.145L305.67 464.004L295.497 472.6L285.232 480.914L274.9 488.927L264.523 496.625L254.121 503.989L243.718 511.005L233.336 517.664L222.999 523.95L212.726 529.85L202.539 535.352L192.464 540.446L182.517 545.118L172.718 549.365L163.089 553.177L153.648 556.552L144.414 559.486L135.403 561.97L126.637 564.004L118.132 565.583L109.903 566.703L101.969 567.365L94.3395 567.574L87.03 567.334L80.05 566.645L73.4162 565.51L67.1351 563.937L61.2252 561.926L55.6929 559.481L50.5482 556.612L45.796 553.331L41.443 549.644L37.4909 545.562L33.9529 541.097" fill="#0E0C15"/>
<path d="M426.365 106.416L431.306 109.203L435.885 112.402L440.091 116.005L443.919 120.008L447.349 124.409L450.374 129.203L452.991 134.38L455.19 139.933L456.966 145.849L458.318 152.12L459.237 158.734L459.716 165.683L459.754 172.953L459.343 180.535L458.488 188.413L457.186 196.573L455.442 204.995L453.256 213.665L450.632 222.566L447.571 231.683L444.075 240.997L440.151 250.489L435.801 260.143L431.041 269.935L425.877 279.845L420.322 289.857L414.382 299.944L408.072 310.088L401.4 320.264L394.378 330.456L387.022 340.641L379.35 350.795L371.376 360.899L363.121 370.93L354.597 380.865L345.825 390.684L336.821 400.363L327.605 409.884L318.195 419.225L308.614 428.368L298.883 437.291L289.023 445.979L279.054 454.41L269.002 462.567L258.881 470.432L248.718 477.988L238.533 485.218L228.346 492.112L218.181 498.653L208.06 504.831L198.004 510.634L188.033 516.05L178.169 521.064L168.435 525.667L158.844 529.854L149.423 533.618L140.184 536.954L131.146 539.855L122.333 542.322L113.756 544.346L105.434 545.923L97.3877 547.053L89.6276 547.733L82.1656 547.97L75.0149 547.766L68.1924 547.125L61.7044 546.047L55.5673 544.538L49.7899 542.6L44.3853 540.236L39.3581 537.459L34.7153 534.274L30.4633 530.691L26.6106 526.722L23.1571 522.374L20.1109 517.658L17.4773 512.583" fill="#0E0C15"/>
<path d="M389.866 93.8162L395.597 95.3004L401.007 97.1887L406.087 99.4761L410.831 102.163L415.224 105.244L419.259 108.715L422.921 112.573L426.201 116.817L429.091 121.44L431.582 126.432L433.673 131.785L435.354 137.492L436.621 143.539L437.472 149.92L437.903 156.621L437.903 163.634L437.472 170.949L436.609 178.547L435.319 186.416L433.601 194.541L431.46 202.904L428.892 211.491L425.906 220.284L422.502 229.27L418.682 238.427L414.457 247.737L409.836 257.185L404.823 266.746L399.437 276.402L393.681 286.134L387.567 295.921L381.107 305.74L374.313 315.576L367.195 325.403L359.773 335.204L352.063 344.955L344.082 354.635L340.094 359.276L340.091 359.283L340.087 359.286L335.844 364.225L327.368 373.705L318.67 383.052L309.767 392.246L300.68 401.267L291.428 410.099L282.034 418.72L272.514 427.115L262.892 435.266L253.187 443.152L243.421 450.758L233.615 458.066L223.786 465.062L213.957 471.734L204.15 478.07L194.385 484.058L184.684 489.681L175.065 494.933L165.548 499.8L156.156 504.272L146.907 508.34L137.817 512.004L128.905 515.254L120.188 518.088L111.686 520.501L103.414 522.489L95.3869 524.046L87.6234 525.171L80.1383 525.865L72.9412 526.128L66.0457 525.967L59.4632 525.381L53.2072 524.376L47.2873 522.955L41.7168 521.118L36.5043 518.87L31.6577 516.22L27.1805 513.177L23.0842 509.75L19.3673 505.947L16.0414 501.779L13.1062 497.254L10.5719 492.381L8.44019 487.165L6.71087 481.626" fill="#0E0C15"/>
<path d="M357.577 89.4569L363.583 90.093L369.305 91.1149L374.737 92.5245L379.86 94.3183L384.668 96.4966L389.154 99.0507L393.305 101.982L397.111 105.285L400.565 108.957L403.654 112.994L406.369 117.392L408.704 122.142L410.657 127.236L412.222 132.664L413.393 138.416L414.167 144.483L414.538 150.857L414.503 157.527L414.057 164.483L413.203 171.708L411.939 179.19L410.273 186.915L408.199 194.865L405.728 203.028L402.854 211.388L399.587 219.928L395.925 228.632L391.879 237.483L387.456 246.46L382.667 255.549L377.521 264.727L372.025 273.976L366.193 283.276L360.031 292.612L353.552 301.957L346.77 311.299L339.698 320.615L332.357 329.884L324.756 339.088L316.913 348.206L308.846 357.221L300.571 366.109L292.102 374.853L283.457 383.434L274.658 391.836L265.724 400.041L256.673 408.032L247.527 415.79L238.301 423.3L229.017 430.544L219.695 437.507L210.351 444.177L201.011 450.539L191.69 456.583L182.409 462.296L173.189 467.668L164.047 472.685L155.001 477.338L146.075 481.616L137.283 485.515L128.645 489.029L120.173 492.151L111.887 494.877L103.804 497.206L95.9382 499.129L88.3073 500.645L80.9264 501.751L73.8073 502.444L66.9631 502.732L60.4055 502.614L54.1444 502.094L48.1947 501.173L42.5631 499.858L37.2626 498.145L32.3034 496.042L27.6937 493.555L23.4368 490.693L19.536 487.465L16.0013 483.877L12.8359 479.943L10.045 475.665L7.63333 471.054L5.6042 466.119L3.96106 460.872L2.7023 455.323L1.82437 449.489L1.33081 443.38" fill="#0E0C15"/>
<path d="M305.864 93.3307L312.616 92.1513L319.165 91.3232L325.497 90.8478L331.601 90.7303L337.466 90.9705L343.078 91.57L348.422 92.5306L353.489 93.8574L358.267 95.5453L362.748 97.5909L366.923 99.991L370.786 102.744L374.322 105.846L377.527 109.293L380.39 113.08L382.901 117.207L385.057 121.663L386.851 126.442L388.282 131.53L389.344 136.925L390.033 142.613L390.346 148.588L390.278 154.837L389.826 161.355L388.991 168.123L387.775 175.133L386.179 182.368L384.208 189.815L381.862 197.457L379.141 205.284L376.052 213.279L372.595 221.427L368.782 229.712L364.616 238.115L360.109 246.62L355.269 255.207L350.104 263.863L344.624 272.568L338.84 281.303L332.757 290.049L326.395 298.79L319.765 307.507L312.879 316.182L305.757 324.795L298.409 333.328L290.851 341.768L283.101 350.088L275.168 358.275L267.075 366.309L258.838 374.178L250.473 381.864L242.002 389.351L233.441 396.62L224.808 403.66L216.12 410.453L207.396 416.984L198.653 423.242L189.913 429.213L181.19 434.888L172.506 440.256L163.876 445.305L155.321 450.027L146.857 454.407L138.502 458.438L130.271 462.117L122.185 465.433L114.253 468.386L106.494 470.97L98.9261 473.182L91.5601 475.015L84.4129 476.468L77.4975 477.536L70.8289 478.222L64.4154 478.527L58.2686 478.452L52.4017 477.998L46.8214 477.172L41.5408 475.973L36.5701 474.404L31.9206 472.468L27.5925 470.17L23.5989 467.522L19.94 464.529L16.6206 461.199L13.6474 457.54L11.0254 453.56L8.75941 449.263L6.85291 444.664L5.30749 439.769L4.1249 434.591L3.29666 429.142L2.83121 423.432L2.72359 417.478L2.97371 411.284L3.58156 404.866L4.54724 398.232" fill="#0E0C15"/>
<path d="M240.811 115.14L248.024 111.889L255.137 108.931L262.133 106.267L269.002 103.91L275.727 101.863L282.298 100.132L288.701 98.7241L294.924 97.6391L300.96 96.8805L306.791 96.4498L312.409 96.3472L317.806 96.5757L322.964 97.1389L327.877 98.0366L332.531 99.269L336.914 100.836L341.025 102.734L344.853 104.959L348.387 107.51L351.622 110.38L354.547 113.57L357.158 117.075L359.442 120.89L361.398 125.009L363.02 129.423L364.307 134.126L365.254 139.108L365.857 144.359L366.112 149.875L366.018 155.641L365.569 161.655L364.769 167.898L363.616 174.361L362.117 181.031L360.269 187.895L358.079 194.941L355.545 202.153L352.674 209.519L349.464 217.026L345.926 224.655L342.068 232.396L337.896 240.229L333.417 248.136L328.642 256.108L323.58 264.122L318.236 272.162L312.623 280.217L306.751 288.262L300.634 296.287L294.287 304.274L287.718 312.205L280.946 320.063L273.983 327.831L266.84 335.494L259.534 343.032L252.079 350.434L244.493 357.682L236.892 364.674L236.792 364.763L228.992 371.662L221.111 378.364L213.162 384.855L205.162 391.12L197.132 397.146L189.083 402.922L181.037 408.434L173.005 413.676L165.01 418.637L157.064 423.307L149.185 427.674L141.388 431.731L133.693 435.468L126.113 438.88L118.662 441.961L111.353 444.709L104.204 447.117L97.2273 449.184L90.4362 450.903L83.847 452.272L77.47 453.289L71.3182 453.951L65.3999 454.264L59.7285 454.228L54.3122 453.844L49.1592 453.113L44.2828 452.04L39.6913 450.625L35.3914 448.873L31.3928 446.786L27.6974 444.372L24.3118 441.643L21.2392 438.6L18.488 435.252L16.0581 431.607L13.9578 427.671L12.1888 423.451L10.7527 418.957L9.64954 414.2L8.87933 409.193L8.43865 403.942L8.33103 398.461L8.55628 392.76L9.1112 386.848L9.99737 380.734L11.2099 374.437L12.742 367.962L14.5921 361.328L16.7521 354.544L19.2217 347.625L21.9913 340.582L25.0621 333.426" fill="#0E0C15"/>
<path d="M342.459 159.929L342.025 165.385L341.273 171.05L340.201 176.912L338.816 182.961L337.118 189.184L335.109 195.57L332.79 202.106L330.165 208.779L327.238 215.579L324.015 222.489L320.502 229.497L316.707 236.588L312.635 243.751L308.297 250.964L303.701 258.217L298.853 265.494L293.761 272.782L288.436 280.065L282.89 287.327L277.137 294.553L271.188 301.729L265.054 308.84L258.747 315.869L252.279 322.805L245.666 329.629L238.918 336.327L232.053 342.891L225.084 349.303L218.025 355.551L210.891 361.622L203.699 367.502L196.46 373.18L189.194 378.644L181.911 383.88L174.628 388.884L167.359 393.641L160.121 398.147L152.929 402.39L145.795 406.361L138.739 410.051L131.77 413.455L124.903 416.566L118.153 419.376L111.533 421.889L105.053 424.096L98.729 425.99L92.5721 427.576L86.596 428.841L80.8102 429.79L75.2282 430.42L69.8583 430.731L64.7085 430.726L59.7875 430.406L55.1082 429.775L50.6756 428.831L46.5016 427.576L42.5909 426.014L38.9518 424.15L35.5861 421.99L32.5019 419.542L29.701 416.807L27.1916 413.798L24.9736 410.513L23.0539 406.967L21.4357 403.159L20.1188 399.102L19.1034 394.804L18.3912 390.275L17.9804 385.528L17.8711 380.569L18.0632 375.405L18.5569 370.051L19.3503 364.511L20.4418 358.801L21.8282 352.929L23.5011 346.91L25.4574 340.753L27.695 334.47L30.2094 328.074L32.9939 321.572L36.0465 314.982L39.3593 308.31L42.9255 301.57L46.7368 294.777L50.785 287.939L55.0651 281.072L59.5654 274.187L64.2828 267.296L69.2073 260.407L74.3304 253.538L79.6408 246.697L85.1317 239.898L90.7882 233.151L96.6055 226.47L102.568 219.864L108.672 213.346L114.903 206.929L121.252 200.62L127.707 194.433L134.258 188.379L140.89 182.466L147.594 176.704L154.358 171.105L161.171 165.68L168.022 160.44L174.896 155.391L181.783 150.541L188.674 145.903L195.551 141.481L202.405 137.283L209.223 133.321L215.992 129.599L222.704 126.131L229.343 122.918L235.899 119.966L242.359 117.279L248.711 114.866L254.947 112.731L261.051 110.877L267.012 109.312L272.818 108.042L278.461 107.066L283.927 106.387L289.209 106.008L294.296 105.926L299.179 106.145L303.843 106.669L308.281 107.495L312.485 108.628L316.442 110.064L320.149 111.8L323.597 113.834L326.779 116.161L329.688 118.778L332.317 121.685L334.654 124.877L336.699 128.35L338.443 132.099L339.888 136.114L341.024 140.387L341.854 144.914L342.372 149.686L342.573 154.694L342.459 159.929Z" fill="#0E0C15"/>
<path d="M320.389 167.524L319.979 172.387L319.285 177.437L318.311 182.661L317.057 188.05L315.525 193.59L313.717 199.277L311.637 205.094L309.283 211.032L306.665 217.079L303.783 223.228L300.644 229.461L297.255 235.765L293.622 242.13L289.756 248.544L285.658 254.991L281.339 261.457L276.805 267.932L272.066 274.403L267.132 280.855L262.014 287.275L257.245 293.021L256.723 293.652L251.269 299.968L245.662 306.214L239.914 312.376L234.036 318.44L228.041 324.395L221.941 330.227L215.749 335.925L209.478 341.48L203.139 346.878L196.749 352.109L190.319 357.161L183.862 362.021L177.391 366.684L170.918 371.139L164.459 375.378L158.026 379.393L151.632 383.176L145.292 386.721L139.016 390.015L132.819 393.058L126.711 395.841L120.705 398.359L114.813 400.61L109.045 402.591L103.414 404.3L97.9309 405.728L92.6057 406.879L87.451 407.744L82.4753 408.327L77.685 408.628L73.0902 408.648L68.7008 408.386L64.5217 407.848L60.563 407.033L56.8312 405.941L53.3345 404.575L50.0781 402.938L47.0685 401.039L44.3057 398.879L41.7945 396.467L39.5403 393.805L37.5476 390.902L35.82 387.759L34.3624 384.384L33.1731 380.786L32.2522 376.973L31.6012 372.953L31.2202 368.733L31.1076 364.323L31.2649 359.73L31.6923 354.966L32.388 350.034L33.3487 344.949L34.5744 339.718L36.0568 334.353L37.7944 328.862L39.7821 323.26L42.0182 317.552L44.4978 311.753L47.2175 305.866L50.1726 299.91L53.3511 293.892L56.7533 287.823L60.3659 281.713L64.1855 275.578L68.2072 269.423L72.421 263.261L76.822 257.104L81.4002 250.962L86.1491 244.845L91.0554 238.763L96.1156 232.729L101.317 226.753L106.65 220.843L112.11 215.012L117.683 209.273L123.363 203.63L129.137 198.097L134.996 192.683L140.929 187.392L146.925 182.241L152.974 177.235L159.068 172.384L165.193 167.699L171.338 163.187L177.498 158.856L183.655 154.71L189.802 150.763L195.926 147.015L202.019 143.478L208.065 140.159L214.058 137.065L219.986 134.201L225.837 131.574L231.601 129.182L237.269 127.035L242.829 125.139L248.271 123.494L253.584 122.109L258.755 120.986L263.781 120.128L268.647 119.535L273.346 119.209L277.87 119.151L282.208 119.361L286.354 119.843L290.295 120.597L294.023 121.622L297.533 122.919L300.818 124.481L303.869 126.31L306.683 128.398L309.252 130.749L311.571 133.353L313.631 136.212L315.428 139.321L316.959 142.673L318.22 146.263L319.207 150.082L319.921 154.125L320.358 158.386L320.515 162.853L320.389 167.524Z" fill="#0E0C15"/>
<path d="M300.444 178.211L300.068 182.466L299.445 186.882L298.576 191.448L297.464 196.157L296.113 200.997L294.521 205.962L292.691 211.042L290.625 216.224L288.329 221.502L285.802 226.865L283.056 232.301L280.091 237.8L276.917 243.349L273.536 248.94L269.959 254.558L266.187 260.195L262.23 265.835L258.096 271.473L253.792 277.095L249.328 282.688L244.715 288.242L239.961 293.745L235.075 299.188L230.066 304.554L224.946 309.836L219.722 315.024L214.407 320.104L209.012 325.072L203.551 329.913L198.03 334.619L192.463 339.179L186.861 343.585L181.233 347.826L175.595 351.894L169.956 355.783L164.328 359.483L158.719 362.991L153.146 366.299L147.618 369.398L142.144 372.282L136.738 374.945L131.411 377.384L126.17 379.593L121.025 381.571L115.99 383.313L111.072 384.819L106.28 386.083L101.627 387.102L97.1203 387.875L92.769 388.404L88.5767 388.683L84.555 388.72L80.7106 388.513L77.05 388.062L73.5798 387.368L70.3069 386.434L67.2375 385.26L64.3786 383.848L61.7317 382.209L59.3002 380.34L57.0905 378.25L55.1046 375.943L53.3471 373.42L51.82 370.69L50.5263 367.757L49.4712 364.624L48.6496 361.305L48.0633 357.8L47.7122 354.123L47.5995 350.277L47.7204 346.27L48.0799 342.111L48.6745 337.803L49.5027 333.36L50.5611 328.787L51.8465 324.096L53.3571 319.296L55.0863 314.393L57.0342 309.397L59.1975 304.319L61.5728 299.168L64.15 293.95L66.9311 288.678L69.9043 283.359L73.0664 278.007L76.409 272.628L79.9287 267.233L83.6191 261.83L87.4752 256.43L91.487 251.043L95.6495 245.678L99.951 240.343L104.385 235.051L108.947 229.807L113.624 224.626L118.413 219.509L123.301 214.475L128.283 209.526L133.349 204.673L138.488 199.921L143.693 195.283L148.952 190.766L154.26 186.378L159.602 182.126L164.976 178.022L170.367 174.068L175.765 170.273L181.163 166.644L186.553 163.186L191.922 159.908L197.26 156.815L202.559 153.911L207.808 151.21L212.999 148.709L218.122 146.415L223.167 144.331L228.127 142.463L232.991 140.811L237.75 139.385L242.393 138.184L246.915 137.214L251.303 136.476L255.553 135.973L259.656 135.703L263.601 135.667L267.385 135.868L270.999 136.306L274.431 136.982L277.676 137.894L280.73 139.044L283.586 140.429L286.236 142.042L288.679 143.885L290.905 145.956L292.913 148.248L294.695 150.763L296.247 153.494L297.564 156.437L298.645 159.586L299.49 162.935L300.093 166.48L300.454 170.21L300.573 174.123L300.444 178.211Z" fill="#0E0C15"/>
<path d="M283.271 191.625L282.934 195.271L282.388 199.054L281.634 202.965L280.673 206.993L279.507 211.137L278.136 215.384L276.564 219.726L274.79 224.156L272.82 228.667L270.654 233.248L268.3 237.891L265.764 242.587L263.048 247.324L260.157 252.096L257.098 256.891L253.876 261.7L251.125 265.621L250.496 266.515L246.966 271.324L243.291 276.119L239.482 280.891L235.545 285.626L231.49 290.321L227.321 294.96L223.048 299.538L218.68 304.045L214.224 308.468L209.693 312.804L205.091 317.041L200.432 321.171L195.724 325.186L190.974 329.078L186.197 332.838L181.397 336.459L177.59 339.209L177.56 339.232L176.586 339.934L171.775 343.255L166.971 346.419L162.186 349.418L157.427 352.246L152.708 354.898L148.034 357.366L143.416 359.648L138.862 361.737L134.383 363.635L129.986 365.333L125.679 366.834L121.474 368.131L117.374 369.222L113.391 370.105L109.53 370.779L105.801 371.241L102.21 371.496L98.7614 371.539L95.4619 371.377L92.3214 371.006L89.34 370.426L86.5257 369.643L83.8887 368.652L81.429 367.461L79.1482 366.072L77.0529 364.487L75.1464 362.713L73.4304 360.751L71.9082 358.606L70.5847 356.279L69.4617 353.781L68.5408 351.111L67.8203 348.277L67.3018 345.288L66.9855 342.145L66.8727 338.859L66.9623 335.434L67.2554 331.877L67.749 328.194L68.4447 324.391L69.3391 320.475L70.4274 316.458L71.7094 312.347L73.1819 308.145L74.8417 303.865L76.6869 299.512L78.7142 295.093L80.9172 290.617L83.2941 286.094L85.8384 281.532L88.5448 276.937L91.4087 272.321L94.4234 267.689L97.587 263.052L100.893 258.414L104.334 253.787L107.903 249.181L111.597 244.599L115.401 240.053L119.317 235.551L123.332 231.098L127.443 226.706L131.642 222.381L135.921 218.132L140.27 213.965L144.685 209.885L149.155 205.905L153.672 202.027L158.229 198.262L162.819 194.613L167.432 191.09L172.06 187.701L176.697 184.448L181.332 181.337L185.957 178.376L190.565 175.57L195.144 172.921L199.691 170.438L204.195 168.128L208.647 165.991L213.04 164.033L217.365 162.256L221.615 160.666L225.783 159.261L229.859 158.05L233.836 157.035L237.707 156.218L241.462 155.601L245.096 155.183L248.603 154.966L251.975 154.953L255.208 155.142L258.292 155.533L261.222 156.127L263.992 156.926L266.592 157.926L269.026 159.127L271.283 160.527L273.36 162.12L275.254 163.907L276.956 165.885L278.467 168.052L279.779 170.404L280.892 172.935L281.801 175.643L282.509 178.52L283.01 181.563L283.307 184.765L283.393 188.12L283.271 191.625Z" fill="#0E0C15"/>
<path d="M269.377 207.339L269.089 210.397L268.623 213.566L267.984 216.839L267.174 220.213L266.193 223.678L265.041 227.229L263.722 230.86L262.235 234.564L260.583 238.332L258.771 242.158L256.803 246.037L254.682 249.958L252.411 253.912L251.185 255.936L249.996 257.894L247.442 261.895L244.752 265.907L241.931 269.924L238.984 273.934L235.92 277.932L232.743 281.911L229.458 285.862L226.076 289.774L222.599 293.645L219.038 297.461L215.396 301.216L211.68 304.905L207.902 308.521L204.066 312.052L200.18 315.498L196.254 318.847L192.296 322.093L188.31 325.23L184.307 328.25L180.297 331.15L176.282 333.923L172.273 336.563L168.28 339.07L167.924 339.28L167.905 339.291L167.897 339.296L164.31 341.433L160.369 343.648L156.465 345.713L152.609 347.621L148.804 349.372L145.062 350.961L141.387 352.387L137.786 353.646L134.266 354.734L130.836 355.653L127.502 356.4L124.27 356.972L121.144 357.367L118.135 357.588L115.244 357.636L112.476 357.508L109.838 357.209L107.333 356.735L104.971 356.089L102.752 355.271L100.68 354.285L98.7584 353.132L96.9925 351.817L95.3826 350.34L93.9316 348.71L92.6447 346.922L91.5199 344.986L90.5642 342.901L89.7791 340.675L89.1596 338.309L88.7107 335.813L88.4324 333.189L88.3231 330.443L88.3844 327.579L88.6129 324.604L89.0155 321.522L89.5836 318.34L90.3207 315.062L91.2201 311.698L92.2835 308.253L93.506 304.734L94.8873 301.147L96.4228 297.498L98.1139 293.792L99.9541 290.041L101.939 286.248L104.064 282.42L106.328 278.565L108.725 274.691L111.247 270.804L113.898 266.911L116.665 263.02L119.551 259.138L122.544 255.27L125.638 251.424L128.83 247.609L132.114 243.828L135.484 240.091L138.932 236.404L142.455 232.775L146.046 229.207L149.699 225.71L153.402 222.288L157.156 218.949L160.947 215.697L164.773 212.537L168.626 209.479L172.499 206.528L176.383 203.687L180.274 200.962L184.163 198.358L188.045 195.88L191.911 193.532L195.754 191.315L199.567 189.242L203.344 187.314L207.077 185.531L210.759 183.9L214.385 182.421L217.946 181.096L221.436 179.931L224.852 178.927L228.181 178.089L231.419 177.418L234.563 176.915L237.603 176.579L240.536 176.411L243.355 176.415L246.057 176.585L248.633 176.928L251.077 177.442L253.388 178.126L255.559 178.979L257.587 179.999L259.465 181.185L261.196 182.535L262.771 184.044L264.186 185.714L265.438 187.539L266.528 189.52L267.449 191.65L268.199 193.928L268.781 196.344L269.19 198.9L269.427 201.588L269.49 204.401L269.377 207.339Z" fill="#0E0C15"/>
<path d="M170.066 336.111L167.484 337.477L167.162 337.646L164.017 339.205L162.241 340.023L162.238 340.023L162.145 340.066L162.14 340.068L162.114 340.081L162.058 340.108L162.029 340.119L160.915 340.634L157.859 341.931L154.859 343.096L151.919 344.128L149.043 345.019L146.241 345.774L143.514 346.387L140.871 346.858L138.317 347.185L135.852 347.371L133.483 347.414L131.216 347.316L129.052 347.078L126.999 346.697L125.059 346.175L123.235 345.514L121.532 344.716L119.954 343.78L118.498 342.712L117.17 341.512L115.972 340.186L114.907 338.73L113.976 337.153L113.183 335.455L112.527 333.64L112.008 331.713L111.627 329.676L111.387 327.534L111.285 325.291L111.319 322.954L111.496 320.524L111.813 318.005L112.267 315.404L112.858 312.726L113.584 309.973L114.442 307.157L115.432 304.279L116.553 301.342L117.801 298.355L119.175 295.324L120.673 292.25L122.291 289.144L124.025 286.009L125.872 282.853L127.827 279.68L129.891 276.496L132.054 273.306L134.318 270.117L136.677 266.937L139.123 263.769L141.657 260.618L144.27 257.493L146.956 254.395L149.716 251.334L152.542 248.313L155.425 245.34L158.367 242.418L161.357 239.554L164.393 236.753L167.467 234.017L170.575 231.356L173.71 228.771L176.866 226.268L180.037 223.855L183.221 221.533L186.41 219.305L189.596 217.178L192.775 215.152L195.94 213.236L199.089 211.429L202.213 209.739L205.304 208.165L208.36 206.716L211.373 205.389L214.341 204.187L217.255 203.115L220.11 202.171L222.903 201.363L225.626 200.687L228.273 200.15L230.84 199.749L233.326 199.486L235.722 199.363L238.024 199.377L240.229 199.531L242.331 199.824L244.325 200.258L246.208 200.829L247.977 201.538L249.629 202.388L251.159 203.369L252.565 204.483L253.847 205.729L254.999 207.105L256.016 208.609L256.898 210.238L257.642 211.988L258.25 213.858L258.717 215.843L259.047 217.938L259.234 220.14L259.279 222.447L259.183 224.852L258.941 227.353L258.558 229.945L258.031 232.622L257.367 235.38L256.56 238.211L255.618 241.111L254.538 244.076L253.324 247.099L251.982 250.16L251.974 250.175L251.957 250.211L251.951 250.228L251.873 250.388L250.495 253.297L249.86 254.547L249.826 254.615L248.89 256.459L247.58 258.876" fill="#0E0C15"/>
<path d="M252.377 248.682L252.326 248.826L252.301 248.894L252.241 249.056L252.221 249.112L252.22 249.117L252.175 249.241L252.17 249.253L251.923 249.93" fill="#0E0C15"/>
<path d="M252.547 248.101L252.374 248.64L252.266 248.966L252.261 248.981L252.243 249.042L252.18 249.234L252.175 249.249" fill="#0E0C15"/>
<path d="M252.599 247.756L252.255 248.962L252.246 248.99" fill="#0E0C15"/>
<path d="M252.576 247.614L252.229 249.05L252.576 247.614Z" fill="#0E0C15"/>
<path d="M161.096 340.31L160.924 340.35L158.814 340.728L156.772 340.991L154.802 341.142L152.909 341.18L151.093 341.104L149.363 340.917L147.718 340.617L146.162 340.204L144.7 339.679L143.333 339.045L142.064 338.303L140.895 337.455L139.825 336.501L138.859 335.446L138 334.288L137.248 333.032L136.603 331.682L136.068 330.236L135.644 328.699L135.33 327.076L135.126 325.368L135.035 323.581L135.053 321.717L135.184 319.778L135.426 317.767L135.779 315.692L136.241 313.553L136.811 311.357L137.488 309.106L138.27 306.807L139.156 304.463L140.145 302.076L141.236 299.653L142.426 297.198L143.713 294.715L145.092 292.209L146.562 289.686L148.119 287.149L149.763 284.603L151.488 282.054L153.295 279.505L155.175 276.962L157.129 274.428L159.152 271.909L161.237 269.409L163.382 266.933L165.587 264.486L167.843 262.071L170.15 259.694L172.501 257.36L174.892 255.071L177.317 252.832L179.775 250.649L182.26 248.522L184.764 246.458L187.289 244.461L189.826 242.536L192.372 240.682L194.92 238.907L197.467 237.211L200.008 235.597L202.541 234.072L205.057 232.632L207.553 231.289L210.024 230.04L212.466 228.887L214.874 227.834L217.244 226.885L219.571 226.035L221.852 225.291L224.083 224.654L226.257 224.124L228.37 223.703L230.419 223.393L232.4 223.194L234.313 223.107L236.149 223.13L237.906 223.261L239.582 223.506L241.171 223.862L242.671 224.329L244.081 224.907L245.396 225.593L246.614 226.386L247.733 227.287L248.75 228.291L249.665 229.397L250.473 230.607L251.174 231.914L251.765 233.32L252.245 234.817L252.615 236.409L252.875 238.087L253.02 239.849L253.054 241.694L252.974 243.616L252.78 245.615L252.472 247.686L252.166 249.241" fill="#0E0C15"/>
<path d="M252.102 249.48L252.062 249.583L251.482 251.021" fill="#0E0C15"/>
<path d="M516.534 336.227L514.013 344.095L511.123 352.123L507.865 360.294L504.245 368.591L500.275 377L495.96 385.499L491.309 394.073L486.333 402.706L481.036 411.375L475.431 420.068L469.528 428.764L463.336 437.443L456.873 446.09L450.151 454.686L443.185 463.213L435.988 471.653L428.575 479.986L420.961 488.196L413.159 496.263L405.191 504.172L397.071 511.908L388.814 519.452L380.444 526.792L371.975 533.909L363.425 540.79L354.814 547.42L346.156 553.782L337.471 559.866L328.777 565.659L320.094 571.155L311.439 576.337L302.83 581.197L294.286 585.726L285.824 589.915L277.461 593.753L269.214 597.233L261.099 600.352L253.133 603.106L245.328 605.491" fill="#0E0C15"/>
<path d="M526.186 280.877L525.505 288.18L524.418 295.733L522.928 303.518L521.034 311.523L518.739 319.732L516.044 328.128L512.953 336.698L509.47 345.422L505.599 354.286L501.352 363.267L496.735 372.352L491.76 381.515L486.433 390.744L480.763 400.015L474.763 409.311L468.444 418.611L461.816 427.897L454.895 437.149L447.698 446.351L440.24 455.476L432.532 464.508L424.595 473.429L416.444 482.216L408.091 490.854L399.559 499.32L390.865 507.604L382.028 515.682L373.07 523.54L364.005 531.161L354.853 538.53L345.639 545.627L336.376 552.438L327.084 558.951L317.787 565.154L308.501 571.035L299.247 576.582L290.044 581.783L280.912 586.631L271.87 591.112L262.937 595.214L254.129 598.938L245.464 602.272L236.96 605.217L228.634 607.766L220.501 609.916L212.58 611.662L204.886 613.002L197.431 613.932L190.234 614.453" fill="#0E0C15"/>
<path d="M523.267 233.911L524.254 240.378L524.821 247.162L524.961 254.25L524.672 261.632L523.953 269.295L522.805 277.221L521.233 285.395L519.234 293.804L516.814 302.429L513.973 311.252L510.715 320.262L507.039 329.436L502.958 338.758L498.479 348.206L493.61 357.764L488.362 367.41L482.745 377.125L476.766 386.888L470.438 396.677L463.773 406.473L456.783 416.255L449.484 426.003L441.894 435.696L434.026 445.313L425.9 454.834L417.53 464.237L408.934 473.5L400.128 482.607L391.133 491.536L381.968 500.267L372.652 508.787L363.208 517.073L353.655 525.111L344.012 532.879L334.302 540.366L324.541 547.55L314.755 554.417L304.963 560.96L295.187 567.161L285.442 573.01L275.756 578.499L266.144 583.609L256.631 588.335L247.233 592.661L237.971 596.587L228.86 600.105L219.921 603.211L211.172 605.901L202.628 608.167L194.31 610.009L186.23 611.423L178.409 612.404L170.857 612.955L163.587 613.08L156.614 612.778L149.949 612.059" fill="#0E0C15"/>
<path d="M514.246 201.688L516.116 207.672L517.559 214.008L518.574 220.685L519.153 227.689L519.288 235.014L518.979 242.645L518.223 250.569L517.024 258.768L515.383 267.227L513.3 275.928L510.778 284.858L507.82 293.994L504.427 303.326L500.604 312.831L496.359 322.492L491.7 332.287L486.638 342.195L481.18 352.198L475.338 362.27L469.123 372.397L462.546 382.553L455.617 392.718L448.35 402.87L440.766 412.989L432.877 423.051L424.701 433.036L416.256 442.921L407.562 452.685L398.629 462.307L389.483 471.765L380.137 481.041L370.617 490.111L360.943 498.963L351.138 507.573L341.217 515.926L331.206 523.999L321.127 531.779L310.999 539.245L300.843 546.385L290.681 553.185L280.538 559.631L270.432 565.715L260.388 571.42L250.421 576.735L240.559 581.648L230.82 586.15L221.221 590.233L211.785 593.895L202.527 597.127L193.467 599.926L184.623 602.29L176.013 604.211L167.654 605.687L159.564 606.714L151.757 607.295L144.244 607.434L137.04 607.131L130.157 606.393L123.607 605.22L117.402 603.616L111.554 601.587" fill="#0E0C15"/>
<path d="M499.462 171.716L502.208 177.056L504.533 182.773L506.428 188.862L507.888 195.311L508.908 202.108L509.483 209.243L509.605 216.706L509.272 224.483L508.484 232.563L507.24 240.923L505.545 249.55L503.4 258.43L500.805 267.542L497.764 276.871L494.279 286.395L490.353 296.101L485.995 305.968L481.213 315.975L476.02 326.1L470.423 336.322L464.434 346.618L458.064 356.97L451.321 367.354L444.22 377.748L436.774 388.131L429.002 398.481L420.923 408.773L412.548 418.99L403.9 429.105L394.995 439.097L385.849 448.945L376.484 458.625L366.918 468.121L357.174 477.409L347.272 486.472L337.237 495.291L327.087 503.844L316.846 512.115L306.535 520.084L296.174 527.734L285.79 535.051L275.4 542.019L265.029 548.63L254.7 554.864L244.432 560.716L234.249 566.166L224.173 571.206L214.223 575.826L204.421 580.02L194.784 583.78L185.334 587.101L176.085 589.98L167.061 592.411L158.277 594.394L149.752 595.919L141.503 596.986L133.544 597.597L125.888 597.753L118.549 597.463L111.541 596.723L104.872 595.54L98.5564 593.918L92.6117 591.86L87.0414 589.37L81.8552 586.457" fill="#0E0C15"/>
<path d="M166.556 337.937L166.494 337.916L165.421 337.422L164.422 336.844L163.501 336.182L162.66 335.44L161.898 334.615L161.217 333.712L160.621 332.735L160.111 331.678L159.685 330.55L159.344 329.351L159.091 328.084L158.923 326.75L158.842 325.354L158.849 323.896L158.943 322.381L159.125 320.81L159.394 319.187L159.746 317.516L160.185 315.798L160.707 314.037L161.312 312.24L161.997 310.405L162.764 308.538L163.612 306.643L164.537 304.722L165.537 302.781L166.611 300.82L167.757 298.845L168.971 296.859L170.251 294.867L171.598 292.871L173.007 290.878L174.475 288.887L176 286.904L177.581 284.933L179.211 282.975L180.888 281.039L182.611 279.124L184.377 277.236L186.179 275.378L188.018 273.552L189.888 271.762L191.786 270.013L193.709 268.305L195.653 266.642L197.613 265.03L199.587 263.47L201.573 261.964L203.566 260.518L205.56 259.133L207.553 257.81L209.542 256.553L211.523 255.364L213.493 254.245L215.446 253.197L217.38 252.226L219.29 251.33L221.173 250.514L223.027 249.777L224.849 249.121L226.633 248.546L228.375 248.052L230.076 247.646L231.728 247.327L233.331 247.092L234.88 246.944L236.372 246.883L237.807 246.909L239.18 247.02L240.488 247.219L241.731 247.507L242.902 247.88L244.002 248.34L245.027 248.885L245.978 249.512L246.85 250.222L247.644 251.016L248.356 251.887L248.987 252.839L249.532 253.868L249.842 254.608" fill="#0E0C15"/>
<path d="M181.949 328.749L181.975 328.275L182.109 327.061L182.311 325.806L182.578 324.512L182.913 323.184L183.31 321.822L183.774 320.431L184.299 319.011L184.887 317.568L185.536 316.101L186.249 314.614L187.019 313.111L187.844 311.594L188.727 310.065L189.662 308.53L190.65 306.989L191.688 305.444L192.775 303.9L193.909 302.361L195.087 300.826L196.306 299.302L197.565 297.788L198.862 296.289L200.194 294.808L201.559 293.347L202.952 291.911L204.374 290.498L205.82 289.115L207.286 287.762L208.775 286.442L210.278 285.158L211.795 283.913L213.324 282.708L214.859 281.547L216.4 280.431L217.945 279.363L219.487 278.34L221.026 277.372L222.56 276.457L224.082 275.594L225.594 274.788L227.09 274.041L228.569 273.353L230.027 272.727L231.461 272.161L232.871 271.659L234.25 271.22L235.599 270.845L236.914 270.537L238.191 270.294L239.43 270.118L240.628 270.011L240.647 270.011" fill="#0E0C15"/>
<path d="M167.493 337.473L165.591 338.413L162.57 339.805" fill="#0E0C15"/>
<path d="M197.63 316.844L194.529 319.388L191.013 322.156L187.483 324.821L184.142 327.235L183.943 327.377" fill="#0E0C15"/>
<path d="M184.133 327.238L181.946 328.748L181.328 329.174L177.885 331.445L174.451 333.6" fill="#0E0C15"/>
<path d="M175.291 333.073L172.281 334.863L168.982 336.722" fill="#0E0C15"/>
<path d="M467.031 436.633L461.336 444.616L455.395 452.569L449.215 460.475L442.81 468.314L436.194 476.073L429.38 483.735L422.38 491.281L415.21 498.697L407.883 505.967L400.42 513.076L392.83 520.013L385.136 526.76L377.348 533.302L369.487 539.63L361.568 545.723L353.604 551.574L345.615 557.167" fill="#0E0C15"/>
<path d="M230.598 283.464L230.294 283.827L227.624 287.04L224.563 290.581L221.418 294.081L218.193 297.535L214.898 300.935L211.536 304.275L208.115 307.546L204.644 310.743L201.129 313.86L197.624 316.848L197.576 316.89" fill="#0E0C15"/>
<path d="M240.784 269.839L240.667 270.006L240.256 270.592L238.297 273.38L235.698 276.92L232.993 280.446L230.295 283.823" fill="#0E0C15"/>
<path d="M244.669 263.852L244.421 264.243L242.473 267.291L240.652 270.009L240.26 270.593" fill="#0E0C15"/>
<path d="M247.9 258.328L247.582 258.878L245.996 261.639L244.418 264.245" fill="#0E0C15"/>
<path d="M251.169 251.792L249.862 254.55L251.169 251.792Z" fill="#0E0C15"/>
<path d="M251.713 250.514L251.489 251.019L250.819 252.551" fill="#0E0C15"/>
<path d="M160.936 340.37L159.301 340.879L159.079 340.948" fill="#0E0C15"/>
<path d="M161.541 340.155L161.432 340.194L161.43 340.196L161.102 340.309L161.08 340.317L160.943 340.365L160.628 340.474L159.611 340.832" fill="#0E0C15"/>
<path d="M161.426 340.197L161.123 340.251L161.426 340.197Z" fill="#0E0C15"/>
<path d="M162.563 339.756L161.543 340.15L161.454 340.186L161.452 340.185L161.238 340.269L161.207 340.281L161.18 340.291L161.076 340.332L161.053 340.342L161.048 340.344L161.036 340.349L160.367 340.607" fill="#0E0C15"/>
<path d="M164.022 339.138L162.569 339.756L162.049 339.975L161.954 340.016L161.625 340.157L161.622 340.157L161.461 340.225L161.431 340.238L161.426 340.24L161.418 340.245L161.356 340.27" fill="#0E0C15"/>
<path d="M55.6616 566.042L60.0643 569.778L64.8677 573.108L70.0672 576.021L75.6541 578.511L81.6237 580.562L87.961 582.175L94.6577 583.343L101.699 584.066L109.075 584.336L116.769 584.156L124.769 583.516L133.066 582.418L141.639 580.858L150.476 578.839L159.556 576.364L168.864 573.441L178.376 570.07L188.078 566.259L197.946 562.012L207.967 557.334L218.114 552.232L228.372 546.718L238.716 540.8L249.125 534.496L259.575 527.816L270.047 520.773L280.515 513.382L290.959 505.655L301.354 497.605L311.682 489.252L321.918 480.616L332.042 471.714L342.028 462.566L351.859 453.193L361.512 443.612L370.962 433.844L380.191 423.909L389.18 413.83L397.913 403.63L406.367 393.328L414.529 382.949L422.379 372.515L429.901 362.049L437.078 351.572L443.892 341.107L450.33 330.677L456.388 320.303L462.051 310.005L467.305 299.808L472.145 289.731L476.558 279.796L480.538 270.025L484.073 260.435L487.16 251.046L489.799 241.878L491.984 232.945L493.716 224.266L494.991 215.858L495.808 207.737L496.167 199.917L496.066 192.419L495.51 185.25L494.505 178.421L493.055 171.949L491.169 165.835L488.848 160.099L486.102 154.746L482.933 149.785L479.35 145.229M55.6616 566.042L53.7219 564.148L51.8271 562.207L47.8368 558.081L45.9933 556.102L44.1944 554.078L42.4453 552.011L40.7459 549.9L37.1913 545.415L35.5465 543.273L33.9564 541.093L32.4159 538.874L30.9301 536.619L27.8212 531.801L26.3966 529.525L25.0285 527.213L23.715 524.869L22.4578 522.495L19.8043 517.381L18.6133 514.994L17.4803 512.579L16.4054 510.136L15.3917 507.668L13.1953 502.288L12.2496 499.821L11.365 497.33L10.5418 494.817L8.78269 489.186L8.03073 486.685L7.33836 484.164L6.70888 481.626L5.38379 475.772L4.82397 473.255L4.33031 470.724L3.89807 468.181L2.99036 462.139L2.62763 459.623L2.32954 457.102L2.09429 454.571L1.59401 448.372L1.42679 445.88L1.32408 443.385L1.2114 437.015L1.17334 434.565L1.20144 432.115L1.29425 429.667L1.55761 423.199L1.71163 420.805L1.93197 418.415L2.55473 411.823L2.83301 409.497L3.81689 402.742L4.1498 400.485L4.54736 398.236L5.86421 391.403L6.31136 389.23L8.45801 380.179L9.01627 378.101L10.9658 371.109L11.5671 369.116L13.8214 362.039L14.4625 360.135L17.0116 352.992L17.6857 351.181L20.5182 343.986L21.2222 342.275L24.3245 335.041L25.0583 333.433L28.4191 326.18L32.0664 318.839L32.7804 317.416L36.6613 310.083L37.39 308.771L41.4896 301.465L45.8443 294.112L46.5332 292.999L51.0817 285.698L55.867 278.378L60.8825 271.054L61.4573 270.227L66.6317 262.992L72.0134 255.775L77.5921 248.593L83.3563 241.451L83.729 240.999L89.6008 233.997L95.6366 227.064L101.827 220.208L108.161 213.443L114.627 206.785L121.216 200.238L127.916 193.817L134.712 187.534L141.596 181.396L148.553 175.416L155.573 169.605L156.056 169.208L163.212 163.51L170.407 158.004L177.627 152.702L184.864 147.609L185.724 147.008L193.043 142.076L200.355 137.376L201.418 136.716L208.787 132.203L216.12 127.941L217.382 127.239L224.748 123.192L232.048 119.414L233.502 118.685L240.807 115.147L242.367 114.435L249.658 111.148L256.85 108.157L258.59 107.438L265.737 104.72L267.577 104.033L274.666 101.598L276.598 100.948L283.614 98.8118L285.633 98.2007L287.672 97.6524L294.664 95.8087L296.784 95.3051L303.665 93.788L305.864 93.3342L308.074 92.9432L314.888 91.7506L317.169 91.4143L323.838 90.5696L326.186 90.2881L328.54 90.0711L335.101 89.5791L337.514 89.4218L339.93 89.3289L346.36 89.203L348.827 89.1733L351.297 89.2082L360.083 89.5626L362.592 89.7298L365.097 89.9584L371.233 90.6093L373.771 90.9076L376.302 91.2719L378.821 91.6977L384.788 92.7609L387.333 93.2564L389.864 93.816L392.382 94.439L398.145 95.9313L400.677 96.6254L403.191 97.3807L405.686 98.1956L411.215 100.124L413.716 101.011L416.194 101.959L418.649 102.966L421.079 104.031L426.368 106.411L428.791 107.546L431.186 108.738L433.551 109.987L435.885 111.294L440.899 114.125L443.216 115.495L445.5 116.921L447.748 118.4L449.961 119.934L454.663 123.212L456.85 124.805L458.995 126.45L461.1 128.145L463.166 129.889L467.524 133.611L469.553 135.408L471.536 137.251L473.473 139.143L475.367 141.079L479.35 145.229M55.6616 566.042L57.6443 567.885L59.67 569.682L64.0759 573.423L66.1448 575.17L68.2534 576.868L70.3984 578.513L72.5832 580.104L79.6029 584.974L81.8539 586.457L84.1413 587.883L86.4586 589.252L91.6299 592.158L93.9686 593.466L96.3389 594.717L98.7357 595.911L101.159 597.042L106.668 599.507L109.105 600.575L111.561 601.581L114.044 602.527L116.543 603.41L122.354 605.427L124.855 606.242L127.375 606.992L129.907 607.68L136.003 609.257L138.525 609.874L141.061 610.429L143.607 610.918L149.953 612.059L152.479 612.478L155.011 612.831L157.55 613.121L164.111 613.832L166.617 614.052L169.127 614.206L175.908 614.501L178.376 614.587L180.844 614.61L190.241 614.449L192.653 614.34L202.155 613.653L204.502 613.416L211.794 612.508L214.073 612.213L216.342 611.856L223.749 610.567L225.942 610.153L228.122 609.676L235.617 608.024L237.713 607.499L245.335 605.485L247.344 604.914L255.075 602.55L256.988 601.939L264.808 599.234L266.621 598.586L274.506 595.555L276.217 594.874L284.149 591.527L285.749 590.821L293.71 587.17L295.199 586.443L303.166 582.501L311.208 578.239L312.492 577.542L320.507 573.018L328.562 568.197L329.63 567.546L337.62 562.494L345.617 557.163L346.464 556.579L354.361 551.05L362.233 545.266L370.061 539.243L377.831 532.99L378.268 532.629L385.874 526.239L393.389 519.648L400.801 512.875L408.093 505.932L415.247 498.831L422.248 491.587L429.084 484.218L435.739 476.735L442.201 469.157L442.532 468.756L448.863 461.007L454.972 453.192L460.845 445.331L466.474 437.44L467.033 436.629L472.463 428.628L477.618 420.631L482.491 412.651L483.173 411.528L487.803 403.493L492.856 394.172L496.916 386.17L497.627 384.714L501.405 376.713L502.096 375.144L505.576 367.162L508.71 359.304L509.407 357.543L512.216 349.742L512.88 347.882L515.355 340.16L515.979 338.2L516.541 336.221L518.689 328.527L519.208 326.458L520.997 318.885L521.467 316.732L522.89 309.299L523.307 307.067L523.66 304.822L524.715 297.493L525.013 295.177L525.245 292.852L525.914 285.653L526.087 283.268L526.193 280.873L526.466 273.835L526.507 271.388L526.484 268.94L526.347 262.088L526.257 259.593L526.1 257.1L525.547 250.461L525.321 247.934L525.033 245.41L524.679 242.889L523.697 236.457L523.271 233.911L522.784 231.377L522.229 228.854L520.814 222.656L520.19 220.117L519.502 217.594L518.752 215.085L516.9 209.158L516.079 206.647L515.198 204.153L514.253 201.681L511.964 196.056L510.952 193.59L509.879 191.145L508.748 188.728L507.557 186.335L504.824 181.031L503.57 178.658L502.256 176.31L500.885 173.998L499.46 171.716L496.295 166.768L494.809 164.514L493.27 162.296L491.675 160.114L490.031 157.969L486.444 153.409L484.745 151.302L482.998 149.237L481.199 147.209L479.35 145.229M454.66 123.215L458.985 126.907L462.919 131.01L466.452 135.517L469.572 140.423L472.276 145.724L474.552 151.405L476.4 157.458L477.811 163.871L478.782 170.639L479.307 177.743L479.378 185.179L478.994 192.931L478.153 200.984L476.856 209.324L475.108 217.935L472.908 226.797L470.26 235.895L467.166 245.211L463.628 254.729L459.647 264.43L455.237 274.29L450.403 284.295L445.159 294.422L439.509 304.647L433.468 314.951L427.05 325.312L420.259 335.707L413.108 346.114L405.616 356.515L397.798 366.884L389.674 377.198L381.259 387.438L372.568 397.58L363.624 407.601L354.443 417.478L345.039 427.192L335.441 436.722L325.666 446.045L315.735 455.145L305.67 464.004L295.497 472.6L285.232 480.914L274.9 488.927L264.523 496.625L254.121 503.989L243.718 511.005L233.336 517.664L222.999 523.95L212.726 529.85L202.539 535.352L192.464 540.446L182.517 545.118L172.718 549.365L163.089 553.177L153.648 556.552L144.414 559.486L135.403 561.97L126.637 564.004L118.132 565.583L109.903 566.703L101.969 567.365L94.3395 567.574L87.03 567.334L80.05 566.645L73.4162 565.51L67.1351 563.937L61.2252 561.926L55.6929 559.481L50.5482 556.612L45.796 553.331L41.443 549.644L37.4909 545.562L33.9529 541.097M426.365 106.416L431.306 109.203L435.885 112.402L440.091 116.005L443.919 120.008L447.349 124.409L450.374 129.203L452.991 134.38L455.19 139.933L456.966 145.849L458.318 152.12L459.237 158.734L459.716 165.683L459.754 172.953L459.343 180.535L458.488 188.413L457.186 196.573L455.442 204.995L453.256 213.665L450.632 222.566L447.571 231.683L444.075 240.997L440.151 250.489L435.801 260.143L431.041 269.935L425.877 279.845L420.322 289.857L414.382 299.944L408.071 310.088L401.4 320.264L394.378 330.456L387.022 340.641L379.35 350.795L371.376 360.899L363.121 370.93L354.597 380.865L345.825 390.684L336.821 400.363L327.605 409.884L318.195 419.225L308.614 428.368L298.883 437.291L289.023 445.979L279.054 454.41L269.002 462.567L258.881 470.432L248.718 477.988L238.533 485.218L228.346 492.112L218.181 498.653L208.06 504.831L198.004 510.634L188.033 516.05L178.169 521.064L168.435 525.667L158.844 529.854L149.423 533.618L140.184 536.954L131.146 539.855L122.333 542.322L113.756 544.346L105.434 545.923L97.3877 547.053L89.6276 547.733L82.1656 547.97L75.0149 547.766L68.1924 547.125L61.7044 546.047L55.5673 544.538L49.7899 542.6L44.3853 540.236L39.3581 537.459L34.7153 534.274L30.4633 530.691L26.6106 526.722L23.1571 522.374L20.1109 517.658L17.4773 512.583M389.866 93.8162L395.597 95.3004L401.007 97.1887L406.087 99.4761L410.831 102.163L415.224 105.244L419.259 108.715L422.921 112.573L426.201 116.817L429.091 121.44L431.582 126.432L433.673 131.785L435.354 137.492L436.621 143.539L437.472 149.92L437.903 156.621L437.903 163.634L437.472 170.949L436.609 178.547L435.319 186.416L433.601 194.541L431.46 202.904L428.892 211.491L425.906 220.284L422.502 229.27L418.682 238.427L414.457 247.737L409.836 257.185L404.823 266.746L399.437 276.402L393.681 286.134L387.567 295.921L381.107 305.74L374.313 315.576L367.196 325.403L359.773 335.204L352.063 344.955L344.082 354.635L340.094 359.276L340.091 359.283L340.087 359.286L335.844 364.225L327.368 373.705L318.67 383.052L309.767 392.246L300.68 401.267L291.428 410.099L282.034 418.72L272.514 427.115L262.892 435.266L253.187 443.152L243.421 450.758L233.615 458.066L223.786 465.062L213.957 471.734L204.15 478.07L194.385 484.058L184.684 489.681L175.065 494.933L165.548 499.8L156.156 504.272L146.907 508.34L137.817 512.004L128.905 515.254L120.188 518.088L111.686 520.501L103.414 522.489L95.3869 524.046L87.6234 525.171L80.1383 525.865L72.9412 526.128L66.0457 525.967L59.4632 525.381L53.2072 524.376L47.2873 522.955L41.7168 521.118L36.5043 518.87L31.6577 516.22L27.1805 513.177L23.0842 509.75L19.3673 505.947L16.0414 501.779L13.1062 497.254L10.5719 492.381L8.44019 487.165L6.71087 481.626M357.577 89.4569L363.583 90.093L369.305 91.1149L374.737 92.5245L379.86 94.3183L384.668 96.4966L389.154 99.0507L393.305 101.982L397.111 105.285L400.565 108.957L403.654 112.994L406.369 117.392L408.704 122.142L410.657 127.236L412.222 132.664L413.393 138.416L414.167 144.483L414.538 150.857L414.503 157.527L414.057 164.483L413.203 171.708L411.939 179.19L410.273 186.915L408.199 194.865L405.728 203.028L402.854 211.388L399.587 219.928L395.925 228.632L391.879 237.483L387.456 246.46L382.667 255.549L377.521 264.727L372.025 273.976L366.193 283.276L360.031 292.612L353.552 301.957L346.77 311.299L339.698 320.615L332.357 329.884L324.756 339.088L316.912 348.206L308.846 357.221L300.571 366.109L292.102 374.853L283.457 383.434L274.658 391.836L265.724 400.041L256.673 408.032L247.527 415.79L238.301 423.3L229.017 430.544L219.695 437.507L210.351 444.177L201.011 450.539L191.69 456.583L182.409 462.296L173.189 467.668L164.047 472.685L155.001 477.338L146.075 481.616L137.283 485.515L128.645 489.029L120.173 492.151L111.887 494.877L103.804 497.206L95.9382 499.129L88.3073 500.645L80.9264 501.751L73.8073 502.444L66.9631 502.732L60.4055 502.614L54.1444 502.094L48.1947 501.173L42.5631 499.858L37.2626 498.145L32.3034 496.042L27.6937 493.555L23.4368 490.693L19.536 487.465L16.0013 483.877L12.8359 479.943L10.045 475.665L7.63333 471.054L5.6042 466.119L3.96106 460.872L2.7023 455.323L1.82437 449.489L1.33081 443.38M305.864 93.3307L312.616 92.1513L319.165 91.3232L325.497 90.8478L331.601 90.7303L337.466 90.9705L343.078 91.57L348.422 92.5306L353.489 93.8574L358.267 95.5453L362.748 97.5909L366.923 99.991L370.786 102.744L374.322 105.846L377.527 109.293L380.39 113.08L382.901 117.207L385.057 121.663L386.851 126.442L388.282 131.53L389.344 136.925L390.033 142.613L390.346 148.588L390.278 154.837L389.826 161.355L388.991 168.123L387.775 175.133L386.179 182.368L384.208 189.815L381.862 197.457L379.141 205.284L376.052 213.279L372.595 221.427L368.782 229.712L364.616 238.115L360.109 246.62L355.269 255.207L350.104 263.863L344.624 272.568L338.839 281.303L332.757 290.049L326.395 298.79L319.765 307.507L312.879 316.182L305.757 324.795L298.409 333.328L290.851 341.768L283.101 350.088L275.168 358.275L267.075 366.309L258.838 374.178L250.473 381.864L242.002 389.351L233.441 396.62L224.808 403.66L216.12 410.453L207.396 416.984L198.653 423.242L189.913 429.213L181.19 434.888L172.506 440.256L163.876 445.305L155.321 450.027L146.857 454.407L138.502 458.438L130.271 462.117L122.185 465.433L114.253 468.386L106.494 470.97L98.9261 473.182L91.5601 475.015L84.4129 476.468L77.4975 477.536L70.8289 478.222L64.4154 478.527L58.2686 478.452L52.4017 477.998L46.8214 477.172L41.5408 475.973L36.5701 474.404L31.9206 472.468L27.5925 470.17L23.5989 467.522L19.94 464.529L16.6206 461.199L13.6474 457.54L11.0254 453.56L8.75941 449.263L6.85291 444.664L5.30749 439.769L4.1249 434.591L3.29666 429.142L2.83121 423.432L2.72359 417.478L2.97371 411.284L3.58156 404.866L4.54724 398.232M240.811 115.14L248.024 111.889L255.137 108.931L262.133 106.267L269.002 103.91L275.727 101.863L282.298 100.132L288.701 98.7241L294.924 97.6391L300.96 96.8805L306.791 96.4498L312.409 96.3472L317.806 96.5757L322.964 97.1389L327.877 98.0366L332.531 99.269L336.914 100.836L341.025 102.734L344.853 104.959L348.387 107.51L351.622 110.38L354.547 113.57L357.158 117.075L359.442 120.89L361.398 125.009L363.02 129.423L364.307 134.126L365.254 139.108L365.857 144.359L366.112 149.875L366.018 155.641L365.569 161.655L364.769 167.898L363.616 174.361L362.117 181.031L360.269 187.895L358.079 194.941L355.545 202.153L352.674 209.519L349.464 217.026L345.926 224.655L342.068 232.396L337.896 240.229L333.417 248.136L328.642 256.108L323.58 264.122L318.236 272.162L312.623 280.217L306.751 288.262L300.634 296.287L294.287 304.274L287.718 312.205L280.946 320.063L273.983 327.831L266.84 335.494L259.534 343.032L252.079 350.434L244.493 357.682L236.892 364.674L236.792 364.763L228.992 371.662L221.111 378.364L213.162 384.855L205.162 391.12L197.132 397.146L189.083 402.922L181.037 408.434L173.005 413.676L165.01 418.637L157.064 423.307L149.185 427.674L141.388 431.731L133.693 435.468L126.113 438.88L118.663 441.961L111.353 444.709L104.204 447.117L97.2273 449.184L90.4362 450.903L83.847 452.272L77.47 453.289L71.3182 453.951L65.4 454.264L59.7285 454.228L54.3122 453.844L49.1592 453.113L44.2828 452.04L39.6913 450.625L35.3914 448.873L31.3928 446.786L27.6974 444.372L24.3118 441.643L21.2392 438.6L18.488 435.252L16.0581 431.607L13.9578 427.671L12.1888 423.451L10.7527 418.957L9.64954 414.2L8.87933 409.193L8.43865 403.942L8.33103 398.461L8.55628 392.76L9.1112 386.848L9.99737 380.734L11.2099 374.437L12.742 367.962L14.5921 361.328L16.7521 354.544L19.2217 347.625L21.9913 340.582L25.0621 333.426M170.066 336.111L167.484 337.477L167.162 337.646L164.017 339.205L162.241 340.023L162.238 340.023L162.145 340.066L162.14 340.068L162.114 340.081L162.058 340.108L162.029 340.119L160.915 340.634L157.859 341.931L154.859 343.096L151.919 344.128L149.043 345.019L146.241 345.774L143.514 346.387L140.871 346.858L138.317 347.185L135.852 347.371L133.483 347.414L131.216 347.316L129.052 347.078L126.999 346.697L125.059 346.175L123.235 345.514L121.532 344.716L119.954 343.78L118.498 342.712L117.17 341.512L115.972 340.186L114.907 338.73L113.976 337.153L113.183 335.455L112.527 333.64L112.008 331.713L111.627 329.676L111.387 327.534L111.285 325.291L111.319 322.954L111.496 320.524L111.813 318.005L112.267 315.404L112.858 312.726L113.584 309.973L114.442 307.157L115.432 304.279L116.553 301.342L117.801 298.355L119.175 295.324L120.673 292.25L122.291 289.144L124.025 286.009L125.872 282.853L127.827 279.68L129.891 276.496L132.054 273.306L134.318 270.117L136.677 266.937L139.123 263.769L141.657 260.618L144.27 257.493L146.956 254.395L149.716 251.334L152.542 248.313L155.425 245.34L158.367 242.418L161.357 239.554L164.393 236.753L167.467 234.017L170.575 231.356L173.71 228.771L176.866 226.268L180.037 223.855L183.221 221.533L186.41 219.305L189.596 217.178L192.775 215.152L195.94 213.236L199.089 211.429L202.213 209.739L205.304 208.165L208.36 206.716L211.373 205.389L214.341 204.187L217.255 203.115L220.11 202.171L222.903 201.363L225.626 200.687L228.273 200.15L230.84 199.749L233.326 199.486L235.722 199.363L238.024 199.377L240.229 199.531L242.331 199.824L244.325 200.258L246.208 200.829L247.977 201.538L249.629 202.388L251.159 203.369L252.565 204.483L253.847 205.729L254.999 207.105L256.016 208.609L256.898 210.238L257.642 211.988L258.25 213.858L258.717 215.843L259.047 217.938L259.234 220.14L259.279 222.447L259.183 224.852L258.941 227.353L258.558 229.945L258.031 232.622L257.367 235.38L256.56 238.211L255.618 241.111L254.538 244.076L253.324 247.099L251.982 250.16L251.974 250.175L251.957 250.211L251.951 250.228L251.873 250.388L250.495 253.297L249.86 254.547L249.826 254.615L248.89 256.459L247.58 258.876M252.377 248.681L252.326 248.826L252.301 248.894L252.241 249.056L252.221 249.112L252.22 249.117L252.175 249.241L252.17 249.253L251.923 249.93M252.547 248.101L252.374 248.64L252.266 248.966L252.261 248.981L252.243 249.042L252.18 249.234L252.175 249.249M252.599 247.756L252.255 248.962L252.246 248.99M252.576 247.614L252.229 249.05M161.096 340.31L160.924 340.35L158.814 340.728L156.772 340.991L154.802 341.142L152.909 341.18L151.093 341.104L149.363 340.917L147.718 340.617L146.162 340.204L144.7 339.679L143.333 339.045L142.065 338.303L140.895 337.455L139.825 336.501L138.859 335.446L138 334.288L137.248 333.032L136.603 331.682L136.068 330.236L135.644 328.699L135.33 327.076L135.126 325.368L135.035 323.581L135.053 321.718L135.184 319.778L135.426 317.767L135.779 315.692L136.241 313.553L136.811 311.357L137.488 309.106L138.27 306.807L139.156 304.463L140.145 302.076L141.236 299.653L142.426 297.198L143.713 294.715L145.092 292.209L146.562 289.686L148.119 287.149L149.763 284.603L151.488 282.054L153.295 279.505L155.175 276.962L157.129 274.428L159.152 271.909L161.237 269.409L163.382 266.933L165.587 264.486L167.843 262.071L170.15 259.694L172.501 257.36L174.892 255.071L177.317 252.832L179.775 250.649L182.26 248.522L184.764 246.458L187.289 244.461L189.826 242.536L192.372 240.682L194.92 238.907L197.467 237.211L200.008 235.597L202.541 234.072L205.057 232.632L207.553 231.289L210.024 230.04L212.466 228.887L214.874 227.834L217.244 226.885L219.571 226.035L221.852 225.291L224.083 224.654L226.257 224.124L228.37 223.703L230.419 223.393L232.4 223.194L234.313 223.107L236.149 223.13L237.906 223.261L239.582 223.506L241.171 223.862L242.671 224.329L244.081 224.907L245.396 225.593L246.614 226.386L247.733 227.287L248.75 228.291L249.665 229.397L250.473 230.607L251.174 231.914L251.765 233.32L252.245 234.817L252.615 236.409L252.875 238.087L253.02 239.849L253.054 241.694L252.974 243.616L252.78 245.615L252.472 247.686L252.166 249.241M252.102 249.48L252.062 249.583L251.482 251.021M516.534 336.227L514.013 344.095L511.123 352.123L507.865 360.294L504.245 368.591L500.275 377L495.96 385.499L491.309 394.073L486.333 402.706L481.036 411.375L475.431 420.068L469.528 428.764L463.336 437.443L456.873 446.09L450.151 454.686L443.185 463.213L435.988 471.653L428.575 479.986L420.961 488.196L413.159 496.263L405.191 504.172L397.071 511.908L388.814 519.452L380.444 526.792L371.975 533.909L363.425 540.79L354.814 547.42L346.156 553.782L337.471 559.866L328.777 565.659L320.094 571.155L311.439 576.337L302.83 581.197L294.286 585.726L285.824 589.915L277.461 593.753L269.214 597.233L261.099 600.352L253.133 603.106L245.328 605.491M526.186 280.877L525.505 288.18L524.418 295.733L522.928 303.518L521.034 311.523L518.739 319.732L516.044 328.128L512.953 336.698L509.47 345.422L505.599 354.286L501.352 363.267L496.735 372.352L491.76 381.515L486.433 390.744L480.763 400.015L474.763 409.311L468.444 418.611L461.816 427.897L454.895 437.149L447.698 446.351L440.24 455.476L432.532 464.508L424.595 473.429L416.444 482.216L408.091 490.854L399.559 499.32L390.864 507.604L382.028 515.682L373.07 523.54L364.005 531.161L354.853 538.53L345.639 545.627L336.376 552.438L327.084 558.951L317.787 565.154L308.501 571.035L299.247 576.582L290.044 581.783L280.912 586.631L271.87 591.112L262.937 595.214L254.129 598.938L245.464 602.272L236.96 605.217L228.634 607.766L220.501 609.916L212.58 611.662L204.886 613.002L197.431 613.932L190.234 614.453M523.267 233.911L524.254 240.378L524.821 247.162L524.961 254.25L524.672 261.632L523.953 269.295L522.805 277.221L521.233 285.395L519.234 293.804L516.814 302.429L513.973 311.252L510.715 320.262L507.039 329.436L502.958 338.758L498.479 348.206L493.61 357.764L488.362 367.41L482.745 377.125L476.766 386.888L470.438 396.677L463.773 406.473L456.783 416.255L449.484 426.003L441.894 435.696L434.026 445.313L425.9 454.834L417.53 464.237L408.934 473.5L400.128 482.607L391.133 491.536L381.968 500.267L372.652 508.787L363.208 517.073L353.655 525.111L344.012 532.879L334.302 540.366L324.541 547.55L314.755 554.417L304.963 560.96L295.187 567.161L285.442 573.01L275.756 578.499L266.144 583.609L256.631 588.335L247.233 592.661L237.971 596.587L228.86 600.105L219.921 603.211L211.172 605.901L202.628 608.167L194.31 610.009L186.23 611.423L178.409 612.404L170.857 612.955L163.587 613.08L156.614 612.778L149.949 612.059M514.246 201.688L516.116 207.672L517.559 214.008L518.574 220.685L519.153 227.689L519.288 235.014L518.979 242.645L518.223 250.569L517.024 258.768L515.383 267.227L513.301 275.928L510.778 284.858L507.82 293.994L504.427 303.326L500.604 312.831L496.359 322.492L491.7 332.287L486.638 342.195L481.18 352.198L475.338 362.27L469.123 372.397L462.546 382.553L455.617 392.718L448.351 402.87L440.766 412.989L432.877 423.051L424.701 433.036L416.256 442.921L407.562 452.685L398.629 462.307L389.483 471.765L380.137 481.041L370.617 490.111L360.943 498.963L351.138 507.573L341.217 515.926L331.206 523.999L321.127 531.779L310.999 539.245L300.843 546.385L290.681 553.185L280.538 559.631L270.432 565.715L260.388 571.42L250.421 576.735L240.559 581.648L230.82 586.15L221.221 590.233L211.785 593.895L202.527 597.127L193.467 599.926L184.623 602.29L176.013 604.211L167.654 605.687L159.564 606.714L151.757 607.295L144.244 607.434L137.04 607.131L130.157 606.393L123.607 605.22L117.402 603.616L111.554 601.587M499.462 171.716L502.208 177.056L504.533 182.773L506.428 188.862L507.888 195.311L508.908 202.108L509.483 209.243L509.605 216.706L509.272 224.483L508.484 232.563L507.24 240.923L505.545 249.55L503.4 258.43L500.805 267.542L497.764 276.871L494.279 286.395L490.353 296.101L485.995 305.968L481.213 315.975L476.02 326.1L470.423 336.322L464.434 346.618L458.064 356.97L451.321 367.354L444.22 377.748L436.774 388.131L429.002 398.481L420.923 408.773L412.548 418.99L403.9 429.105L394.995 439.097L385.849 448.945L376.484 458.625L366.918 468.121L357.174 477.409L347.272 486.472L337.237 495.291L327.087 503.844L316.846 512.115L306.535 520.084L296.174 527.734L285.79 535.051L275.4 542.019L265.029 548.63L254.7 554.864L244.432 560.716L234.249 566.166L224.173 571.206L214.223 575.826L204.421 580.02L194.784 583.78L185.334 587.101L176.085 589.98L167.061 592.411L158.277 594.394L149.752 595.919L141.503 596.986L133.544 597.597L125.888 597.753L118.549 597.463L111.541 596.723L104.872 595.54L98.5564 593.918L92.6117 591.86L87.0414 589.37L81.8552 586.457M166.556 337.937L166.494 337.916L165.421 337.422L164.422 336.844L163.501 336.182L162.66 335.44L161.898 334.615L161.217 333.712L160.621 332.735L160.111 331.678L159.685 330.55L159.344 329.351L159.091 328.084L158.923 326.75L158.842 325.354L158.849 323.896L158.943 322.381L159.125 320.81L159.394 319.187L159.746 317.516L160.185 315.798L160.707 314.037L161.312 312.24L161.997 310.405L162.764 308.538L163.612 306.643L164.537 304.722L165.537 302.781L166.611 300.82L167.757 298.845L168.971 296.859L170.251 294.867L171.598 292.871L173.007 290.878L174.475 288.887L176 286.904L177.581 284.933L179.211 282.975L180.888 281.039L182.611 279.124L184.377 277.236L186.179 275.378L188.018 273.552L189.888 271.762L191.786 270.013L193.709 268.305L195.653 266.642L197.613 265.03L199.587 263.47L201.573 261.964L203.566 260.518L205.56 259.133L207.553 257.81L209.542 256.553L211.523 255.364L213.493 254.245L215.446 253.197L217.38 252.226L219.29 251.33L221.173 250.514L223.027 249.777L224.849 249.121L226.633 248.546L228.375 248.052L230.076 247.646L231.728 247.327L233.331 247.092L234.88 246.944L236.372 246.883L237.807 246.909L239.18 247.02L240.488 247.219L241.731 247.507L242.902 247.88L244.002 248.34L245.027 248.885L245.978 249.512L246.85 250.222L247.644 251.016L248.356 251.887L248.987 252.839L249.532 253.868L249.842 254.608M181.949 328.749L181.975 328.275L182.109 327.061L182.311 325.806L182.578 324.512L182.913 323.184L183.31 321.822L183.774 320.431L184.299 319.011L184.887 317.568L185.536 316.101L186.249 314.614L187.019 313.111L187.844 311.594L188.727 310.065L189.662 308.53L190.65 306.989L191.688 305.444L192.775 303.9L193.909 302.361L195.087 300.826L196.306 299.302L197.565 297.788L198.862 296.289L200.194 294.808L201.559 293.347L202.952 291.911L204.374 290.498L205.82 289.115L207.286 287.762L208.775 286.442L210.278 285.158L211.795 283.913L213.324 282.708L214.859 281.547L216.4 280.431L217.945 279.363L219.487 278.34L221.026 277.372L222.56 276.457L224.082 275.594L225.594 274.788L227.09 274.041L228.569 273.353L230.027 272.727L231.461 272.161L232.871 271.659L234.25 271.22L235.599 270.845L236.914 270.537L238.191 270.294L239.43 270.118L240.628 270.011L240.647 270.011M167.493 337.473L165.591 338.413L162.57 339.805M197.63 316.844L194.529 319.388L191.013 322.156L187.483 324.821L184.142 327.235L183.943 327.377M184.133 327.238L181.946 328.748L181.328 329.174L177.885 331.445L174.451 333.6M175.291 333.073L172.281 334.863L168.982 336.722M467.031 436.633L461.336 444.616L455.395 452.569L449.215 460.475L442.81 468.314L436.194 476.073L429.38 483.735L422.38 491.281L415.21 498.697L407.883 505.967L400.42 513.076L392.83 520.013L385.136 526.76L377.348 533.302L369.487 539.63L361.568 545.723L353.604 551.574L345.615 557.167M230.598 283.464L230.294 283.827L227.624 287.04L224.563 290.581L221.418 294.081L218.193 297.535L214.898 300.935L211.536 304.275L208.115 307.546L204.644 310.743L201.129 313.86L197.624 316.848L197.576 316.89M240.784 269.839L240.667 270.006L240.256 270.592L238.297 273.38L235.698 276.92L232.993 280.446L230.295 283.823M244.669 263.852L244.421 264.243L242.473 267.291L240.652 270.009L240.26 270.593M247.9 258.328L247.582 258.878L245.996 261.639L244.418 264.245M251.169 251.792L249.862 254.55M251.713 250.514L251.489 251.019L250.819 252.551M160.936 340.37L159.301 340.879L159.079 340.948M161.541 340.155L161.432 340.194L161.43 340.196L161.102 340.309L161.08 340.317L160.943 340.365L160.628 340.474L159.611 340.832M161.426 340.197L161.123 340.251M162.563 339.756L161.543 340.15L161.454 340.186L161.452 340.185L161.238 340.269L161.207 340.281L161.18 340.291L161.076 340.332L161.053 340.342L161.048 340.344L161.036 340.349L160.367 340.607M164.022 339.138L162.569 339.756L162.049 339.975L161.954 340.016L161.625 340.157L161.622 340.157L161.461 340.225L161.431 340.238L161.426 340.24L161.418 340.245L161.356 340.27M342.459 159.929L342.025 165.385L341.273 171.05L340.201 176.912L338.816 182.961L337.118 189.184L335.109 195.57L332.79 202.106L330.165 208.779L327.238 215.579L324.015 222.489L320.502 229.497L316.707 236.588L312.635 243.751L308.297 250.964L303.701 258.217L298.853 265.494L293.761 272.782L288.436 280.065L282.89 287.327L277.137 294.553L271.188 301.729L265.054 308.84L258.747 315.869L252.279 322.805L245.666 329.629L238.918 336.327L232.053 342.891L225.084 349.303L218.025 355.551L210.891 361.622L203.699 367.502L196.46 373.18L189.194 378.644L181.911 383.88L174.628 388.884L167.359 393.641L160.121 398.147L152.929 402.39L145.795 406.361L138.739 410.051L131.77 413.455L124.903 416.566L118.153 419.376L111.533 421.889L105.053 424.096L98.729 425.99L92.5721 427.576L86.596 428.841L80.8102 429.79L75.2282 430.42L69.8583 430.731L64.7085 430.726L59.7875 430.406L55.1082 429.775L50.6756 428.831L46.5016 427.576L42.5909 426.014L38.9518 424.15L35.5861 421.99L32.5019 419.542L29.701 416.807L27.1916 413.798L24.9736 410.513L23.0539 406.967L21.4357 403.159L20.1188 399.102L19.1034 394.804L18.3912 390.275L17.9804 385.528L17.8711 380.569L18.0632 375.405L18.5569 370.051L19.3503 364.511L20.4418 358.801L21.8282 352.929L23.5011 346.91L25.4574 340.753L27.695 334.47L30.2094 328.074L32.9939 321.572L36.0465 314.982L39.3593 308.31L42.9255 301.57L46.7368 294.777L50.785 287.939L55.0651 281.072L59.5654 274.187L64.2828 267.296L69.2073 260.407L74.3304 253.538L79.6408 246.697L85.1317 239.898L90.7882 233.151L96.6055 226.47L102.568 219.864L108.672 213.346L114.903 206.929L121.252 200.62L127.707 194.433L134.258 188.379L140.89 182.466L147.594 176.704L154.358 171.105L161.171 165.68L168.022 160.44L174.896 155.391L181.783 150.541L188.674 145.903L195.551 141.481L202.405 137.283L209.223 133.321L215.992 129.599L222.704 126.131L229.343 122.918L235.899 119.966L242.359 117.279L248.711 114.866L254.947 112.731L261.051 110.877L267.012 109.312L272.818 108.042L278.461 107.066L283.927 106.387L289.209 106.008L294.296 105.926L299.179 106.145L303.843 106.669L308.281 107.495L312.485 108.628L316.442 110.064L320.149 111.8L323.597 113.834L326.779 116.161L329.688 118.778L332.317 121.685L334.654 124.877L336.699 128.35L338.443 132.099L339.888 136.114L341.024 140.387L341.854 144.914L342.372 149.686L342.573 154.694L342.459 159.929ZM320.389 167.524L319.979 172.387L319.285 177.437L318.311 182.661L317.057 188.05L315.524 193.59L313.717 199.277L311.637 205.094L309.283 211.032L306.665 217.079L303.782 223.228L300.644 229.461L297.255 235.765L293.622 242.13L289.756 248.544L285.658 254.991L281.339 261.457L276.805 267.932L272.066 274.403L267.132 280.855L262.014 287.275L257.245 293.021L256.723 293.652L251.269 299.968L245.662 306.214L239.914 312.376L234.036 318.44L228.041 324.395L221.941 330.227L215.749 335.925L209.478 341.48L203.139 346.878L196.749 352.109L190.319 357.161L183.862 362.021L177.391 366.684L170.918 371.139L164.459 375.378L158.026 379.393L151.632 383.176L145.292 386.721L139.016 390.015L132.819 393.058L126.711 395.841L120.705 398.359L114.813 400.61L109.045 402.591L103.414 404.3L97.9309 405.728L92.6057 406.879L87.451 407.744L82.4753 408.327L77.685 408.628L73.0902 408.648L68.7008 408.386L64.5217 407.848L60.563 407.033L56.8312 405.941L53.3345 404.575L50.0781 402.938L47.0685 401.039L44.3057 398.879L41.7945 396.467L39.5403 393.805L37.5476 390.902L35.82 387.759L34.3623 384.384L33.1731 380.786L32.2522 376.973L31.6012 372.953L31.2202 368.733L31.1076 364.323L31.2649 359.73L31.6923 354.966L32.388 350.034L33.3487 344.949L34.5744 339.718L36.0568 334.353L37.7944 328.862L39.7821 323.26L42.0182 317.552L44.4978 311.753L47.2175 305.866L50.1726 299.91L53.3511 293.892L56.7534 287.823L60.3659 281.713L64.1855 275.578L68.2072 269.423L72.421 263.261L76.822 257.104L81.4002 250.962L86.1491 244.845L91.0553 238.763L96.1156 232.729L101.317 226.753L106.65 220.843L112.11 215.012L117.683 209.273L123.363 203.63L129.137 198.097L134.996 192.683L140.929 187.392L146.925 182.241L152.974 177.235L159.068 172.384L165.193 167.699L171.338 163.187L177.498 158.856L183.655 154.71L189.802 150.763L195.926 147.015L202.019 143.478L208.065 140.159L214.058 137.065L219.986 134.201L225.837 131.574L231.601 129.182L237.269 127.035L242.829 125.139L248.271 123.494L253.584 122.109L258.755 120.986L263.781 120.128L268.647 119.535L273.346 119.209L277.87 119.151L282.208 119.361L286.354 119.843L290.295 120.597L294.023 121.622L297.533 122.919L300.818 124.481L303.869 126.31L306.683 128.398L309.252 130.749L311.571 133.353L313.631 136.212L315.428 139.321L316.959 142.673L318.22 146.263L319.207 150.082L319.921 154.125L320.358 158.386L320.515 162.853L320.389 167.524ZM300.444 178.211L300.068 182.466L299.445 186.882L298.576 191.448L297.464 196.157L296.113 200.997L294.521 205.962L292.691 211.042L290.625 216.224L288.329 221.502L285.802 226.865L283.056 232.301L280.091 237.8L276.917 243.349L273.536 248.94L269.959 254.558L266.187 260.195L262.23 265.835L258.096 271.473L253.792 277.095L249.328 282.688L244.715 288.242L239.961 293.745L235.075 299.188L230.066 304.554L224.946 309.836L219.722 315.024L214.407 320.104L209.012 325.072L203.551 329.913L198.03 334.619L192.463 339.179L186.861 343.585L181.233 347.825L175.595 351.894L169.956 355.783L164.328 359.483L158.719 362.991L153.146 366.299L147.618 369.398L142.144 372.282L136.738 374.945L131.411 377.384L126.17 379.593L121.025 381.571L115.99 383.313L111.072 384.819L106.28 386.083L101.627 387.102L97.1203 387.875L92.769 388.404L88.5767 388.683L84.555 388.72L80.7106 388.513L77.05 388.062L73.5798 387.368L70.3069 386.434L67.2375 385.26L64.3786 383.848L61.7317 382.209L59.3002 380.34L57.0906 378.25L55.1046 375.942L53.3471 373.42L51.82 370.69L50.5263 367.757L49.4712 364.624L48.6496 361.305L48.0633 357.8L47.7122 354.123L47.5995 350.277L47.7204 346.27L48.0799 342.111L48.6745 337.803L49.5027 333.36L50.5611 328.787L51.8465 324.096L53.3571 319.296L55.0863 314.393L57.0342 309.397L59.1975 304.319L61.5728 299.168L64.15 293.95L66.9311 288.678L69.9043 283.359L73.0664 278.007L76.409 272.628L79.9287 267.233L83.6191 261.83L87.4752 256.43L91.487 251.043L95.6495 245.678L99.9511 240.343L104.385 235.051L108.947 229.807L113.624 224.626L118.413 219.509L123.301 214.475L128.283 209.526L133.349 204.673L138.488 199.921L143.693 195.283L148.952 190.766L154.26 186.378L159.602 182.126L164.976 178.022L170.367 174.068L175.765 170.273L181.163 166.644L186.553 163.186L191.922 159.908L197.26 156.815L202.559 153.911L207.808 151.21L212.999 148.709L218.122 146.415L223.167 144.331L228.127 142.463L232.991 140.811L237.75 139.385L242.393 138.184L246.915 137.214L251.303 136.476L255.553 135.973L259.656 135.703L263.601 135.667L267.385 135.869L270.999 136.306L274.431 136.982L277.676 137.894L280.73 139.044L283.586 140.429L286.236 142.042L288.679 143.885L290.905 145.956L292.913 148.248L294.695 150.763L296.247 153.494L297.564 156.437L298.645 159.586L299.49 162.935L300.093 166.48L300.454 170.21L300.573 174.123L300.444 178.211ZM283.271 191.625L282.934 195.271L282.388 199.054L281.634 202.965L280.673 206.993L279.507 211.137L278.136 215.384L276.564 219.726L274.79 224.156L272.82 228.667L270.654 233.248L268.3 237.891L265.764 242.587L263.048 247.324L260.157 252.096L257.098 256.891L253.876 261.7L251.125 265.621L250.496 266.515L246.966 271.324L243.291 276.119L239.482 280.891L235.545 285.626L231.49 290.321L227.321 294.96L223.048 299.538L218.68 304.045L214.224 308.468L209.693 312.804L205.091 317.041L200.432 321.171L195.724 325.186L190.974 329.078L186.197 332.838L181.397 336.459L177.59 339.209L177.56 339.232L176.586 339.934L171.775 343.255L166.971 346.419L162.186 349.418L157.427 352.246L152.708 354.898L148.034 357.366L143.416 359.648L138.862 361.737L134.384 363.635L129.986 365.333L125.679 366.834L121.474 368.131L117.374 369.222L113.391 370.105L109.53 370.779L105.801 371.241L102.21 371.496L98.7614 371.539L95.4619 371.377L92.3214 371.006L89.34 370.426L86.5257 369.643L83.8887 368.652L81.429 367.461L79.1482 366.072L77.0529 364.487L75.1464 362.713L73.4304 360.751L71.9082 358.606L70.5847 356.279L69.4617 353.781L68.5408 351.111L67.8203 348.277L67.3018 345.288L66.9855 342.145L66.8727 338.859L66.9623 335.434L67.2554 331.877L67.749 328.194L68.4447 324.391L69.3391 320.475L70.4274 316.458L71.7094 312.347L73.1819 308.145L74.8417 303.865L76.6869 299.512L78.7142 295.093L80.9172 290.617L83.2941 286.094L85.8384 281.532L88.5448 276.937L91.4087 272.321L94.4234 267.689L97.587 263.052L100.893 258.414L104.334 253.787L107.903 249.181L111.597 244.599L115.401 240.053L119.317 235.551L123.332 231.098L127.443 226.706L131.642 222.381L135.921 218.132L140.27 213.965L144.685 209.885L149.155 205.905L153.672 202.027L158.229 198.262L162.819 194.613L167.432 191.09L172.06 187.701L176.697 184.448L181.332 181.337L185.957 178.376L190.565 175.57L195.144 172.921L199.691 170.438L204.195 168.128L208.647 165.991L213.04 164.033L217.365 162.256L221.615 160.666L225.783 159.261L229.859 158.05L233.836 157.035L237.707 156.218L241.462 155.601L245.096 155.183L248.603 154.966L251.975 154.953L255.208 155.142L258.292 155.533L261.222 156.127L263.992 156.926L266.592 157.926L269.026 159.127L271.283 160.527L273.36 162.12L275.254 163.907L276.956 165.885L278.467 168.052L279.779 170.404L280.892 172.935L281.801 175.643L282.509 178.52L283.01 181.563L283.307 184.765L283.393 188.12L283.271 191.625ZM269.377 207.339L269.089 210.397L268.623 213.566L267.984 216.839L267.174 220.213L266.193 223.678L265.041 227.229L263.722 230.86L262.235 234.564L260.583 238.332L258.771 242.158L256.803 246.037L254.682 249.958L252.411 253.912L251.185 255.936L249.996 257.894L247.442 261.895L244.752 265.907L241.931 269.924L238.984 273.934L235.92 277.932L232.743 281.911L229.458 285.862L226.076 289.774L222.599 293.645L219.038 297.461L215.396 301.216L211.68 304.905L207.902 308.521L204.066 312.052L200.18 315.498L196.254 318.847L192.296 322.093L188.31 325.23L184.307 328.25L180.297 331.15L176.282 333.923L172.273 336.563L168.28 339.07L167.924 339.28L167.905 339.291L167.897 339.296L164.31 341.433L160.369 343.648L156.465 345.713L152.609 347.621L148.804 349.372L145.062 350.961L141.387 352.387L137.786 353.646L134.266 354.734L130.836 355.653L127.502 356.4L124.27 356.972L121.144 357.367L118.135 357.588L115.244 357.636L112.476 357.508L109.838 357.209L107.333 356.735L104.971 356.089L102.752 355.27L100.68 354.285L98.7584 353.132L96.9925 351.817L95.3826 350.34L93.9316 348.71L92.6447 346.922L91.5199 344.986L90.5642 342.901L89.7791 340.675L89.1596 338.309L88.7107 335.813L88.4324 333.189L88.3231 330.443L88.3844 327.579L88.6129 324.604L89.0155 321.522L89.5836 318.34L90.3207 315.062L91.2201 311.698L92.2835 308.253L93.506 304.734L94.8873 301.147L96.4228 297.498L98.1139 293.792L99.9541 290.041L101.939 286.248L104.064 282.42L106.328 278.565L108.725 274.691L111.247 270.804L113.898 266.911L116.665 263.02L119.551 259.138L122.544 255.27L125.638 251.424L128.83 247.609L132.114 243.828L135.484 240.091L138.932 236.404L142.455 232.775L146.046 229.207L149.699 225.71L153.402 222.288L157.156 218.949L160.947 215.697L164.773 212.537L168.626 209.479L172.499 206.528L176.383 203.687L180.274 200.962L184.163 198.358L188.045 195.88L191.911 193.532L195.754 191.315L199.567 189.242L203.344 187.314L207.077 185.531L210.759 183.9L214.385 182.421L217.946 181.096L221.436 179.931L224.852 178.927L228.181 178.089L231.419 177.418L234.563 176.915L237.603 176.579L240.536 176.411L243.355 176.415L246.057 176.585L248.633 176.928L251.077 177.442L253.388 178.126L255.559 178.979L257.587 179.999L259.465 181.185L261.196 182.535L262.771 184.044L264.186 185.714L265.438 187.539L266.528 189.52L267.449 191.65L268.199 193.928L268.781 196.344L269.19 198.9L269.427 201.588L269.49 204.401L269.377 207.339Z" stroke="url(#paint0_angular_1_357)" stroke-width="2" stroke-miterlimit="10" stroke-linecap="round" stroke-linejoin="round"/>
<defs>
<radialGradient id="paint0_angular_1_357" cx="0" cy="0" r="1" gradientUnits="userSpaceOnUse" gradientTransform="translate(263.84 351.892) rotate(90) scale(262.718 262.667)">
<stop offset="0.0993526" stop-color="#FFC876"/>
<stop offset="0.427081" stop-color="#79FFF7"/>
<stop offset="0.718753" stop-color="#9F53FF"/>
<stop offset="1" stop-color="#FF98E2"/>
</radialGradient>
</defs>
</svg>
