<svg width="952" height="396" viewBox="0 0 952 396" fill="none" xmlns="http://www.w3.org/2000/svg">
<path d="M540.286 114.327L539.358 113.537L538.414 112.763L537.453 112.004L536.477 111.263L535.487 110.538L534.482 109.831L533.464 109.141L532.433 108.469L531.389 107.815L530.333 107.181L529.267 106.566L528.189 105.969L527.101 105.393L526.005 104.837L524.899 104.302L523.785 103.787L522.663 103.293L521.535 102.821L520.4 102.37L519.259 101.941L518.114 101.535L516.964 101.15L515.81 100.788L514.653 100.449L513.494 100.133L512.333 99.8411L511.171 99.5719L510.008 99.3263L508.846 99.1042L507.684 98.9063L506.524 98.732L505.366 98.5819L504.211 98.4558L503.059 98.3544L501.912 98.2772L500.769 98.2247L499.632 98.1968L498.501 98.193L497.376 98.2139L496.259 98.2595L495.15 98.3298L494.05 98.4242L492.959 98.5438L491.879 98.6875L490.809 98.8559L489.749 99.0484L488.702 99.2651L487.668 99.5059L486.646 99.7714L485.639 100.06L484.646 100.374L483.667 100.711L482.704 101.071L481.758 101.454L480.827 101.861L479.914 102.29L479.019 102.743L478.143 103.218L477.285 103.716L476.446 104.235L475.628 104.775L474.831 105.338L474.053 105.921L473.298 106.526L472.564 107.151L471.853 107.796L471.165 108.46L470.5 109.145L469.859 109.848L469.242 110.57L468.649 111.31L468.082 112.069L467.54 112.844L467.023 113.637L466.533 114.446L466.07 115.272L465.633 116.113L465.222 116.969L464.84 117.84L464.485 118.724L464.158 119.622L463.858 120.534L463.588 121.458L463.346 122.394L463.132 123.342L462.948 124.301L462.793 125.269L462.667 126.247L462.57 127.235L462.503 128.232L462.465 129.236L462.457 130.247L462.479 131.266L462.53 132.29L462.611 133.32L462.721 134.355L462.862 135.394L463.032 136.436L463.231 137.482L463.461 138.53L463.72 139.579L464.007 140.629L464.324 141.68L464.669 142.73L465.044 143.779L465.447 144.827L465.879 145.872L466.338 146.914L466.825 147.953L467.34 148.987L467.882 150.016L468.452 151.04L469.047 152.057L469.67 153.067L470.317 154.07L470.991 155.064L471.689 156.05L472.413 157.026L473.16 157.992L473.931 158.947L474.726 159.89L475.543 160.822L476.383 161.741L477.244 162.647L478.127 163.539L479.03 164.416L479.953 165.279L480.896 166.126L481.858 166.957L482.838 167.772L483.836 168.569L484.851 169.349L485.882 170.11L486.929 170.853L487.991 171.577L489.067 172.281L490.158 172.965L491.261 173.629L492.376 174.271L493.503 174.892L494.641 175.492L495.789 176.069L496.947 176.625L498.113 177.157L499.286 177.666L500.468 178.151L501.655 178.613L502.848 179.05L504.046 179.463L505.247 179.852L506.453 180.216L507.66 180.555L508.87 180.868L510.08 181.156L511.291 181.418L512.501 181.655L513.709 181.866L514.916 182.05L516.119 182.209L517.319 182.341L518.514 182.447L519.705 182.527L520.889 182.58L522.067 182.607L523.237 182.608L524.399 182.582L525.553 182.53L526.696 182.452L527.829 182.348L528.952 182.218L530.062 182.061L531.16 181.879L532.245 181.672L533.316 181.439L534.373 181.18L535.415 180.897L536.441 180.589L537.451 180.255L538.444 179.898L539.42 179.516L540.377 179.11L541.316 178.681L542.235 178.229L543.135 177.753L544.014 177.255L544.873 176.735L545.71 176.192L546.526 175.628L547.319 175.042L548.09 174.436L548.837 173.809L549.561 173.163L550.261 172.497L550.937 171.811L551.587 171.107L552.213 170.385L552.814 169.645L553.388 168.887L553.937 168.113L554.459 167.323L554.955 166.517L555.423 165.695L555.865 164.858L556.279 164.008L556.666 163.144L557.025 162.266L557.356 161.376L557.659 160.474L557.934 159.56L558.181 158.635L558.398 157.7L558.588 156.756L558.749 155.801L558.882 154.839L558.986 153.867L559.061 152.889L559.108 151.904L559.126 150.912L559.115 149.915L559.076 148.913L559.008 147.906L558.912 146.895L558.788 145.881L558.635 144.864L558.454 143.844L558.246 142.823L558.009 141.802L557.745 140.78L557.453 139.758L557.135 138.737L556.789 137.717L556.417 136.699L556.018 135.684L555.592 134.672L555.141 133.664L554.665 132.66L554.162 131.66L553.635 130.667L553.083 129.679L552.506 128.698L551.906 127.724L551.281 126.758L550.634 125.8L549.964 124.85L549.27 123.91L548.555 122.98L547.818 122.06L547.061 121.15L546.282 120.252L545.482 119.366L544.663 118.493L543.824 117.632L542.967 116.785L542.091 115.951L541.198 115.131L540.286 114.327Z" fill="#0E0C15"/>
<path d="M528.847 121.358L529.372 121.772L529.91 122.172L530.436 122.577L530.923 123.006L531.355 123.472L531.751 123.964L532.14 124.467L532.55 124.963L532.998 125.44L533.463 125.908L533.914 126.378L534.319 126.863L534.658 127.372L534.953 127.899L535.237 128.435L535.546 128.968L535.899 129.493L536.274 130.01L536.632 130.528L536.94 131.051L537.172 131.585L537.355 132.128L537.525 132.676L537.721 133.227L537.966 133.778L538.235 134.327L538.488 134.874L538.686 135.416L538.803 135.954L538.866 136.491L538.914 137.031L538.988 137.58L539.116 138.137L539.269 138.697L539.406 139.252L539.486 139.793L539.482 140.315L539.422 140.826L539.347 141.339L539.297 141.862L539.301 142.405L539.331 142.956L539.346 143.498L539.305 144.018L539.18 144.504L538.999 144.969L538.802 145.433L538.629 145.912L538.508 146.42L538.413 146.94L538.305 147.45L538.144 147.928L537.902 148.359L537.605 148.761L537.293 149.157L537.003 149.574L536.762 150.026L536.545 150.496L536.316 150.954L536.039 151.372L535.689 151.731L535.288 152.052L534.872 152.366L534.475 152.703L534.121 153.083L533.79 153.484L533.449 153.871L533.066 154.212L532.62 154.485L532.13 154.713L531.626 154.932L531.138 155.175L530.685 155.468L530.25 155.784L529.809 156.086L529.335 156.336L528.81 156.512L528.25 156.637L527.677 156.75L527.115 156.89L526.579 157.083L526.058 157.301L525.534 157.505L524.986 157.656L524.403 157.725L523.794 157.741L523.174 157.745L522.56 157.775L521.962 157.86L521.375 157.973L520.787 158.071L520.188 158.114L519.568 158.075L518.934 157.981L518.292 157.873L517.65 157.792L517.014 157.766L516.384 157.767L515.754 157.755L515.126 157.689L514.495 157.542L513.861 157.341L513.222 157.126L512.578 156.936L511.929 156.799L511.279 156.689L510.634 156.567L510.002 156.394L509.385 156.145L508.776 155.844L508.166 155.529L507.545 155.238L506.908 154.995L506.264 154.778L505.629 154.551L505.018 154.279L504.439 153.937L503.88 153.548L503.323 153.146L502.751 152.764L502.151 152.425L501.539 152.111L500.939 151.788L500.373 151.426L499.855 151.005L499.369 150.543L498.887 150.069L498.386 149.612L497.847 149.192L497.292 148.791L496.75 148.385L496.252 147.949L495.816 147.466L495.421 146.95L495.034 146.423L494.623 145.909L494.167 145.423L493.69 144.953L493.228 144.481L492.817 143.988L492.48 143.461L492.193 142.911L491.916 142.352L491.612 141.801L491.256 141.269L490.876 140.75L490.511 140.231L490.204 139.7L489.979 139.151L489.809 138.588L489.653 138.019L489.468 137.453L489.225 136.897L488.956 136.348L488.703 135.803L488.51 135.257L488.406 134.706L488.361 134.153L488.331 133.596L488.271 133.038L488.152 132.479L488.004 131.923L487.871 131.373L487.8 130.832L487.82 130.303L487.901 129.78L487.998 129.257L488.064 128.728L488.072 128.188L488.049 127.647L488.042 127.114L488.094 126.599L488.237 126.111L488.44 125.639L488.658 125.17L488.849 124.69L488.982 124.191L489.085 123.685L489.202 123.189L489.375 122.722L489.634 122.293L489.95 121.889L490.282 121.491L490.589 121.079L490.841 120.639L491.065 120.188L491.301 119.75L491.587 119.347L491.951 118.993L492.369 118.673L492.8 118.36L493.21 118.03L493.571 117.666L493.906 117.288L494.251 116.923L494.639 116.599L495.094 116.334L495.595 116.108L496.11 115.892L496.606 115.656L497.062 115.382L497.495 115.09L497.935 114.812L498.409 114.579L498.937 114.412L499.503 114.288L500.08 114.176L500.645 114.043L501.177 113.868L501.691 113.673L502.208 113.492L502.75 113.359L503.331 113.295L503.94 113.278L504.559 113.273L505.169 113.247L505.757 113.177L506.332 113.087L506.907 113.009L507.496 112.98L508.108 113.021L508.737 113.11L509.374 113.212L510.007 113.294L510.629 113.331L511.243 113.348L511.854 113.376L512.467 113.452L513.087 113.596L513.714 113.787L514.344 113.992L514.977 114.178L515.61 114.321L516.239 114.444L516.863 114.578L517.478 114.755L518.084 114.996L518.684 115.282L519.285 115.581L519.894 115.863L520.513 116.107L521.135 116.332L521.748 116.565L522.343 116.837L522.911 117.167L523.462 117.537L524.012 117.919L524.575 118.287L525.158 118.622L525.749 118.94L526.33 119.265L526.88 119.622L527.39 120.028L527.873 120.467L528.352 120.918L528.847 121.358Z" fill="#0E0C15"/>
<path d="M548.699 110.322L547.371 109.195L546.021 108.089L544.648 107.008L543.253 105.949L541.838 104.914L540.402 103.904L538.948 102.919L537.475 101.96L535.984 101.027L534.476 100.12L532.953 99.2411L531.414 98.3894L529.861 97.5662L528.294 96.7713L526.715 96.006L525.124 95.2696L523.522 94.5633L521.91 93.8875L520.289 93.2418L518.659 92.6277L517.022 92.0447L515.379 91.4939L513.73 90.9748L512.076 90.4878L510.419 90.0335L508.759 89.6125L507.097 89.2248L505.433 88.8703L503.769 88.549L502.107 88.2621L500.446 88.0089L498.787 87.7901L497.132 87.6061L495.482 87.4565L493.837 87.3412L492.198 87.2613L490.567 87.2157L488.943 87.205L487.329 87.2296L485.725 87.2892L484.131 87.3841L482.55 87.5139L480.981 87.6785L479.426 87.8786L477.885 88.1135L476.36 88.3827L474.851 88.6874L473.359 89.0263L471.886 89.4001L470.431 89.8083L468.996 90.2507L467.582 90.7275L466.189 91.2376L464.82 91.7814L463.472 92.359L462.149 92.9693L460.851 93.6124L459.579 94.2882L458.333 94.9966L457.114 95.7362L455.924 96.508L454.761 97.3103L453.629 98.1438L452.527 99.0073L451.456 99.9008L450.416 100.823L449.409 101.775L448.434 102.756L447.494 103.763L446.588 104.799L445.716 105.861L444.881 106.95L444.081 108.064L443.318 109.203L442.593 110.367L441.905 111.554L441.255 112.765L440.644 113.998L440.073 115.252L439.541 116.528L439.049 117.824L438.597 119.14L438.187 120.474L437.817 121.827L437.49 123.196L437.203 124.582L436.959 125.984L436.758 127.4L436.598 128.83L436.482 130.273L436.409 131.728L436.378 133.195L436.391 134.672L436.447 136.159L436.546 137.653L436.688 139.156L436.875 140.665L437.104 142.181L437.377 143.7L437.692 145.224L438.051 146.751L438.452 148.28L438.896 149.809L439.383 151.338L439.912 152.867L440.483 154.393L441.096 155.916L441.75 157.436L442.445 158.95L443.181 160.459L443.957 161.96L444.772 163.454L445.628 164.939L446.521 166.413L447.453 167.877L448.424 169.329L449.431 170.768L450.474 172.194L451.554 173.605L452.668 175L453.817 176.378L455 177.739L456.216 179.082L457.464 180.405L458.744 181.708L460.054 182.99L461.394 184.25L462.763 185.487L464.16 186.701L465.585 187.89L467.036 189.054L468.511 190.192L470.012 191.303L471.535 192.387L473.081 193.442L474.648 194.469L476.235 195.466L477.842 196.432L479.467 197.368L481.109 198.272L482.766 199.144L484.439 199.983L486.126 200.789L487.825 201.561L489.536 202.299L491.258 203.003L492.988 203.67L494.726 204.303L496.472 204.899L498.223 205.459L499.98 205.982L501.739 206.468L503.501 206.917L505.264 207.328L507.027 207.701L508.789 208.036L510.548 208.334L512.304 208.592L514.056 208.813L515.802 208.994L517.541 209.137L519.272 209.241L520.994 209.306L522.705 209.333L524.405 209.32L526.094 209.269L527.768 209.18L529.428 209.053L531.072 208.887L532.7 208.683L534.31 208.441L535.901 208.161L537.473 207.844L539.024 207.489L540.554 207.098L542.061 206.67L543.545 206.207L545.004 205.707L546.438 205.171L547.846 204.601L549.227 203.996L550.581 203.357L551.906 202.684L553.202 201.978L554.468 201.239L555.703 200.468L556.906 199.666L558.078 198.832L559.216 197.968L560.322 197.075L561.393 196.152L562.43 195.2L563.431 194.22L564.397 193.214L565.327 192.18L566.219 191.121L567.075 190.036L567.893 188.927L568.673 187.795L569.415 186.639L570.118 185.461L570.782 184.262L571.406 183.042L571.991 181.801L572.536 180.543L573.041 179.265L573.506 177.97L573.93 176.658L574.313 175.331L574.655 173.988L574.956 172.631L575.216 171.26L575.436 169.877L575.614 168.483L575.751 167.077L575.847 165.662L575.902 164.237L575.916 162.804L575.888 161.363L575.82 159.915L575.711 158.462L575.562 157.004L575.373 155.542L575.142 154.076L574.873 152.608L574.563 151.139L574.213 149.669L573.825 148.198L573.397 146.729L572.931 145.262L572.426 143.797L571.884 142.336L571.304 140.878L570.687 139.426L570.032 137.98L569.342 136.541L568.616 135.108L567.854 133.685L567.057 132.27L566.226 130.865L565.361 129.47L564.462 128.087L563.531 126.716L562.567 125.358L561.571 124.014L560.544 122.684L559.487 121.368L558.399 120.069L557.282 118.786L556.137 117.52L554.963 116.272L553.762 115.042L552.534 113.832L551.28 112.642L550.002 111.471L548.699 110.322Z" fill="#0E0C15"/>
<path d="M553.853 110.18L552.191 108.769L550.5 107.386L548.781 106.033L547.036 104.708L545.265 103.414L543.469 102.15L541.648 100.918L539.806 99.7173L537.94 98.5503L536.054 97.416L534.148 96.3165L532.223 95.2509L530.28 94.2206L528.32 93.2262L526.344 92.2678L524.353 91.3459L522.348 90.4615L520.331 89.6152L518.302 88.807L516.263 88.0373L514.213 87.3063L512.156 86.6156L510.091 85.9639L508.02 85.3531L505.944 84.783L503.864 84.2541L501.781 83.7661L499.696 83.3204L497.611 82.916L495.526 82.554L493.443 82.2344L491.362 81.9576L489.285 81.7238L487.213 81.5334L485.148 81.3859L483.09 81.2818L481.04 81.2218L479 81.2051L476.97 81.232L474.952 81.3028L472.947 81.4175L470.956 81.5763L468.981 81.779L467.021 82.0252L465.079 82.3159L463.156 82.65L461.252 83.0276L459.37 83.4486L457.509 83.9136L455.671 84.4215L453.857 84.9728L452.069 85.567L450.306 86.2037L448.571 86.8826L446.864 87.604L445.187 88.3672L443.54 89.1717L441.925 90.0174L440.342 90.904L438.793 91.8307L437.278 92.7977L435.798 93.8039L434.355 94.8492L432.949 95.9331L431.582 97.055L430.254 98.214L428.966 99.4106L427.719 100.643L426.514 101.911L425.351 103.214L424.232 104.552L423.157 105.923L422.128 107.327L421.144 108.763L420.206 110.23L419.317 111.729L418.475 113.257L417.681 114.813L416.937 116.399L416.241 118.01L415.597 119.649L415.004 121.312L414.462 123.001L413.973 124.713L413.535 126.447L413.151 128.202L412.819 129.978L412.541 131.773L412.317 133.586L412.147 135.416L412.032 137.263L411.971 139.125L411.965 141L412.015 142.888L412.119 144.788L412.278 146.697L412.493 148.616L412.762 150.543L413.088 152.476L413.468 154.415L413.904 156.358L414.394 158.303L414.939 160.251L415.538 162.199L416.191 164.146L416.898 166.091L417.66 168.033L418.474 169.969L419.341 171.9L420.26 173.824L421.23 175.739L422.253 177.644L423.325 179.539L424.448 181.42L425.62 183.288L426.841 185.141L428.109 186.978L429.425 188.798L430.787 190.599L432.194 192.379L433.646 194.139L435.142 195.876L436.681 197.59L438.261 199.279L439.882 200.942L441.542 202.578L443.241 204.186L444.978 205.765L446.751 207.313L448.559 208.83L450.401 210.314L452.276 211.765L454.182 213.181L456.119 214.562L458.084 215.907L460.077 217.214L462.095 218.483L464.139 219.713L466.206 220.902L468.296 222.052L470.406 223.159L472.535 224.224L474.682 225.247L476.845 226.226L479.023 227.16L481.214 228.05L483.417 228.893L485.631 229.691L487.853 230.443L490.083 231.148L492.318 231.805L494.558 232.414L496.801 232.975L499.044 233.488L501.288 233.952L503.53 234.366L505.768 234.731L508.002 235.048L510.23 235.314L512.45 235.531L514.661 235.698L516.861 235.815L519.049 235.883L521.224 235.9L523.384 235.868L525.528 235.787L527.654 235.656L529.76 235.476L531.847 235.247L533.911 234.969L535.953 234.643L537.97 234.268L539.962 233.846L541.927 233.377L543.864 232.861L545.772 232.298L547.649 231.688L549.494 231.034L551.307 230.334L553.087 229.59L554.832 228.802L556.54 227.97L558.213 227.097L559.847 226.181L561.443 225.224L562.999 224.226L564.514 223.189L565.989 222.113L567.421 220.998L568.811 219.846L570.157 218.658L571.459 217.434L572.715 216.175L573.926 214.881L575.091 213.555L576.208 212.196L577.278 210.807L578.301 209.386L579.276 207.937L580.201 206.459L581.077 204.954L581.904 203.422L582.68 201.864L583.406 200.282L584.081 198.678L584.706 197.05L585.28 195.401L585.803 193.732L586.274 192.043L586.693 190.337L587.061 188.613L587.377 186.873L587.642 185.118L587.855 183.349L588.015 181.567L588.125 179.773L588.183 177.969L588.189 176.155L588.144 174.332L588.047 172.501L587.9 170.665L587.702 168.822L587.453 166.976L587.154 165.125L586.805 163.274L586.407 161.42L585.959 159.566L585.462 157.713L584.917 155.863L584.323 154.014L583.682 152.171L582.993 150.332L582.259 148.498L581.477 146.673L580.65 144.855L579.777 143.046L578.86 141.246L577.899 139.458L576.895 137.682L575.848 135.918L574.759 134.168L573.628 132.433L572.456 130.714L571.244 129.011L569.993 127.326L568.703 125.658L567.376 124.01L566.011 122.382L564.61 120.775L563.173 119.19L561.701 117.627L560.196 116.087L558.658 114.572L557.087 113.082L555.485 111.618L553.853 110.18Z" fill="#0E0C15"/>
<path d="M556.326 112.23L554.623 110.73L552.889 109.257L552.565 108.984L550.837 107.571L549.08 106.187L547.296 104.833L545.486 103.511L543.65 102.219L541.79 100.959L539.906 99.7329L538 98.5401L536.072 97.3811L534.124 96.257L532.156 95.1682L530.171 94.1154L528.167 93.0991L526.148 92.1192L524.113 91.1775L522.065 90.2732L520.003 89.4081L517.929 88.5817L517.53 88.4293L515.402 87.6265L513.264 86.8638L511.117 86.143L508.962 85.463L506.801 84.8253L504.634 84.2305L502.463 83.6781L501.74 83.5032L499.522 82.9841L497.303 82.5094L495.082 82.0788L492.862 81.6932L490.644 81.3526L489.695 81.2126L487.437 80.9117L485.183 80.6575L482.934 80.4505L479.574 80.2097L477.299 80.0938L475.032 80.0268L472.776 80.0075L471.541 80L469.258 80.0295L466.987 80.1083L465.684 80.1791L463.39 80.3095L461.112 80.4897L458.85 80.7197L457.45 80.8758L455.172 81.1606L452.913 81.4958L451.461 81.7366L449.189 82.1281L446.94 82.5717L445.444 82.8983L443.187 83.3997L440.956 83.9532L439.421 84.3672L437.187 84.9808L434.982 85.6458L433.418 86.1484L431.214 86.8746L429.041 87.6533L427.455 88.2443L425.29 89.0847L423.157 89.9772L421.557 90.6567L419.437 91.6119L417.85 92.3686L415.745 93.3866L413.679 94.4571L412.091 95.3002L410.045 96.4334L408.48 97.3516L406.457 98.5471L404.476 99.7951L402.923 100.796L400.97 102.106L399.449 103.178L397.527 104.549L395.652 105.972L394.154 107.122L392.314 108.605L390.856 109.821L389.055 111.364L387.642 112.642L385.882 114.245L384.175 115.896L382.799 117.244L381.138 118.952L379.813 120.357L378.2 122.121L376.93 123.58L375.366 125.398L373.861 127.263L372.643 128.78L371.193 130.697L370.035 132.26L368.641 134.226L367.546 135.834L366.211 137.848L365.181 139.495L363.907 141.555L362.696 143.657L361.732 145.343L360.585 147.487L359.691 149.204L358.609 151.388L357.787 153.133L356.772 155.354L356.023 157.123L355.077 159.38L354.199 161.671L353.525 163.457L352.717 165.779L352.119 167.579L351.382 169.929L350.862 171.739L350.197 174.113L349.602 176.517L349.161 178.326L348.639 180.749L348.276 182.559L347.827 184.998L347.542 186.804L347.167 189.258L346.864 191.734L346.659 193.519L346.429 196.004L346.302 197.774L346.146 200.265L346.061 202.773L346.013 204.509L346 207.017L346.028 208.728L346.087 211.233L346.218 213.751L346.32 215.414L346.521 217.923L346.967 222.048L347.307 224.554L347.553 226.121L347.96 228.608L348.436 231.101L348.747 232.598L349.288 235.068L349.896 237.539L350.268 238.961L350.938 241.405L351.675 243.847L352.103 245.184L352.898 247.594L353.759 249.998L354.237 251.246L355.152 253.614L356.131 255.973L357.173 258.322L357.681 259.443L358.771 261.749L359.923 264.042L361.661 267.306L362.916 269.536L364.23 271.749L365.602 273.943L366.132 274.786L367.539 276.926L369.001 279.045L370.517 281.14L371.038 281.837L372.583 283.874L374.179 285.885L375.825 287.869L377.522 289.825L379.266 291.751L379.707 292.231L381.468 294.093L383.274 295.923L385.125 297.721L387.018 299.483L388.953 301.209L390.928 302.899L392.943 304.55L393.201 304.755L395.215 306.339L397.266 307.882L399.351 309.384L401.468 310.844L403.617 312.262L405.796 313.636L408.002 314.965L410.236 316.248L412.495 317.484L414.778 318.673L417.083 319.814L419.409 320.906L421.754 321.948L424.116 322.939L424.424 323.067L426.846 324.024L429.281 324.929L431.73 325.781L434.189 326.579L436.658 327.323L439.135 328.012L441.617 328.646L442.254 328.799L444.783 329.388L447.316 329.92L449.849 330.394L452.381 330.811L454.911 331.17L455.776 331.289L458.342 331.596L460.903 331.844L463.455 332.034L464.452 332.088L467.034 332.22L469.605 332.293L472.163 332.306L473.281 332.288L475.86 332.24L478.422 332.133L480.966 331.965L482.194 331.865L484.752 331.635L487.287 331.344L489.799 330.993L491.124 330.806L493.642 330.389L496.132 329.913L497.51 329.638L500.001 329.096L502.46 328.494L503.884 328.13L506.338 327.462L508.757 326.734L510.219 326.28L512.626 325.485L514.996 324.632L516.486 324.088L518.839 323.168L520.329 322.541L522.66 321.555L524.948 320.511L526.453 319.795L528.715 318.686L530.93 317.521L532.441 316.716L534.626 315.487L536.12 314.603L538.269 313.311L540.368 311.965L541.855 310.996L543.913 309.588L545.374 308.545L547.389 307.077L549.349 305.557L550.79 304.433L552.703 302.856L554.109 301.662L555.972 300.03L557.34 298.767L559.15 297.081L560.9 295.347L562.231 294.015L563.925 292.23L565.21 290.836L566.845 289.003L568.08 287.549L569.654 285.669L571.164 283.747L572.348 282.235L573.795 280.27L574.923 278.705L576.305 276.701L577.374 275.087L578.689 273.044L579.697 271.386L580.944 269.307L582.124 267.194L583.066 265.496L584.177 263.352L585.052 261.617L586.092 259.444L586.899 257.675L587.868 255.477L588.604 253.678L589.503 251.458L590.332 249.21L590.993 247.393L591.75 245.127L592.338 243.29L593.024 241.008L593.536 239.154L594.15 236.86L594.695 234.545L595.129 232.691L595.602 230.367L595.959 228.506L596.362 226.178L596.643 224.312L596.976 221.983L597.241 219.637L597.442 217.79L597.639 215.447L597.762 213.606L597.891 211.269L597.954 208.92L598 207.109L597.996 204.77L597.966 202.975L597.898 200.649L597.766 198.315L597.661 196.563L597.466 194.246L597.286 192.519L597.031 190.222L596.715 187.921L596.465 186.249L596.091 183.972L595.656 181.693L595.339 180.084L594.851 177.832L594.303 175.582L593.923 174.041L593.324 171.822L592.667 169.605L592.23 168.14L591.526 165.958L590.767 163.782L590.275 162.398L589.473 160.259L588.617 158.129L588.077 156.831L587.18 154.742L586.233 152.662L584.666 149.421L583.634 147.397L582.551 145.385L581.95 144.311L580.838 142.347L579.68 140.398L578.475 138.464L576.638 135.644L575.366 133.777L574.05 131.929L572.692 130.1L572.112 129.34L570.739 127.565L569.325 125.81L567.872 124.077L566.38 122.366L564.851 120.679L564.35 120.132L562.814 118.501L561.243 116.895L559.637 115.314L557.998 113.758L556.326 112.23Z" fill="#0E0C15"/>
<path d="M452.913 81.4958L450.675 81.882L448.458 82.3191L446.266 82.8066L444.097 83.3445L441.955 83.9329L439.84 84.5711L437.753 85.2597L435.696 85.9977L433.67 86.7845L431.675 87.6211L429.714 88.5061L427.788 89.4393L425.898 90.4207L424.044 91.4499L422.229 92.5263L420.453 93.6494L418.718 94.8186L417.023 96.0333L415.372 97.2932L413.764 98.5975L412.202 99.9458L410.685 101.338L409.216 102.772L407.794 104.248L406.422 105.765L405.099 107.323L403.827 108.92L402.608 110.556L401.441 112.23L400.328 113.941L399.27 115.688L398.267 117.471L397.32 119.288L396.43 121.137L395.598 123.02L394.824 124.933L394.11 126.877L393.455 128.849L392.861 130.85L392.327 132.877L391.856 134.929L391.446 137.007L391.098 139.107L390.813 141.229L390.592 143.372L390.434 145.534L390.341 147.714L390.311 149.911L390.346 152.123L390.446 154.349L390.609 156.587L390.838 158.837L391.132 161.096L391.491 163.364L391.914 165.638L392.403 167.918L392.955 170.201L393.572 172.486L394.253 174.773L394.998 177.06L395.807 179.343L396.68 181.623L397.615 183.898L398.612 186.166L399.67 188.426L400.79 190.676L401.97 192.915L403.21 195.141L404.511 197.352L405.868 199.548L407.284 201.725L408.757 203.884L410.285 206.023L411.868 208.139L413.506 210.232L415.196 212.301L416.938 214.343L418.731 216.356L420.573 218.341L422.464 220.295L424.402 222.217L426.385 224.106L428.413 225.961L430.484 227.779L432.597 229.56L434.75 231.302L436.943 233.005L439.173 234.666L441.438 236.286L443.738 237.863L446.071 239.395L448.434 240.882L450.827 242.322L453.249 243.715L455.696 245.059L458.167 246.354L460.662 247.599L463.178 248.793L465.712 249.935L468.265 251.024L470.833 252.06L473.414 253.042L476.009 253.97L478.613 254.842L481.227 255.658L483.847 256.419L486.472 257.122L489.1 257.768L491.73 258.357L494.359 258.887L496.986 259.36L499.608 259.774L502.226 260.13L504.835 260.427L507.435 260.666L510.025 260.845L512.601 260.966L515.163 261.027L517.709 261.03L520.237 260.975L522.745 260.86L525.232 260.688L527.696 260.458L530.137 260.17L532.551 259.825L534.937 259.422L537.294 258.963L539.622 258.448L541.917 257.877L544.179 257.251L546.406 256.571L548.597 255.837L550.751 255.049L552.866 254.208L554.94 253.316L556.974 252.372L558.966 251.378L560.914 250.334L562.817 249.242L564.675 248.101L566.486 246.914L568.249 245.68L569.963 244.401L571.628 243.077L573.242 241.71L574.806 240.301L576.317 238.851L577.774 237.36L579.179 235.83L580.529 234.262L581.824 232.657L583.063 231.016L584.246 229.34L585.373 227.63L586.443 225.888L587.454 224.115L588.409 222.312L589.304 220.479L590.14 218.619L590.918 216.732L591.636 214.82L592.295 212.884L592.894 210.925L593.434 208.944L593.913 206.943L594.332 204.923L594.691 202.885L594.99 200.829L595.229 198.759L595.408 196.674L595.527 194.577L595.586 192.468L595.586 190.348L595.526 188.219L595.406 186.082L595.228 183.938L594.991 181.789L594.696 179.635L594.342 177.479L593.931 175.32L593.462 173.161L592.937 171.002L592.355 168.846L591.717 166.691L591.024 164.542L590.275 162.398" fill="#0E0C15"/>
<path d="M410.046 96.4335L408.04 97.6187L406.077 98.8555L404.157 100.143L402.283 101.481L400.455 102.868L398.674 104.306L396.943 105.791L395.261 107.324L393.63 108.905L392.052 110.531L390.526 112.203L389.055 113.921L387.64 115.681L386.281 117.485L384.98 119.331L383.738 121.218L382.555 123.145L381.433 125.112L380.372 127.116L379.374 129.157L378.438 131.234L377.567 133.346L376.761 135.492L376.02 137.669L375.345 139.878L374.738 142.117L374.198 144.384L373.725 146.678L373.322 148.998L372.987 151.343L372.723 153.711L372.528 156.1L372.405 158.51L372.351 160.938L372.369 163.384L372.458 165.845L372.618 168.32L372.85 170.808L373.154 173.308L373.53 175.815L373.977 178.332L374.496 180.854L375.086 183.38L375.747 185.91L376.48 188.44L377.284 190.97L378.158 193.498L379.102 196.022L380.116 198.54L381.199 201.051L382.351 203.552L383.57 206.044L384.857 208.522L386.21 210.986L387.63 213.434L389.114 215.864L390.663 218.275L392.275 220.665L393.949 223.033L395.684 225.376L397.479 227.693L399.333 229.982L401.245 232.242L403.214 234.47L405.238 236.666L407.316 238.828L409.446 240.955L411.628 243.044L413.859 245.095L416.138 247.105L418.464 249.074L420.835 251L423.25 252.882L425.706 254.717L428.202 256.506L430.737 258.247L433.308 259.938L435.914 261.578L438.553 263.166L441.223 264.701L443.922 266.182L446.649 267.608L449.401 268.979L452.176 270.292L454.973 271.547L457.79 272.744L460.624 273.881L463.473 274.957L466.337 275.972L469.212 276.926L472.096 277.818L474.989 278.647L477.886 279.413L480.788 280.115L483.69 280.753L486.592 281.326L489.492 281.834L492.387 282.277L495.276 282.656L498.156 282.969L501.026 283.216L503.883 283.399L506.726 283.515L509.553 283.566L512.361 283.552L515.15 283.472L517.917 283.328L520.66 283.119L523.378 282.846L526.069 282.509L528.731 282.108L531.362 281.644L533.961 281.117L536.526 280.528L539.055 279.878L541.548 279.167L544.002 278.395L546.415 277.564L548.787 276.674L551.116 275.726L553.4 274.72L555.639 273.658L557.831 272.54L559.974 271.368L562.069 270.143L564.111 268.864L566.103 267.534L568.042 266.153L569.926 264.722L571.756 263.243L573.53 261.716L575.246 260.144L576.906 258.526L578.507 256.864L580.049 255.159L581.53 253.412L582.951 251.626L584.31 249.8L585.608 247.937L586.843 246.036L588.015 244.101L589.124 242.132L590.169 240.13L591.148 238.097L592.064 236.034L592.915 233.942L593.7 231.823L594.421 229.679L595.075 227.51L595.664 225.317L596.186 223.103L596.643 220.869L597.033 218.615L597.358 216.344L597.618 214.056L597.811 211.753L597.939 209.437L598.001 207.109" fill="#0E0C15"/>
<path d="M378.2 122.121L376.643 123.933L375.144 125.79L373.705 127.693L372.325 129.64L371.007 131.631L369.751 133.664L368.558 135.738L367.43 137.852L366.366 140.005L365.369 142.196L364.438 144.424L363.576 146.687L362.782 148.984L362.058 151.315L361.404 153.676L360.821 156.068L360.308 158.488L359.868 160.936L359.501 163.409L359.206 165.907L358.986 168.428L358.839 170.97L358.767 173.532L358.769 176.112L358.846 178.708L358.999 181.32L359.226 183.945L359.53 186.581L359.908 189.227L360.363 191.882L360.892 194.543L361.497 197.208L362.177 199.877L362.932 202.547L363.762 205.216L364.666 207.883L365.644 210.545L366.696 213.201L367.821 215.85L369.017 218.489L370.286 221.116L371.626 223.73L373.036 226.329L374.515 228.911L376.064 231.474L377.681 234.017L379.364 236.537L381.113 239.033L382.927 241.503L384.804 243.946L386.744 246.359L388.745 248.741L390.806 251.089L392.926 253.403L395.102 255.682L397.334 257.921L399.621 260.122L401.96 262.282L404.35 264.398L406.789 266.471L409.277 268.498L411.81 270.478L414.388 272.408L417.008 274.29L419.668 276.12L422.368 277.897L425.104 279.621L427.876 281.289L430.681 282.901L433.516 284.455L436.381 285.952L439.272 287.388L442.189 288.765L445.129 290.079L448.089 291.331L451.068 292.52L454.064 293.646L457.074 294.706L460.096 295.701L463.129 296.63L466.17 297.492L469.217 298.288L472.268 299.016L475.32 299.676L478.372 300.267L481.421 300.789L484.466 301.243L487.504 301.628L490.533 301.944L493.551 302.19L496.556 302.368L499.546 302.476L502.52 302.514L505.474 302.484L508.407 302.384L511.317 302.217L514.202 301.981L517.06 301.677L519.891 301.305L522.69 300.866L525.457 300.361L528.19 299.789L530.887 299.152L533.547 298.45L536.168 297.684L538.748 296.854L541.286 295.962L543.78 295.007L546.228 293.992L548.63 292.916L550.984 291.78L553.288 290.587L555.542 289.336L557.743 288.029L559.891 286.666L561.985 285.249L564.022 283.779L566.003 282.257L567.926 280.683L569.79 279.061L571.596 277.39L573.34 275.672L575.022 273.907L576.643 272.098L578.199 270.246L579.693 268.351L581.121 266.416L582.485 264.442L583.784 262.429L585.016 260.38L586.181 258.296L587.279 256.177L588.31 254.027L589.272 251.844L590.167 249.633L590.993 247.393" fill="#0E0C15"/>
<path d="M356.771 155.354L355.824 157.613L354.946 159.906L354.136 162.234L353.396 164.595L352.727 166.988L352.129 169.411L351.602 171.863L351.149 174.342L350.768 176.847L350.461 179.376L350.228 181.929L350.07 184.503L349.986 187.096L349.978 189.708L350.045 192.336L350.188 194.979L350.407 197.635L350.702 200.303L351.073 202.981L351.52 205.666L352.044 208.358L352.643 211.054L353.318 213.753L354.068 216.453L354.894 219.152L355.794 221.849L356.77 224.541L357.82 227.226L358.943 229.903L360.139 232.57L361.408 235.226L362.748 237.868L364.16 240.493L365.642 243.102L367.193 245.692L368.813 248.26L370.501 250.805L372.254 253.326L374.073 255.82L375.957 258.286L377.903 260.722L379.912 263.126L381.981 265.496L384.109 267.831L386.294 270.13L388.537 272.39L390.834 274.609L393.184 276.787L395.586 278.921L398.038 281.01L400.538 283.053L403.085 285.048L405.677 286.994L408.311 288.888L410.988 290.731L413.703 292.52L416.455 294.255L419.244 295.934L422.066 297.555L424.919 299.118L427.802 300.622L430.712 302.066L433.648 303.448L436.607 304.768L439.587 306.024L442.587 307.217L445.603 308.344L448.635 309.406L451.679 310.401L454.734 311.33L457.797 312.192L460.866 312.985L463.939 313.71L467.014 314.366L470.09 314.953L473.162 315.47L476.231 315.918L479.292 316.295L482.346 316.603L485.388 316.841L488.417 317.008L491.432 317.106L494.429 317.133L497.408 317.09L500.365 316.978L503.3 316.796L506.21 316.546L509.093 316.227L511.947 315.839L514.771 315.384L517.563 314.861L520.32 314.271L523.042 313.615L525.726 312.894L528.371 312.107L530.975 311.257L533.536 310.343L536.054 309.366L538.526 308.328L540.951 307.229L543.328 306.07L545.655 304.853L547.931 303.577L550.155 302.244L552.325 300.856L554.44 299.413L556.499 297.916L558.501 296.367L560.445 294.767L562.33 293.117L564.155 291.418L565.919 289.671L567.621 287.878L569.261 286.04L570.836 284.159L572.348 282.235" fill="#0E0C15"/>
<path d="M541.855 310.996L539.743 312.351L537.581 313.651L535.368 314.896L533.106 316.085L530.797 317.217L528.441 318.291L526.04 319.305L523.595 320.26L521.108 321.154L518.581 321.987L516.014 322.757L513.41 323.464L510.77 324.108L508.096 324.688L505.388 325.203L502.651 325.652L499.884 326.036L497.09 326.353L494.27 326.604L491.427 326.788L488.561 326.904L485.676 326.953L482.774 326.934L479.855 326.848L476.921 326.693L473.977 326.469L471.021 326.179L468.058 325.82L465.089 325.394L462.116 324.9L459.141 324.338L456.166 323.71L453.194 323.014L450.226 322.252L447.263 321.424L444.31 320.531L441.367 319.572L438.437 318.55L435.521 317.464L432.622 316.315L429.742 315.104L426.882 313.83L424.046 312.497L421.234 311.104L418.449 309.653L415.692 308.143L412.966 306.578L410.273 304.957L407.614 303.281L404.992 301.551L402.408 299.77L399.864 297.938L397.361 296.057L394.902 294.128L392.489 292.152L390.122 290.131L387.804 288.066L385.535 285.959L383.318 283.81L381.155 281.623L379.046 279.398L376.992 277.137L374.996 274.841L373.058 272.513L371.18 270.153L369.364 267.764L367.609 265.347L365.918 262.904L364.291 260.437L362.729 257.947L361.233 255.436L359.805 252.906L358.444 250.359L357.152 247.797L355.93 245.22L354.778 242.632L353.696 240.033L352.685 237.427L351.746 234.813L350.879 232.195L350.085 229.574L349.363 226.951L348.716 224.329L348.141 221.709L347.639 219.093L347.211 216.483L346.856 213.88L346.575 211.286L346.368 208.702L346.234 206.131L346.174 203.575L346.186 201.034L346.272 198.509L346.429 196.004" fill="#0E0C15"/>
<path d="M351.675 243.847L352.48 246.285L353.352 248.719L354.29 251.146L355.293 253.565L356.362 255.973L357.496 258.37L358.694 260.754L359.956 263.123L361.28 265.475L362.667 267.81L364.114 270.124L365.622 272.417L367.19 274.687L368.816 276.933L370.499 279.152L372.239 281.343L374.034 283.505L375.884 285.637L377.786 287.736L379.74 289.801L381.745 291.831L383.798 293.824L385.899 295.779L388.046 297.694L390.239 299.569L392.475 301.401L394.753 303.19L397.071 304.933L399.427 306.632L401.821 308.283L404.25 309.885L406.713 311.438L409.208 312.94L411.733 314.39L414.288 315.788L416.868 317.133L419.474 318.423L422.102 319.657L424.752 320.835L427.422 321.956L430.11 323.02L432.812 324.024L435.529 324.97L438.258 325.856L440.997 326.682L443.744 327.448L446.497 328.151L449.255 328.794L452.015 329.374L454.776 329.892L457.535 330.347L460.291 330.739L463.042 331.069L465.786 331.336L468.521 331.539L471.246 331.679L473.958 331.757L476.656 331.77L479.337 331.721L482.001 331.61L484.645 331.436L487.268 331.199L489.867 330.901L492.442 330.541L494.99 330.12L497.51 329.638" fill="#0E0C15"/>
<path d="M452.913 81.4958L455.172 81.1606L457.45 80.8758L458.85 80.7197L461.112 80.4897L463.39 80.3095L465.684 80.1791L466.987 80.1083L469.258 80.0295L471.541 80L472.776 80.0075L475.032 80.0268L477.299 80.0938L479.574 80.2097L482.934 80.4505L485.183 80.6575L487.437 80.9117L489.695 81.2126L490.644 81.3526L492.862 81.6932L495.082 82.0788L497.303 82.5094L499.522 82.9841L501.74 83.5032L502.463 83.6781L504.634 84.2305L506.801 84.8253L508.962 85.463L511.117 86.143L513.264 86.8638L515.402 87.6265L517.53 88.4293L517.929 88.5817L520.003 89.4081L522.065 90.2732L524.113 91.1775L526.148 92.1192L528.167 93.0991L530.171 94.1154L532.156 95.1682L534.124 96.257L536.072 97.3811L538 98.5401L539.906 99.7329L541.79 100.959L543.65 102.219L545.486 103.511L547.296 104.833L549.08 106.187L550.837 107.571L552.565 108.984L552.888 109.257L554.623 110.73L556.326 112.23L557.998 113.758L559.637 115.314L561.243 116.895L562.814 118.501L564.35 120.132L564.851 120.679L566.38 122.366L567.872 124.077L569.325 125.81L570.739 127.565L572.112 129.34L572.692 130.1L574.05 131.929L575.366 133.777L576.638 135.644L578.475 138.464L579.68 140.398L580.838 142.347L581.95 144.311L582.551 145.385L583.634 147.397L584.666 149.421L586.233 152.662L587.18 154.742L588.077 156.831L588.617 158.129L589.473 160.259L590.275 162.398M452.913 81.4958L451.461 81.7366L449.189 82.1281L446.94 82.5716L445.444 82.8983L443.187 83.3997L440.956 83.9532L439.421 84.3672L437.187 84.9808L434.982 85.6458L433.418 86.1484L431.214 86.8746L429.041 87.6533L427.455 88.2443L425.29 89.0847L423.157 89.9772L421.557 90.6567L419.437 91.6119L417.85 92.3686L415.745 93.3866L413.679 94.4571L412.091 95.3002L410.045 96.4334L408.48 97.3516L406.457 98.5471L404.476 99.7951L402.923 100.796L400.97 102.106L399.449 103.178L397.527 104.549L395.652 105.972L394.154 107.122L392.314 108.605L390.856 109.821L389.055 111.364L387.642 112.642L385.882 114.245L384.175 115.896L382.799 117.244L381.138 118.952L379.813 120.357L378.2 122.121M452.913 81.4958L450.675 81.882L448.458 82.3191L446.266 82.8066L444.097 83.3445L441.955 83.9329L439.84 84.5711L437.753 85.2597L435.696 85.9977L433.67 86.7845L431.675 87.6211L429.714 88.5061L427.788 89.4393L425.898 90.4207L424.044 91.4499L422.229 92.5263L420.453 93.6494L418.718 94.8186L417.023 96.0333L415.372 97.2932L413.764 98.5975L412.202 99.9458L410.685 101.338L409.216 102.772L407.794 104.248L406.422 105.765L405.099 107.323L403.827 108.92L402.608 110.556L401.441 112.23L400.328 113.941L399.27 115.688L398.267 117.471L397.32 119.288L396.43 121.137L395.598 123.02L394.824 124.933L394.11 126.877L393.455 128.849L392.861 130.85L392.327 132.877L391.856 134.929L391.446 137.007L391.098 139.107L390.813 141.229L390.592 143.372L390.434 145.534L390.341 147.714L390.311 149.911L390.346 152.123L390.446 154.349L390.609 156.587L390.838 158.837L391.132 161.096L391.491 163.364L391.914 165.638L392.403 167.918L392.955 170.201L393.572 172.486L394.253 174.773L394.998 177.06L395.807 179.343L396.68 181.623L397.615 183.898L398.612 186.166L399.67 188.426L400.79 190.676L401.97 192.915L403.21 195.141L404.511 197.352L405.868 199.548L407.284 201.725L408.757 203.884L410.285 206.023L411.868 208.139L413.506 210.232L415.196 212.301L416.938 214.343L418.731 216.356L420.573 218.341L422.464 220.295L424.402 222.217L426.385 224.106L428.413 225.961L430.484 227.779L432.597 229.56L434.75 231.302L436.943 233.005L439.173 234.666L441.438 236.286L443.738 237.863L446.071 239.395L448.434 240.882L450.827 242.322L453.249 243.715L455.696 245.059L458.167 246.354L460.662 247.599L463.178 248.793L465.712 249.935L468.265 251.024L470.833 252.06L473.414 253.042L476.009 253.97L478.613 254.842L481.227 255.658L483.847 256.419L486.472 257.122L489.1 257.768L491.73 258.357L494.359 258.887L496.986 259.36L499.608 259.774L502.226 260.13L504.835 260.427L507.435 260.666L510.025 260.845L512.601 260.966L515.163 261.027L517.709 261.03L520.237 260.975L522.745 260.86L525.232 260.688L527.696 260.458L530.137 260.17L532.551 259.825L534.937 259.422L537.294 258.963L539.622 258.448L541.917 257.877L544.179 257.251L546.406 256.571L548.597 255.837L550.751 255.049L552.866 254.208L554.94 253.316L556.974 252.372L558.966 251.378L560.914 250.334L562.817 249.242L564.675 248.101L566.486 246.914L568.249 245.68L569.963 244.401L571.628 243.077L573.242 241.71L574.806 240.301L576.317 238.851L577.774 237.36L579.179 235.83L580.529 234.262L581.824 232.657L583.063 231.016L584.246 229.34L585.373 227.63L586.443 225.888L587.454 224.115L588.409 222.312L589.304 220.479L590.14 218.619L590.918 216.732L591.636 214.82L592.295 212.884L592.894 210.925L593.434 208.944L593.913 206.943L594.332 204.923L594.691 202.885L594.99 200.829L595.229 198.759L595.408 196.674L595.527 194.577L595.586 192.468L595.586 190.348L595.526 188.219L595.406 186.082L595.228 183.938L594.991 181.789L594.696 179.635L594.342 177.479L593.931 175.32L593.462 173.161L592.937 171.002L592.355 168.846L591.717 166.691L591.024 164.542L590.275 162.398M378.2 122.121L376.93 123.58L375.366 125.398L373.861 127.263L372.643 128.78L371.193 130.697L370.035 132.26L368.641 134.226L367.546 135.834L366.211 137.848L365.181 139.495L363.907 141.555L362.696 143.657L361.732 145.343L360.585 147.487L359.691 149.204L358.609 151.388L357.787 153.133L356.772 155.354L356.023 157.123L355.077 159.38L354.199 161.671L353.525 163.457L352.717 165.779L352.119 167.579L351.382 169.929L350.862 171.739L350.197 174.113L349.602 176.517L349.161 178.326L348.639 180.749L348.276 182.559L347.827 184.998L347.542 186.804L347.167 189.258L346.864 191.734L346.659 193.519L346.429 196.004M378.2 122.121L376.643 123.933L375.144 125.79L373.705 127.693L372.325 129.64L371.007 131.631L369.751 133.664L368.558 135.738L367.43 137.852L366.366 140.005L365.369 142.196L364.438 144.424L363.576 146.687L362.782 148.984L362.058 151.315L361.404 153.676L360.821 156.068L360.308 158.488L359.868 160.936L359.501 163.409L359.206 165.907L358.986 168.428L358.839 170.97L358.767 173.532L358.769 176.112L358.846 178.708L358.999 181.32L359.226 183.945L359.53 186.581L359.908 189.227L360.363 191.882L360.892 194.543L361.497 197.208L362.177 199.877L362.932 202.547L363.762 205.216L364.666 207.883L365.644 210.545L366.696 213.201L367.821 215.85L369.017 218.489L370.286 221.116L371.626 223.73L373.036 226.329L374.515 228.911L376.064 231.474L377.681 234.017L379.364 236.537L381.113 239.033L382.927 241.503L384.804 243.946L386.744 246.359L388.745 248.741L390.806 251.089L392.926 253.403L395.102 255.682L397.334 257.921L399.621 260.122L401.96 262.282L404.35 264.398L406.789 266.471L409.277 268.498L411.81 270.478L414.388 272.408L417.008 274.29L419.668 276.12L422.368 277.897L425.104 279.621L427.876 281.289L430.681 282.901L433.516 284.455L436.381 285.952L439.272 287.388L442.189 288.765L445.129 290.079L448.089 291.331L451.068 292.52L454.064 293.646L457.074 294.706L460.096 295.701L463.129 296.63L466.17 297.492L469.217 298.288L472.268 299.016L475.32 299.676L478.372 300.267L481.421 300.789L484.466 301.243L487.504 301.628L490.533 301.944L493.551 302.19L496.556 302.368L499.546 302.476L502.52 302.514L505.474 302.484L508.407 302.384L511.317 302.217L514.202 301.981L517.06 301.677L519.891 301.305L522.69 300.866L525.457 300.361L528.19 299.789L530.887 299.152L533.547 298.45L536.168 297.684L538.748 296.854L541.286 295.962L543.78 295.007L546.228 293.992L548.63 292.916L550.984 291.78L553.288 290.587L555.542 289.336L557.743 288.029L559.891 286.666L561.985 285.249L564.022 283.779L566.003 282.257L567.926 280.683L569.79 279.061L571.596 277.39L573.34 275.672L575.022 273.907L576.643 272.098L578.199 270.246L579.693 268.351L581.121 266.416L582.485 264.442L583.784 262.429L585.016 260.38L586.181 258.296L587.279 256.177L588.31 254.027L589.272 251.844L590.167 249.633L590.993 247.393M346.429 196.004L346.302 197.774L346.146 200.265L346.061 202.773L346.013 204.509L346 207.017L346.028 208.728L346.087 211.233L346.218 213.751L346.32 215.414L346.521 217.923L346.967 222.048L347.307 224.554L347.553 226.121L347.96 228.608L348.436 231.101L348.747 232.598L349.288 235.068L349.896 237.539L350.268 238.961L350.938 241.405L351.675 243.847M346.429 196.004L346.272 198.509L346.186 201.034L346.174 203.575L346.234 206.131L346.368 208.702L346.575 211.286L346.856 213.88L347.211 216.483L347.639 219.093L348.141 221.709L348.716 224.329L349.363 226.951L350.085 229.574L350.879 232.195L351.746 234.813L352.685 237.427L353.696 240.033L354.778 242.632L355.93 245.22L357.152 247.797L358.444 250.359L359.805 252.906L361.233 255.436L362.729 257.947L364.291 260.437L365.918 262.904L367.609 265.347L369.364 267.764L371.18 270.153L373.058 272.513L374.996 274.841L376.992 277.137L379.046 279.398L381.155 281.623L383.318 283.81L385.535 285.959L387.804 288.066L390.122 290.131L392.489 292.152L394.902 294.128L397.361 296.057L399.864 297.938L402.408 299.77L404.992 301.551L407.614 303.281L410.273 304.957L412.966 306.578L415.692 308.143L418.449 309.653L421.234 311.104L424.046 312.497L426.882 313.83L429.742 315.104L432.622 316.315L435.521 317.464L438.437 318.55L441.367 319.572L444.31 320.531L447.263 321.424L450.226 322.252L453.194 323.014L456.166 323.71L459.141 324.338L462.116 324.9L465.089 325.394L468.058 325.82L471.021 326.179L473.977 326.469L476.921 326.693L479.855 326.848L482.774 326.934L485.676 326.953L488.561 326.904L491.427 326.788L494.27 326.604L497.09 326.353L499.884 326.036L502.651 325.652L505.388 325.203L508.096 324.688L510.77 324.108L513.41 323.464L516.014 322.757L518.581 321.987L521.108 321.154L523.595 320.26L526.04 319.305L528.441 318.291L530.797 317.217L533.106 316.085L535.368 314.896L537.581 313.651L539.743 312.351L541.855 310.996M351.675 243.847L352.103 245.184L352.898 247.594L353.759 249.998L354.237 251.246L355.152 253.614L356.131 255.973L357.173 258.322L357.681 259.443L358.771 261.749L359.923 264.042L361.661 267.306L362.916 269.536L364.23 271.749L365.602 273.943L366.132 274.786L367.539 276.926L369.001 279.045L370.517 281.14L371.038 281.837L372.583 283.874L374.179 285.885L375.825 287.869L377.522 289.825L379.266 291.751L379.707 292.231L381.468 294.093L383.274 295.923L385.125 297.721L387.018 299.483L388.953 301.209L390.928 302.899L392.943 304.55L393.201 304.755L395.215 306.339L397.266 307.882L399.351 309.384L401.468 310.844L403.617 312.262L405.796 313.636L408.002 314.965L410.236 316.248L412.495 317.484L414.778 318.673L417.083 319.814L419.409 320.906L421.754 321.948L424.116 322.939L424.424 323.067L426.846 324.024L429.281 324.929L431.73 325.781L434.189 326.579L436.658 327.323L439.135 328.012L441.617 328.646L442.254 328.799L444.783 329.388L447.316 329.92L449.849 330.394L452.381 330.811L454.911 331.17L455.776 331.289L458.342 331.596L460.903 331.844L463.455 332.034L464.452 332.088L467.034 332.22L469.605 332.293L472.163 332.306L473.281 332.288L475.86 332.24L478.422 332.133L480.966 331.965L482.194 331.865L484.752 331.635L487.287 331.344L489.799 330.993L491.124 330.806L493.642 330.389L496.132 329.913L497.51 329.638M351.675 243.847L352.48 246.285L353.352 248.719L354.29 251.146L355.293 253.565L356.362 255.973L357.496 258.37L358.694 260.754L359.956 263.123L361.28 265.475L362.667 267.81L364.114 270.124L365.622 272.417L367.19 274.687L368.816 276.933L370.499 279.152L372.239 281.343L374.034 283.505L375.884 285.637L377.786 287.736L379.74 289.801L381.745 291.831L383.798 293.824L385.899 295.779L388.046 297.694L390.239 299.569L392.475 301.401L394.753 303.19L397.071 304.933L399.427 306.632L401.821 308.283L404.25 309.885L406.713 311.438L409.208 312.94L411.733 314.39L414.288 315.788L416.868 317.133L419.474 318.423L422.102 319.657L424.752 320.835L427.422 321.956L430.11 323.02L432.812 324.024L435.529 324.97L438.258 325.856L440.997 326.682L443.744 327.448L446.497 328.151L449.255 328.794L452.015 329.374L454.776 329.892L457.535 330.347L460.291 330.739L463.042 331.069L465.786 331.336L468.521 331.539L471.246 331.679L473.958 331.757L476.656 331.77L479.337 331.721L482.001 331.61L484.645 331.436L487.267 331.199L489.867 330.901L492.442 330.541L494.99 330.12L497.51 329.638M497.51 329.638L500.001 329.096L502.46 328.494L503.884 328.13L506.338 327.462L508.757 326.734L510.219 326.28L512.626 325.485L514.996 324.632L516.486 324.088L518.839 323.168L520.329 322.541L522.66 321.555L524.948 320.511L526.453 319.795L528.715 318.686L530.93 317.521L532.441 316.716L534.626 315.487L536.12 314.603L538.269 313.311L540.368 311.965L541.855 310.996M541.855 310.996L543.913 309.588L545.374 308.545L547.389 307.077L549.349 305.557L550.79 304.433L552.703 302.856L554.109 301.662L555.972 300.03L557.34 298.767L559.15 297.081L560.9 295.347L562.231 294.015L563.925 292.23L565.21 290.836L566.845 289.003L568.08 287.549L569.654 285.669L571.164 283.747L572.348 282.235L573.795 280.27L574.923 278.705L576.305 276.701L577.374 275.087L578.689 273.044L579.697 271.386L580.944 269.307L582.124 267.194L583.066 265.496L584.177 263.352L585.052 261.617L586.092 259.444L586.899 257.675L587.868 255.477L588.604 253.678L589.503 251.458L590.332 249.21L590.993 247.393M590.993 247.393L591.75 245.127L592.338 243.29L593.024 241.008L593.536 239.154L594.15 236.86L594.695 234.545L595.129 232.691L595.602 230.367L595.959 228.506L596.362 226.178L596.643 224.312L596.976 221.983L597.241 219.637L597.442 217.79L597.639 215.447L597.762 213.606L597.891 211.269L597.954 208.92L598 207.109L597.996 204.77L597.966 202.975L597.898 200.649L597.766 198.315L597.661 196.563L597.466 194.246L597.286 192.519L597.031 190.222L596.715 187.921L596.465 186.249L596.091 183.972L595.656 181.693L595.339 180.084L594.851 177.832L594.303 175.582L593.923 174.041L593.324 171.822L592.667 169.605L592.23 168.14L591.526 165.958L590.767 163.782L590.275 162.398M410.046 96.4335L408.04 97.6187L406.077 98.8555L404.157 100.143L402.283 101.481L400.455 102.868L398.674 104.306L396.943 105.791L395.261 107.324L393.63 108.905L392.052 110.531L390.526 112.203L389.055 113.921L387.64 115.681L386.281 117.485L384.98 119.331L383.738 121.218L382.555 123.145L381.433 125.112L380.372 127.116L379.374 129.157L378.438 131.234L377.567 133.346L376.761 135.492L376.02 137.669L375.345 139.878L374.738 142.117L374.197 144.384L373.725 146.678L373.322 148.998L372.987 151.343L372.723 153.711L372.528 156.1L372.405 158.51L372.351 160.938L372.369 163.384L372.458 165.845L372.618 168.32L372.85 170.808L373.154 173.308L373.53 175.815L373.977 178.332L374.496 180.854L375.086 183.38L375.747 185.91L376.48 188.44L377.284 190.97L378.158 193.498L379.102 196.022L380.116 198.54L381.199 201.051L382.351 203.552L383.57 206.044L384.857 208.522L386.21 210.986L387.63 213.434L389.114 215.864L390.663 218.275L392.275 220.665L393.949 223.033L395.684 225.376L397.479 227.693L399.333 229.982L401.245 232.242L403.214 234.47L405.238 236.666L407.316 238.828L409.446 240.955L411.628 243.044L413.859 245.095L416.138 247.105L418.464 249.074L420.835 251L423.25 252.882L425.706 254.717L428.202 256.506L430.737 258.247L433.308 259.938L435.914 261.578L438.553 263.166L441.223 264.701L443.922 266.182L446.649 267.608L449.401 268.979L452.176 270.292L454.973 271.547L457.79 272.744L460.624 273.881L463.473 274.957L466.337 275.972L469.212 276.926L472.096 277.818L474.989 278.647L477.886 279.413L480.788 280.115L483.69 280.752L486.592 281.326L489.492 281.834L492.387 282.277L495.276 282.656L498.156 282.969L501.026 283.216L503.883 283.399L506.726 283.515L509.553 283.566L512.361 283.552L515.15 283.472L517.917 283.328L520.66 283.119L523.378 282.846L526.069 282.509L528.731 282.108L531.362 281.644L533.961 281.117L536.526 280.528L539.055 279.878L541.548 279.167L544.002 278.395L546.415 277.564L548.787 276.674L551.116 275.726L553.4 274.72L555.639 273.658L557.831 272.54L559.974 271.368L562.069 270.143L564.111 268.864L566.103 267.534L568.042 266.153L569.926 264.722L571.756 263.243L573.53 261.716L575.246 260.144L576.906 258.526L578.507 256.864L580.049 255.159L581.53 253.412L582.951 251.626L584.31 249.8L585.608 247.937L586.843 246.036L588.015 244.101L589.124 242.132L590.169 240.13L591.148 238.097L592.064 236.034L592.915 233.942L593.7 231.823L594.421 229.679L595.075 227.51L595.664 225.317L596.186 223.103L596.643 220.869L597.033 218.615L597.358 216.344L597.618 214.056L597.811 211.753L597.939 209.437L598.001 207.109M356.771 155.354L355.824 157.613L354.946 159.906L354.136 162.234L353.396 164.595L352.727 166.988L352.129 169.411L351.602 171.863L351.149 174.342L350.768 176.847L350.461 179.376L350.228 181.929L350.07 184.503L349.986 187.096L349.978 189.708L350.045 192.336L350.188 194.979L350.407 197.635L350.702 200.303L351.073 202.981L351.52 205.666L352.044 208.358L352.643 211.054L353.318 213.753L354.068 216.453L354.894 219.152L355.794 221.849L356.77 224.541L357.82 227.226L358.943 229.903L360.139 232.57L361.408 235.226L362.748 237.868L364.16 240.493L365.642 243.102L367.193 245.692L368.813 248.26L370.501 250.805L372.254 253.326L374.073 255.82L375.957 258.286L377.903 260.722L379.912 263.126L381.981 265.496L384.109 267.831L386.294 270.13L388.537 272.39L390.834 274.609L393.184 276.787L395.586 278.921L398.038 281.01L400.538 283.053L403.085 285.048L405.677 286.994L408.311 288.888L410.988 290.731L413.703 292.52L416.455 294.255L419.244 295.934L422.066 297.555L424.919 299.118L427.802 300.622L430.712 302.066L433.648 303.448L436.607 304.768L439.587 306.024L442.587 307.217L445.603 308.344L448.635 309.406L451.679 310.401L454.734 311.33L457.797 312.192L460.866 312.985L463.939 313.71L467.014 314.366L470.09 314.953L473.162 315.47L476.231 315.918L479.292 316.295L482.346 316.603L485.388 316.841L488.417 317.008L491.432 317.106L494.429 317.133L497.408 317.09L500.365 316.978L503.3 316.796L506.21 316.546L509.093 316.227L511.947 315.839L514.771 315.384L517.563 314.861L520.32 314.271L523.042 313.615L525.726 312.894L528.371 312.107L530.975 311.257L533.536 310.343L536.054 309.366L538.526 308.328L540.951 307.229L543.328 306.07L545.655 304.853L547.931 303.577L550.155 302.244L552.325 300.856L554.44 299.413L556.499 297.916L558.501 296.367L560.445 294.767L562.33 293.117L564.155 291.418L565.919 289.671L567.621 287.878L569.261 286.04L570.836 284.159L572.348 282.235M540.286 114.327L539.358 113.537L538.414 112.763L537.453 112.004L536.477 111.263L535.487 110.538L534.482 109.831L533.464 109.141L532.433 108.469L531.389 107.815L530.333 107.181L529.267 106.566L528.189 105.969L527.101 105.393L526.005 104.837L524.899 104.302L523.785 103.787L522.663 103.293L521.535 102.821L520.4 102.37L519.259 101.941L518.114 101.535L516.964 101.15L515.81 100.788L514.653 100.449L513.494 100.133L512.333 99.8411L511.171 99.5719L510.008 99.3263L508.846 99.1042L507.684 98.9063L506.524 98.732L505.366 98.5818L504.211 98.4558L503.059 98.3544L501.912 98.2772L500.769 98.2247L499.632 98.1968L498.5 98.193L497.376 98.2139L496.259 98.2595L495.15 98.3298L494.05 98.4242L492.959 98.5438L491.879 98.6875L490.809 98.8559L489.749 99.0484L488.702 99.2651L487.668 99.5059L486.646 99.7714L485.639 100.06L484.646 100.374L483.667 100.711L482.704 101.071L481.758 101.454L480.827 101.861L479.914 102.29L479.019 102.743L478.143 103.218L477.285 103.716L476.446 104.235L475.628 104.775L474.831 105.338L474.053 105.921L473.298 106.526L472.564 107.151L471.853 107.796L471.165 108.46L470.5 109.145L469.859 109.848L469.242 110.57L468.649 111.31L468.082 112.069L467.54 112.844L467.023 113.637L466.533 114.446L466.07 115.272L465.633 116.113L465.222 116.969L464.84 117.84L464.485 118.724L464.158 119.622L463.858 120.534L463.588 121.458L463.346 122.394L463.132 123.342L462.948 124.301L462.793 125.269L462.667 126.247L462.57 127.235L462.503 128.232L462.465 129.236L462.457 130.247L462.479 131.266L462.53 132.29L462.611 133.32L462.721 134.355L462.862 135.394L463.032 136.436L463.231 137.482L463.461 138.53L463.72 139.579L464.007 140.629L464.324 141.68L464.669 142.73L465.044 143.779L465.447 144.827L465.879 145.872L466.338 146.914L466.825 147.953L467.34 148.987L467.882 150.016L468.452 151.04L469.047 152.057L469.67 153.067L470.317 154.07L470.991 155.064L471.689 156.05L472.413 157.026L473.16 157.992L473.931 158.947L474.726 159.89L475.543 160.822L476.383 161.741L477.244 162.647L478.127 163.539L479.03 164.416L479.953 165.279L480.896 166.126L481.858 166.957L482.838 167.772L483.836 168.569L484.851 169.349L485.882 170.11L486.929 170.853L487.991 171.577L489.067 172.281L490.157 172.965L491.261 173.629L492.376 174.271L493.503 174.892L494.641 175.492L495.789 176.069L496.947 176.625L498.113 177.157L499.286 177.666L500.468 178.151L501.655 178.613L502.848 179.05L504.046 179.463L505.247 179.852L506.453 180.216L507.66 180.555L508.87 180.868L510.08 181.156L511.291 181.418L512.501 181.655L513.709 181.866L514.916 182.05L516.119 182.209L517.319 182.341L518.514 182.447L519.705 182.527L520.889 182.58L522.067 182.607L523.237 182.608L524.399 182.582L525.553 182.53L526.696 182.452L527.829 182.348L528.952 182.218L530.062 182.061L531.16 181.879L532.245 181.672L533.316 181.439L534.373 181.18L535.415 180.897L536.441 180.589L537.451 180.255L538.444 179.898L539.42 179.516L540.377 179.11L541.316 178.681L542.235 178.229L543.135 177.753L544.014 177.255L544.873 176.735L545.71 176.192L546.526 175.628L547.319 175.042L548.09 174.436L548.837 173.809L549.561 173.163L550.261 172.497L550.937 171.811L551.587 171.107L552.213 170.385L552.814 169.645L553.388 168.887L553.937 168.113L554.459 167.323L554.955 166.517L555.423 165.695L555.865 164.858L556.279 164.008L556.666 163.144L557.025 162.266L557.356 161.376L557.659 160.474L557.934 159.56L558.181 158.635L558.398 157.7L558.588 156.756L558.749 155.801L558.882 154.839L558.986 153.867L559.061 152.889L559.108 151.904L559.126 150.912L559.115 149.915L559.076 148.913L559.008 147.906L558.912 146.895L558.788 145.881L558.635 144.864L558.454 143.844L558.246 142.823L558.009 141.802L557.745 140.78L557.453 139.758L557.135 138.737L556.789 137.717L556.417 136.699L556.018 135.684L555.592 134.672L555.141 133.664L554.665 132.66L554.162 131.66L553.635 130.667L553.083 129.679L552.506 128.698L551.906 127.724L551.281 126.758L550.634 125.8L549.964 124.85L549.27 123.91L548.555 122.98L547.818 122.06L547.061 121.15L546.282 120.252L545.482 119.366L544.663 118.493L543.824 117.632L542.967 116.785L542.091 115.951L541.198 115.131L540.286 114.327ZM528.847 121.358L529.372 121.772L529.91 122.172L530.436 122.577L530.923 123.006L531.355 123.472L531.751 123.964L532.14 124.467L532.55 124.963L532.998 125.44L533.463 125.908L533.914 126.378L534.319 126.863L534.658 127.372L534.953 127.899L535.237 128.435L535.546 128.968L535.899 129.493L536.274 130.01L536.632 130.528L536.94 131.051L537.172 131.585L537.355 132.128L537.525 132.676L537.721 133.227L537.966 133.778L538.235 134.327L538.488 134.874L538.686 135.416L538.803 135.954L538.866 136.491L538.914 137.031L538.988 137.58L539.116 138.137L539.269 138.697L539.406 139.252L539.486 139.793L539.482 140.315L539.422 140.826L539.347 141.339L539.297 141.862L539.301 142.405L539.331 142.956L539.346 143.498L539.305 144.018L539.18 144.504L538.999 144.969L538.802 145.433L538.629 145.912L538.508 146.42L538.413 146.94L538.305 147.45L538.144 147.928L537.902 148.359L537.605 148.761L537.293 149.157L537.003 149.574L536.762 150.026L536.545 150.496L536.316 150.954L536.039 151.372L535.689 151.731L535.288 152.052L534.872 152.366L534.475 152.703L534.121 153.083L533.79 153.484L533.449 153.871L533.066 154.212L532.62 154.485L532.13 154.713L531.626 154.932L531.138 155.175L530.685 155.468L530.25 155.784L529.809 156.086L529.335 156.336L528.81 156.512L528.25 156.637L527.677 156.75L527.115 156.89L526.579 157.083L526.058 157.301L525.534 157.505L524.986 157.656L524.403 157.725L523.794 157.741L523.174 157.745L522.56 157.775L521.962 157.86L521.375 157.973L520.787 158.071L520.188 158.114L519.568 158.075L518.934 157.981L518.292 157.873L517.65 157.792L517.014 157.766L516.384 157.767L515.754 157.755L515.126 157.689L514.495 157.542L513.861 157.341L513.222 157.126L512.578 156.936L511.929 156.799L511.279 156.689L510.634 156.567L510.002 156.394L509.385 156.145L508.776 155.844L508.166 155.529L507.545 155.238L506.908 154.995L506.264 154.778L505.629 154.551L505.018 154.279L504.439 153.937L503.88 153.548L503.323 153.146L502.751 152.764L502.151 152.425L501.539 152.111L500.939 151.788L500.373 151.426L499.855 151.005L499.369 150.543L498.887 150.069L498.386 149.612L497.847 149.192L497.292 148.791L496.75 148.385L496.252 147.949L495.816 147.466L495.421 146.95L495.034 146.423L494.623 145.909L494.167 145.423L493.69 144.953L493.228 144.481L492.817 143.988L492.48 143.461L492.193 142.911L491.916 142.352L491.612 141.801L491.256 141.269L490.876 140.75L490.511 140.231L490.204 139.7L489.979 139.151L489.809 138.588L489.653 138.019L489.468 137.453L489.225 136.897L488.956 136.348L488.703 135.803L488.51 135.257L488.406 134.706L488.361 134.153L488.331 133.596L488.271 133.038L488.152 132.479L488.004 131.923L487.871 131.373L487.8 130.832L487.82 130.303L487.901 129.78L487.998 129.257L488.064 128.728L488.072 128.188L488.049 127.647L488.042 127.114L488.094 126.599L488.237 126.111L488.44 125.639L488.658 125.17L488.849 124.69L488.982 124.191L489.085 123.685L489.202 123.189L489.375 122.722L489.634 122.293L489.95 121.889L490.282 121.491L490.589 121.079L490.841 120.639L491.065 120.188L491.301 119.75L491.587 119.347L491.951 118.993L492.369 118.673L492.8 118.36L493.21 118.03L493.571 117.666L493.906 117.288L494.251 116.923L494.639 116.599L495.094 116.334L495.595 116.108L496.11 115.892L496.606 115.656L497.062 115.382L497.495 115.09L497.935 114.812L498.409 114.579L498.937 114.412L499.503 114.288L500.08 114.176L500.645 114.043L501.177 113.868L501.69 113.673L502.208 113.492L502.75 113.359L503.331 113.295L503.94 113.278L504.559 113.273L505.169 113.247L505.757 113.177L506.332 113.087L506.907 113.009L507.496 112.98L508.108 113.021L508.737 113.11L509.374 113.212L510.007 113.294L510.629 113.331L511.243 113.348L511.854 113.376L512.467 113.452L513.087 113.596L513.714 113.787L514.344 113.992L514.977 114.178L515.61 114.321L516.239 114.444L516.863 114.578L517.478 114.755L518.084 114.996L518.684 115.282L519.285 115.581L519.894 115.863L520.513 116.107L521.135 116.332L521.748 116.565L522.343 116.837L522.911 117.167L523.462 117.537L524.012 117.919L524.575 118.287L525.158 118.622L525.749 118.94L526.33 119.265L526.88 119.622L527.39 120.028L527.873 120.467L528.352 120.918L528.847 121.358ZM548.699 110.322L547.371 109.195L546.021 108.089L544.648 107.008L543.253 105.949L541.838 104.914L540.402 103.904L538.948 102.919L537.475 101.96L535.984 101.027L534.476 100.12L532.953 99.2411L531.414 98.3894L529.861 97.5662L528.294 96.7713L526.715 96.006L525.124 95.2696L523.522 94.5633L521.91 93.8875L520.289 93.2418L518.659 92.6277L517.022 92.0447L515.379 91.4939L513.73 90.9748L512.076 90.4878L510.419 90.0335L508.759 89.6125L507.097 89.2248L505.433 88.8703L503.769 88.549L502.107 88.2621L500.446 88.0089L498.787 87.7901L497.132 87.6061L495.482 87.4565L493.837 87.3412L492.198 87.2613L490.567 87.2157L488.943 87.205L487.329 87.2296L485.725 87.2892L484.131 87.3841L482.55 87.5139L480.981 87.6785L479.426 87.8786L477.885 88.1135L476.36 88.3827L474.851 88.6874L473.359 89.0263L471.886 89.4001L470.431 89.8083L468.996 90.2507L467.582 90.7275L466.189 91.2376L464.82 91.7814L463.472 92.359L462.149 92.9693L460.851 93.6124L459.579 94.2882L458.333 94.9966L457.114 95.7362L455.924 96.508L454.761 97.3103L453.629 98.1438L452.527 99.0073L451.456 99.9008L450.416 100.823L449.409 101.775L448.434 102.756L447.494 103.763L446.588 104.799L445.716 105.861L444.881 106.95L444.081 108.064L443.318 109.203L442.593 110.367L441.905 111.554L441.255 112.765L440.644 113.998L440.073 115.252L439.541 116.528L439.049 117.824L438.597 119.14L438.187 120.474L437.817 121.827L437.49 123.196L437.203 124.582L436.959 125.984L436.758 127.4L436.598 128.83L436.482 130.273L436.409 131.728L436.378 133.195L436.391 134.672L436.447 136.159L436.546 137.653L436.688 139.156L436.875 140.665L437.104 142.181L437.377 143.7L437.692 145.224L438.051 146.751L438.452 148.28L438.896 149.809L439.383 151.338L439.912 152.867L440.483 154.393L441.096 155.916L441.75 157.436L442.445 158.95L443.181 160.459L443.957 161.96L444.772 163.454L445.628 164.939L446.521 166.413L447.453 167.877L448.424 169.329L449.431 170.768L450.474 172.194L451.554 173.605L452.668 175L453.817 176.378L455 177.739L456.216 179.082L457.464 180.405L458.744 181.708L460.054 182.99L461.394 184.25L462.763 185.487L464.16 186.701L465.585 187.89L467.036 189.054L468.511 190.192L470.012 191.303L471.535 192.387L473.081 193.442L474.648 194.469L476.235 195.466L477.842 196.432L479.467 197.368L481.109 198.272L482.766 199.144L484.439 199.983L486.126 200.789L487.825 201.561L489.536 202.299L491.258 203.003L492.988 203.67L494.726 204.303L496.472 204.899L498.223 205.459L499.98 205.982L501.739 206.468L503.501 206.917L505.264 207.328L507.027 207.701L508.789 208.036L510.548 208.334L512.304 208.592L514.056 208.813L515.802 208.994L517.541 209.137L519.272 209.241L520.994 209.306L522.705 209.333L524.405 209.32L526.094 209.269L527.768 209.18L529.428 209.053L531.072 208.887L532.7 208.683L534.31 208.441L535.901 208.161L537.473 207.844L539.024 207.489L540.554 207.098L542.061 206.67L543.545 206.207L545.004 205.707L546.438 205.171L547.846 204.601L549.227 203.996L550.581 203.357L551.906 202.684L553.202 201.978L554.468 201.239L555.703 200.468L556.906 199.666L558.078 198.832L559.216 197.968L560.322 197.075L561.393 196.152L562.43 195.2L563.431 194.22L564.397 193.214L565.327 192.18L566.219 191.121L567.075 190.036L567.893 188.927L568.673 187.795L569.415 186.639L570.118 185.461L570.782 184.262L571.406 183.042L571.991 181.801L572.536 180.543L573.041 179.265L573.506 177.97L573.93 176.658L574.313 175.331L574.655 173.988L574.956 172.631L575.216 171.26L575.436 169.877L575.614 168.483L575.751 167.077L575.847 165.662L575.902 164.237L575.916 162.804L575.888 161.363L575.82 159.915L575.711 158.462L575.562 157.004L575.373 155.542L575.142 154.076L574.873 152.608L574.563 151.139L574.213 149.669L573.825 148.198L573.397 146.729L572.931 145.262L572.426 143.797L571.884 142.336L571.304 140.878L570.687 139.426L570.032 137.98L569.342 136.541L568.616 135.108L567.854 133.685L567.057 132.27L566.226 130.865L565.361 129.47L564.462 128.087L563.531 126.716L562.567 125.358L561.571 124.014L560.544 122.684L559.487 121.368L558.399 120.069L557.282 118.786L556.137 117.52L554.963 116.272L553.762 115.042L552.534 113.832L551.28 112.642L550.002 111.471L548.699 110.322ZM553.853 110.18L552.191 108.769L550.5 107.386L548.781 106.033L547.036 104.708L545.265 103.414L543.469 102.15L541.648 100.918L539.806 99.7173L537.94 98.5503L536.054 97.416L534.148 96.3165L532.223 95.2509L530.28 94.2206L528.32 93.2262L526.344 92.2678L524.353 91.3459L522.348 90.4615L520.331 89.6152L518.302 88.807L516.263 88.0373L514.213 87.3063L512.156 86.6156L510.091 85.9639L508.02 85.3531L505.944 84.783L503.864 84.2541L501.781 83.7661L499.696 83.3204L497.611 82.916L495.526 82.554L493.443 82.2344L491.362 81.9576L489.285 81.7238L487.213 81.5334L485.148 81.3859L483.09 81.2818L481.04 81.2218L479 81.2051L476.97 81.232L474.952 81.3028L472.947 81.4175L470.956 81.5763L468.981 81.779L467.021 82.0252L465.079 82.3159L463.156 82.65L461.252 83.0276L459.37 83.4486L457.509 83.9136L455.671 84.4215L453.857 84.9728L452.069 85.567L450.306 86.2037L448.571 86.8826L446.864 87.604L445.187 88.3672L443.54 89.1717L441.925 90.0174L440.342 90.904L438.793 91.8307L437.278 92.7977L435.798 93.8039L434.355 94.8492L432.949 95.9331L431.582 97.055L430.254 98.214L428.966 99.4106L427.719 100.643L426.514 101.911L425.351 103.214L424.232 104.552L423.157 105.923L422.128 107.327L421.144 108.763L420.206 110.23L419.317 111.729L418.475 113.257L417.681 114.813L416.937 116.399L416.241 118.01L415.597 119.649L415.004 121.312L414.462 123.001L413.973 124.713L413.535 126.447L413.151 128.202L412.819 129.978L412.541 131.773L412.317 133.586L412.147 135.416L412.032 137.263L411.971 139.125L411.965 141L412.015 142.888L412.119 144.788L412.278 146.697L412.493 148.616L412.762 150.543L413.088 152.476L413.468 154.415L413.904 156.358L414.394 158.303L414.939 160.251L415.538 162.199L416.191 164.146L416.898 166.091L417.66 168.033L418.474 169.969L419.341 171.9L420.26 173.824L421.23 175.739L422.253 177.644L423.325 179.539L424.448 181.42L425.62 183.288L426.841 185.141L428.109 186.978L429.425 188.798L430.787 190.599L432.194 192.379L433.646 194.139L435.142 195.876L436.681 197.59L438.261 199.279L439.882 200.942L441.542 202.578L443.241 204.186L444.978 205.765L446.751 207.313L448.559 208.83L450.401 210.314L452.276 211.765L454.182 213.181L456.119 214.562L458.084 215.907L460.077 217.214L462.095 218.483L464.139 219.713L466.206 220.902L468.296 222.052L470.406 223.159L472.535 224.224L474.682 225.247L476.845 226.226L479.023 227.16L481.214 228.05L483.417 228.893L485.631 229.692L487.853 230.443L490.083 231.148L492.318 231.805L494.558 232.414L496.801 232.975L499.044 233.488L501.288 233.952L503.53 234.366L505.768 234.731L508.002 235.048L510.23 235.314L512.45 235.531L514.661 235.698L516.861 235.815L519.049 235.883L521.224 235.9L523.384 235.868L525.528 235.787L527.654 235.656L529.76 235.476L531.847 235.247L533.911 234.969L535.953 234.643L537.97 234.268L539.962 233.846L541.927 233.377L543.864 232.861L545.772 232.297L547.649 231.688L549.494 231.034L551.307 230.334L553.087 229.59L554.832 228.802L556.54 227.97L558.213 227.097L559.847 226.181L561.443 225.224L562.999 224.226L564.514 223.189L565.989 222.113L567.421 220.998L568.811 219.846L570.157 218.658L571.459 217.434L572.715 216.175L573.926 214.881L575.091 213.555L576.208 212.196L577.278 210.807L578.301 209.386L579.276 207.937L580.201 206.459L581.077 204.954L581.904 203.422L582.68 201.864L583.406 200.282L584.081 198.678L584.706 197.05L585.28 195.401L585.803 193.732L586.274 192.043L586.693 190.337L587.061 188.613L587.377 186.873L587.642 185.118L587.855 183.349L588.015 181.567L588.125 179.773L588.183 177.969L588.189 176.155L588.144 174.332L588.047 172.501L587.9 170.665L587.702 168.822L587.453 166.976L587.154 165.125L586.805 163.274L586.407 161.42L585.959 159.566L585.462 157.713L584.917 155.863L584.323 154.014L583.682 152.171L582.993 150.332L582.259 148.498L581.477 146.673L580.65 144.855L579.777 143.046L578.86 141.246L577.899 139.458L576.895 137.682L575.848 135.918L574.759 134.168L573.628 132.433L572.456 130.714L571.244 129.011L569.993 127.326L568.703 125.658L567.376 124.01L566.011 122.382L564.61 120.775L563.173 119.19L561.701 117.627L560.196 116.087L558.658 114.572L557.087 113.082L555.485 111.618L553.853 110.18Z" stroke="url(#paint0_angular_1_375)" stroke-width="3" stroke-linecap="round" stroke-linejoin="round"/>
<g opacity="0.35">
<circle cx="417" cy="161" r="4" fill="white"/>
<circle opacity="0.5" cx="515" cy="116" r="2" fill="white"/>
<circle opacity="0.5" cx="423" cy="279" r="4" fill="white"/>
<circle opacity="0.3" cx="366" cy="394" r="2" fill="white"/>
<circle cx="265" cy="327" r="2" fill="white"/>
<circle opacity="0.2" cx="362" cy="209" r="2" fill="white"/>
<circle opacity="0.3" cx="548" cy="211" r="2" fill="white"/>
<circle opacity="0.2" cx="607" cy="281" r="2" fill="white"/>
<circle opacity="0.21" cx="789" cy="281" r="2" fill="white"/>
<circle cx="362" cy="65" r="2" fill="white"/>
<circle opacity="0.3" cx="192" cy="132" r="2" fill="white"/>
<circle cx="743" cy="2" r="2" fill="white"/>
</g>
<path d="M834 160C827.373 160 822 154.627 822 148C822 141.373 827.373 136 834 136C840.627 136 846 141.373 846 148C846 154.627 840.627 160 834 160Z" fill="url(#paint1_linear_1_375)"/>
<path d="M4 216C1.79086 216 4.76837e-07 214.209 4.76837e-07 212C4.76837e-07 209.791 1.79086 208 4 208C6.20914 208 8 209.791 8 212C8 214.209 6.20914 216 4 216Z" fill="url(#paint2_linear_1_375)"/>
<path d="M948 216C945.791 216 944 214.209 944 212C944 209.791 945.791 208 948 208C950.209 208 952 209.791 952 212C952 214.209 950.209 216 948 216Z" fill="url(#paint3_linear_1_375)"/>
<path d="M154 336C149.582 336 146 332.418 146 328C146 323.582 149.582 320 154 320C158.418 320 162 323.582 162 328C162 332.418 158.418 336 154 336Z" fill="url(#paint4_linear_1_375)"/>
<defs>
<radialGradient id="paint0_angular_1_375" cx="0" cy="0" r="1" gradientUnits="userSpaceOnUse" gradientTransform="translate(472 206.153) rotate(90) scale(126.153 126)">
<stop offset="0.0993526" stop-color="#FFC876"/>
<stop offset="0.427081" stop-color="#79FFF7"/>
<stop offset="0.718753" stop-color="#9F53FF"/>
<stop offset="1" stop-color="#FF98E2"/>
</radialGradient>
<linearGradient id="paint1_linear_1_375" x1="834" y1="136" x2="834" y2="160" gradientUnits="userSpaceOnUse">
<stop stop-color="#88E5BE"/>
<stop offset="1" stop-color="#1A1A32"/>
</linearGradient>
<linearGradient id="paint2_linear_1_375" x1="4" y1="208" x2="4" y2="216" gradientUnits="userSpaceOnUse">
<stop stop-color="#DD734F"/>
<stop offset="1" stop-color="#1A1A32"/>
</linearGradient>
<linearGradient id="paint3_linear_1_375" x1="948" y1="208" x2="948" y2="216" gradientUnits="userSpaceOnUse">
<stop stop-color="#DD734F"/>
<stop offset="1" stop-color="#1A1A32"/>
</linearGradient>
<linearGradient id="paint4_linear_1_375" x1="154" y1="320" x2="154" y2="336" gradientUnits="userSpaceOnUse">
<stop stop-color="#B9AEDF"/>
<stop offset="1" stop-color="#1A1A32"/>
</linearGradient>
</defs>
</svg>
