<svg width="1602" height="178" viewBox="0 0 1602 178" fill="none" xmlns="http://www.w3.org/2000/svg">
<path d="M227 1H186.398C173.143 1 162.398 11.7452 162.398 25V63C162.398 76.2548 151.653 87 138.398 87H66" stroke="white" stroke-opacity="0.1"/>
<path d="M227 177H186.398C173.143 177 162.398 166.255 162.398 153V115C162.398 101.745 151.653 91 138.398 91H66" stroke="white" stroke-opacity="0.1"/>
<path d="M445.061 41.4278L445.065 41.4302L454.627 46.3974C456.945 47.6017 458.4 49.9967 458.4 52.6092V61.5V89V136C458.4 139.866 455.266 143 451.4 143H256.9C253.034 143 249.9 139.866 249.9 136V42C249.9 38.134 253.034 35 256.9 35H354.15H406.775H431.112C432.247 35 433.366 35.2762 434.37 35.8048L445.061 41.4278Z" stroke="url(#paint0_linear_1_384)" stroke-width="2"/>
<path d="M307.627 73V64.552H304.507V62.568H313.115V64.552H309.995V73H307.627ZM318.965 73.192C318.133 73.192 317.402 72.984 316.773 72.568C316.143 72.152 315.653 71.544 315.301 70.744C314.949 69.9333 314.773 68.9307 314.773 67.736C314.773 66.5733 314.949 65.5973 315.301 64.808C315.653 64.008 316.143 63.4053 316.773 63C317.402 62.584 318.133 62.376 318.965 62.376C319.797 62.376 320.527 62.584 321.157 63C321.786 63.4053 322.277 64.008 322.629 64.808C322.981 65.5973 323.157 66.5733 323.157 67.736C323.157 68.9307 322.981 69.9333 322.629 70.744C322.277 71.544 321.786 72.152 321.157 72.568C320.527 72.984 319.797 73.192 318.965 73.192ZM318.965 71.16C319.327 71.16 319.642 71.032 319.909 70.776C320.175 70.5093 320.378 70.1253 320.517 69.624C320.666 69.112 320.741 68.4827 320.741 67.736C320.741 67.0107 320.666 66.4027 320.517 65.912C320.378 65.4213 320.175 65.048 319.909 64.792C319.642 64.536 319.327 64.408 318.965 64.408C318.602 64.408 318.287 64.536 318.021 64.792C317.754 65.048 317.546 65.4213 317.397 65.912C317.258 66.4027 317.189 67.0107 317.189 67.736C317.189 68.4827 317.258 69.112 317.397 69.624C317.546 70.1253 317.754 70.5093 318.021 70.776C318.287 71.032 318.602 71.16 318.965 71.16ZM325.406 73V62.568H327.79V66.84H327.838L330.926 62.568H333.534L327.79 70.152V73H325.406ZM331.214 73L328.782 68.152L330.174 66.312L333.822 73H331.214ZM335.944 73V62.568H342.856V64.552H338.312V66.648H342.168V68.616H338.312V71.016H343.016V73H335.944ZM345.682 73V62.568H348.098L350.29 67.752L351.186 70.056H351.25C351.196 69.5013 351.127 68.8827 351.042 68.2C350.956 67.5173 350.914 66.872 350.914 66.264V62.568H353.17V73H350.754L348.562 67.8L347.666 65.528H347.602C347.655 66.0933 347.724 66.712 347.81 67.384C347.895 68.0453 347.938 68.6853 347.938 69.304V73H345.682ZM365.989 73V62.568H368.405L370.597 67.752L371.493 70.056H371.557C371.504 69.5013 371.435 68.8827 371.349 68.2C371.264 67.5173 371.221 66.872 371.221 66.264V62.568H373.477V73H371.061L368.869 67.8L367.973 65.528H367.909C367.963 66.0933 368.032 66.712 368.117 67.384C368.203 68.0453 368.245 68.6853 368.245 69.304V73H365.989ZM375.231 73L378.479 62.568H381.295L384.543 73H382.047L380.703 67.72C380.575 67.1973 380.436 66.6427 380.287 66.056C380.138 65.4693 379.999 64.904 379.871 64.36H379.807C379.679 64.904 379.546 65.4693 379.407 66.056C379.268 66.6427 379.13 67.1973 378.991 67.72L377.631 73H375.231ZM377.375 70.52V68.68H382.367V70.52H377.375ZM386.169 73V62.568H388.633L389.657 66.264L390.009 67.704H390.073L390.425 66.264L391.449 62.568H393.913V73H391.929V69.768C391.929 69.48 391.939 69.1227 391.961 68.696C391.982 68.2587 392.009 67.8053 392.041 67.336C392.073 66.8667 392.105 66.4187 392.137 65.992C392.179 65.5653 392.211 65.2133 392.233 64.936H392.185L391.385 67.72L390.585 70.232H389.433L388.617 67.72L387.865 64.936H387.817C387.838 65.2133 387.865 65.5653 387.897 65.992C387.939 66.4187 387.977 66.8667 388.009 67.336C388.041 67.8053 388.067 68.2587 388.089 68.696C388.11 69.1227 388.121 69.48 388.121 69.768V73H386.169ZM396.867 73V62.568H403.779V64.552H399.235V66.648H403.091V68.616H399.235V71.016H403.939V73H396.867Z" fill="white"/>
<path d="M287.142 116V102.96H295.802V105.44H290.082V108.46H294.962V110.94H290.082V116H287.142ZM297.915 116L301.975 102.96H305.495L309.555 116H306.435L304.755 109.4C304.595 108.747 304.421 108.053 304.235 107.32C304.048 106.587 303.875 105.88 303.715 105.2H303.635C303.475 105.88 303.308 106.587 303.135 107.32C302.961 108.053 302.788 108.747 302.615 109.4L300.915 116H297.915ZM300.595 112.9V110.6H306.835V112.9H300.595ZM311.747 116V102.96H314.767L317.507 109.44L318.627 112.32H318.707C318.64 111.627 318.554 110.853 318.447 110C318.34 109.147 318.287 108.34 318.287 107.58V102.96H321.107V116H318.087L315.347 109.5L314.227 106.66H314.147C314.214 107.367 314.3 108.14 314.407 108.98C314.514 109.807 314.567 110.607 314.567 111.38V116H311.747ZM337.291 116V113.52H340.331V105.44H337.291V102.96H346.331V105.44H343.291V113.52H346.331V116H337.291ZM349.823 116V102.96H352.843L355.583 109.44L356.703 112.32H356.783C356.717 111.627 356.63 110.853 356.523 110C356.417 109.147 356.363 108.34 356.363 107.58V102.96H359.183V116H356.163L353.423 109.5L352.303 106.66H352.223C352.29 107.367 352.377 108.14 352.483 108.98C352.59 109.807 352.643 110.607 352.643 111.38V116H349.823ZM367.236 116.24C366.436 116.24 365.736 116.127 365.136 115.9C364.549 115.66 364.056 115.32 363.656 114.88C363.269 114.427 362.976 113.88 362.776 113.24C362.576 112.587 362.476 111.833 362.476 110.98V102.96H365.416V111.28C365.416 111.8 365.482 112.24 365.616 112.6C365.749 112.96 365.949 113.233 366.216 113.42C366.482 113.607 366.822 113.7 367.236 113.7C367.649 113.7 367.989 113.607 368.256 113.42C368.536 113.233 368.742 112.96 368.876 112.6C369.009 112.24 369.076 111.8 369.076 111.28V102.96H371.916V110.98C371.916 111.833 371.822 112.587 371.636 113.24C371.449 113.88 371.156 114.427 370.756 114.88C370.369 115.32 369.882 115.66 369.296 115.9C368.709 116.127 368.022 116.24 367.236 116.24ZM388.08 116V102.96H392.7C393.647 102.96 394.5 103.093 395.26 103.36C396.033 103.613 396.647 104.047 397.1 104.66C397.567 105.273 397.8 106.107 397.8 107.16C397.8 108.173 397.567 109.007 397.1 109.66C396.633 110.313 396.013 110.8 395.24 111.12C394.467 111.427 393.62 111.58 392.7 111.58H391.02V116H388.08ZM391.02 109.24H392.52C393.333 109.24 393.933 109.06 394.32 108.7C394.72 108.34 394.92 107.827 394.92 107.16C394.92 106.467 394.713 105.987 394.3 105.72C393.9 105.44 393.307 105.3 392.52 105.3H391.02V109.24ZM399.452 116L403.512 102.96H407.032L411.092 116H407.972L406.292 109.4C406.132 108.747 405.959 108.053 405.772 107.32C405.586 106.587 405.412 105.88 405.252 105.2H405.172C405.012 105.88 404.846 106.587 404.672 107.32C404.499 108.053 404.326 108.747 404.152 109.4L402.452 116H399.452ZM402.132 112.9V110.6H408.372V112.9H402.132ZM413.364 116V102.96H416.964C418.231 102.96 419.331 103.187 420.264 103.64C421.211 104.093 421.944 104.8 422.464 105.76C422.984 106.707 423.244 107.927 423.244 109.42C423.244 110.913 422.984 112.147 422.464 113.12C421.958 114.093 421.244 114.82 420.324 115.3C419.404 115.767 418.344 116 417.144 116H413.364ZM416.324 113.62H416.804C417.498 113.62 418.098 113.487 418.604 113.22C419.111 112.953 419.504 112.513 419.784 111.9C420.078 111.287 420.224 110.46 420.224 109.42C420.224 108.38 420.078 107.567 419.784 106.98C419.504 106.38 419.111 105.96 418.604 105.72C418.098 105.467 417.498 105.34 416.804 105.34H416.324V113.62Z" fill="#AC6AFF"/>
<path d="M742.96 41.4278L742.965 41.4302L752.527 46.3974C754.845 47.6017 756.3 49.9967 756.3 52.6092V61.5V89V136C756.3 139.866 753.166 143 749.3 143H554.8C550.934 143 547.8 139.866 547.8 136V42C547.8 38.134 550.934 35 554.8 35H652.05H704.675H729.012C730.147 35 731.265 35.2762 732.27 35.8048L742.96 41.4278Z" stroke="url(#paint1_linear_1_384)" stroke-width="2"/>
<path d="M627.086 73.192C626.382 73.192 625.684 73.064 624.99 72.808C624.308 72.552 623.684 72.1787 623.118 71.688L624.478 70.072C624.873 70.392 625.305 70.6533 625.774 70.856C626.254 71.0587 626.745 71.16 627.246 71.16C627.748 71.16 628.116 71.0747 628.35 70.904C628.596 70.7333 628.718 70.5147 628.718 70.248C628.718 70.0027 628.654 69.8107 628.526 69.672C628.398 69.5227 628.212 69.3947 627.966 69.288C627.721 69.1707 627.433 69.0427 627.102 68.904L625.758 68.328C625.374 68.1787 625.012 67.9813 624.67 67.736C624.329 67.48 624.052 67.1707 623.838 66.808C623.636 66.4347 623.534 65.992 623.534 65.48C623.534 64.904 623.694 64.3867 624.014 63.928C624.345 63.4587 624.793 63.0853 625.358 62.808C625.934 62.52 626.601 62.376 627.358 62.376C627.988 62.376 628.606 62.4933 629.214 62.728C629.822 62.9627 630.361 63.304 630.83 63.752L629.63 65.24C629.268 64.9733 628.905 64.7707 628.542 64.632C628.18 64.4827 627.742 64.408 627.23 64.408C626.846 64.408 626.532 64.488 626.286 64.648C626.041 64.808 625.918 65.0427 625.918 65.352C625.918 65.5547 625.993 65.7253 626.142 65.864C626.292 66.0027 626.494 66.1253 626.75 66.232C627.006 66.3387 627.3 66.456 627.63 66.584L628.894 67.128C629.364 67.2987 629.764 67.512 630.094 67.768C630.425 68.0133 630.681 68.3173 630.862 68.68C631.044 69.0427 631.134 69.4693 631.134 69.96C631.134 70.536 630.974 71.0693 630.654 71.56C630.345 72.0507 629.886 72.4453 629.278 72.744C628.681 73.0427 627.95 73.192 627.086 73.192ZM636.088 73V69.48L632.728 62.568H635.256L636.312 65.08C636.472 65.4747 636.627 65.8693 636.776 66.264C636.936 66.648 637.096 67.048 637.256 67.464H637.32C637.491 67.048 637.656 66.648 637.816 66.264C637.987 65.8693 638.147 65.4747 638.296 65.08L639.352 62.568H641.816L638.456 69.48V73H636.088ZM643.554 73V62.568H646.018L647.042 66.264L647.394 67.704H647.458L647.81 66.264L648.834 62.568H651.298V73H649.314V69.768C649.314 69.48 649.324 69.1227 649.346 68.696C649.367 68.2587 649.394 67.8053 649.426 67.336C649.458 66.8667 649.49 66.4187 649.522 65.992C649.564 65.5653 649.596 65.2133 649.618 64.936H649.57L648.77 67.72L647.97 70.232H646.818L646.002 67.72L645.25 64.936H645.202C645.223 65.2133 645.25 65.5653 645.282 65.992C645.324 66.4187 645.362 66.8667 645.394 67.336C645.426 67.8053 645.452 68.2587 645.474 68.696C645.495 69.1227 645.506 69.48 645.506 69.768V73H643.554ZM653.964 73V62.568H657.468C658.193 62.568 658.844 62.648 659.42 62.808C659.996 62.9573 660.449 63.2187 660.78 63.592C661.121 63.9653 661.292 64.488 661.292 65.16C661.292 65.6293 661.148 66.0827 660.86 66.52C660.572 66.9573 660.118 67.256 659.5 67.416V67.48C660.246 67.608 660.812 67.8747 661.196 68.28C661.58 68.6747 661.772 69.224 661.772 69.928C661.772 70.632 661.596 71.2133 661.244 71.672C660.892 72.12 660.412 72.456 659.804 72.68C659.206 72.8933 658.529 73 657.772 73H653.964ZM656.316 66.76H657.356C657.932 66.76 658.348 66.648 658.604 66.424C658.86 66.1893 658.988 65.8747 658.988 65.48C658.988 65.096 658.854 64.824 658.588 64.664C658.332 64.4933 657.926 64.408 657.372 64.408H656.316V66.76ZM656.316 71.16H657.58C658.22 71.16 658.694 71.0427 659.004 70.808C659.313 70.5733 659.468 70.2213 659.468 69.752C659.468 69.2933 659.313 68.9627 659.004 68.76C658.694 68.5573 658.22 68.456 657.58 68.456H656.316V71.16ZM667.733 73.192C666.901 73.192 666.171 72.984 665.541 72.568C664.912 72.152 664.421 71.544 664.069 70.744C663.717 69.9333 663.541 68.9307 663.541 67.736C663.541 66.5733 663.717 65.5973 664.069 64.808C664.421 64.008 664.912 63.4053 665.541 63C666.171 62.584 666.901 62.376 667.733 62.376C668.565 62.376 669.296 62.584 669.925 63C670.555 63.4053 671.045 64.008 671.397 64.808C671.749 65.5973 671.925 66.5733 671.925 67.736C671.925 68.9307 671.749 69.9333 671.397 70.744C671.045 71.544 670.555 72.152 669.925 72.568C669.296 72.984 668.565 73.192 667.733 73.192ZM667.733 71.16C668.096 71.16 668.411 71.032 668.677 70.776C668.944 70.5093 669.147 70.1253 669.285 69.624C669.435 69.112 669.509 68.4827 669.509 67.736C669.509 67.0107 669.435 66.4027 669.285 65.912C669.147 65.4213 668.944 65.048 668.677 64.792C668.411 64.536 668.096 64.408 667.733 64.408C667.371 64.408 667.056 64.536 666.789 64.792C666.523 65.048 666.315 65.4213 666.165 65.912C666.027 66.4027 665.957 67.0107 665.957 67.736C665.957 68.4827 666.027 69.112 666.165 69.624C666.315 70.1253 666.523 70.5093 666.789 70.776C667.056 71.032 667.371 71.16 667.733 71.16ZM674.799 73V62.568H677.151V71.016H681.791V73H674.799Z" fill="white"/>
<path d="M622.4 113.7L623.68 111.7C624.32 112.087 624.926 112.393 625.5 112.62C626.073 112.833 626.673 112.94 627.3 112.94C627.78 112.94 628.146 112.86 628.4 112.7C628.653 112.54 628.78 112.32 628.78 112.04C628.78 111.76 628.633 111.527 628.34 111.34C628.06 111.14 627.7 110.96 627.26 110.8C626.82 110.627 626.346 110.447 625.84 110.26C625.346 110.073 624.88 109.84 624.44 109.56C624 109.28 623.64 108.933 623.36 108.52C623.08 108.107 622.94 107.593 622.94 106.98C622.94 106.3 623.12 105.713 623.48 105.22C623.84 104.713 624.346 104.327 625 104.06C625.666 103.78 626.446 103.64 627.34 103.64C628.26 103.64 629.04 103.8 629.68 104.12C630.32 104.44 630.886 104.847 631.38 105.34L629.92 107.02C629.453 106.687 629.006 106.44 628.58 106.28C628.166 106.107 627.686 106.02 627.14 106.02C626.7 106.02 626.36 106.1 626.12 106.26C625.88 106.42 625.76 106.647 625.76 106.94C625.76 107.167 625.9 107.367 626.18 107.54C626.46 107.713 626.82 107.88 627.26 108.04C627.7 108.187 628.166 108.36 628.66 108.56C629.166 108.747 629.64 108.98 630.08 109.26C630.52 109.54 630.88 109.887 631.16 110.3C631.44 110.7 631.58 111.207 631.58 111.82C631.58 112.487 631.4 113.087 631.04 113.62C630.68 114.14 630.146 114.553 629.44 114.86C628.746 115.167 627.886 115.32 626.86 115.32C626.393 115.32 625.886 115.253 625.34 115.12C624.806 114.987 624.28 114.8 623.76 114.56C623.253 114.32 622.8 114.033 622.4 113.7ZM626.22 104.56V101.1H628.18V104.56H626.22ZM626.22 114.12H628.18V118.2H626.22V114.12ZM635.912 116V102.96H644.572V105.44H638.852V108.46H643.732V110.94H638.852V116H635.912ZM646.684 116L650.744 102.96H654.264L658.324 116H655.204L653.524 109.4C653.364 108.747 653.191 108.053 653.004 107.32C652.817 106.587 652.644 105.88 652.484 105.2H652.404C652.244 105.88 652.077 106.587 651.904 107.32C651.731 108.053 651.557 108.747 651.384 109.4L649.684 116H646.684ZM649.364 112.9V110.6H655.604V112.9H649.364ZM660.516 116V102.96H663.536L666.276 109.44L667.396 112.32H667.476C667.409 111.627 667.323 110.853 667.216 110C667.109 109.147 667.056 108.34 667.056 107.58V102.96H669.876V116H666.856L664.116 109.5L662.996 106.66H662.916C662.983 107.367 663.069 108.14 663.176 108.98C663.283 109.807 663.336 110.607 663.336 111.38V116H660.516ZM673.368 116V113.52H676.408V105.44H673.368V102.96H682.408V105.44H679.368V113.52H682.408V116H673.368Z" fill="#AC6AFF"/>
<path d="M1040.86 41.4278L1040.87 41.4302L1050.43 46.3974C1052.75 47.6017 1054.2 49.9967 1054.2 52.6092V61.5V89V136C1054.2 139.866 1051.07 143 1047.2 143H852.7C848.834 143 845.7 139.866 845.7 136V42C845.7 38.134 848.834 35 852.7 35H949.95H1002.58H1026.91C1028.05 35 1029.17 35.2762 1030.17 35.8048L1040.86 41.4278Z" stroke="url(#paint2_linear_1_384)" stroke-width="2"/>
<path d="M900.939 73V62.568H903.403L904.427 66.264L904.779 67.704H904.843L905.195 66.264L906.219 62.568H908.683V73H906.699V69.768C906.699 69.48 906.709 69.1227 906.731 68.696C906.752 68.2587 906.779 67.8053 906.811 67.336C906.843 66.8667 906.875 66.4187 906.907 65.992C906.949 65.5653 906.981 65.2133 907.003 64.936H906.955L906.155 67.72L905.355 70.232H904.203L903.387 67.72L902.635 64.936H902.587C902.608 65.2133 902.635 65.5653 902.667 65.992C902.709 66.4187 902.747 66.8667 902.779 67.336C902.811 67.8053 902.837 68.2587 902.859 68.696C902.88 69.1227 902.891 69.48 902.891 69.768V73H900.939ZM910.309 73L913.557 62.568H916.373L919.621 73H917.125L915.781 67.72C915.653 67.1973 915.514 66.6427 915.365 66.056C915.215 65.4693 915.077 64.904 914.949 64.36H914.885C914.757 64.904 914.623 65.4693 914.485 66.056C914.346 66.6427 914.207 67.1973 914.069 67.72L912.709 73H910.309ZM912.453 70.52V68.68H917.445V70.52H912.453ZM920.606 73L923.646 67.64L920.782 62.568H923.422L924.43 64.536C924.548 64.7707 924.67 65.0267 924.798 65.304C924.926 65.5813 925.07 65.8853 925.23 66.216H925.294C925.412 65.8853 925.529 65.5813 925.646 65.304C925.764 65.0267 925.881 64.7707 925.998 64.536L926.926 62.568H929.454L926.59 67.752L929.63 73H927.006L925.87 70.872C925.732 70.5947 925.593 70.3227 925.454 70.056C925.326 69.7787 925.188 69.48 925.038 69.16H924.974C924.846 69.48 924.718 69.7787 924.59 70.056C924.462 70.3227 924.334 70.5947 924.206 70.872L923.118 73H920.606ZM945.394 73.192C944.69 73.192 943.991 73.064 943.298 72.808C942.615 72.552 941.991 72.1787 941.426 71.688L942.786 70.072C943.18 70.392 943.612 70.6533 944.082 70.856C944.562 71.0587 945.052 71.16 945.554 71.16C946.055 71.16 946.423 71.0747 946.658 70.904C946.903 70.7333 947.026 70.5147 947.026 70.248C947.026 70.0027 946.962 69.8107 946.834 69.672C946.706 69.5227 946.519 69.3947 946.274 69.288C946.028 69.1707 945.74 69.0427 945.41 68.904L944.066 68.328C943.682 68.1787 943.319 67.9813 942.978 67.736C942.636 67.48 942.359 67.1707 942.146 66.808C941.943 66.4347 941.842 65.992 941.842 65.48C941.842 64.904 942.002 64.3867 942.322 63.928C942.652 63.4587 943.1 63.0853 943.666 62.808C944.242 62.52 944.908 62.376 945.666 62.376C946.295 62.376 946.914 62.4933 947.522 62.728C948.13 62.9627 948.668 63.304 949.138 63.752L947.938 65.24C947.575 64.9733 947.212 64.7707 946.85 64.632C946.487 64.4827 946.05 64.408 945.538 64.408C945.154 64.408 944.839 64.488 944.594 64.648C944.348 64.808 944.226 65.0427 944.226 65.352C944.226 65.5547 944.3 65.7253 944.45 65.864C944.599 66.0027 944.802 66.1253 945.058 66.232C945.314 66.3387 945.607 66.456 945.938 66.584L947.202 67.128C947.671 67.2987 948.071 67.512 948.402 67.768C948.732 68.0133 948.988 68.3173 949.17 68.68C949.351 69.0427 949.442 69.4693 949.442 69.96C949.442 70.536 949.282 71.0693 948.962 71.56C948.652 72.0507 948.194 72.4453 947.586 72.744C946.988 73.0427 946.258 73.192 945.394 73.192ZM955.612 73.192C954.972 73.192 954.412 73.1013 953.932 72.92C953.462 72.728 953.068 72.456 952.748 72.104C952.438 71.7413 952.204 71.304 952.044 70.792C951.884 70.2693 951.804 69.6667 951.804 68.984V62.568H954.156V69.224C954.156 69.64 954.209 69.992 954.316 70.28C954.422 70.568 954.582 70.7867 954.796 70.936C955.009 71.0853 955.281 71.16 955.612 71.16C955.942 71.16 956.214 71.0853 956.428 70.936C956.652 70.7867 956.817 70.568 956.924 70.28C957.03 69.992 957.084 69.64 957.084 69.224V62.568H959.356V68.984C959.356 69.6667 959.281 70.2693 959.132 70.792C958.982 71.304 958.748 71.7413 958.428 72.104C958.118 72.456 957.729 72.728 957.26 72.92C956.79 73.1013 956.241 73.192 955.612 73.192ZM962.133 73V62.568H965.829C966.587 62.568 967.269 62.6747 967.877 62.888C968.496 63.0907 968.987 63.4373 969.349 63.928C969.723 64.4187 969.909 65.0853 969.909 65.928C969.909 66.7387 969.723 67.4053 969.349 67.928C968.976 68.4507 968.48 68.84 967.861 69.096C967.243 69.3413 966.565 69.464 965.829 69.464H964.485V73H962.133ZM964.485 67.592H965.685C966.336 67.592 966.816 67.448 967.125 67.16C967.445 66.872 967.605 66.4613 967.605 65.928C967.605 65.3733 967.44 64.9893 967.109 64.776C966.789 64.552 966.315 64.44 965.685 64.44H964.485V67.592ZM972.287 73V62.568H975.983C976.74 62.568 977.423 62.6747 978.031 62.888C978.65 63.0907 979.14 63.4373 979.503 63.928C979.876 64.4187 980.063 65.0853 980.063 65.928C980.063 66.7387 979.876 67.4053 979.503 67.928C979.13 68.4507 978.634 68.84 978.015 69.096C977.396 69.3413 976.719 69.464 975.983 69.464H974.639V73H972.287ZM974.639 67.592H975.839C976.49 67.592 976.97 67.448 977.279 67.16C977.599 66.872 977.759 66.4613 977.759 65.928C977.759 65.3733 977.594 64.9893 977.263 64.776C976.943 64.552 976.468 64.44 975.839 64.44H974.639V67.592ZM982.953 73V62.568H985.305V71.016H989.945V73H982.953ZM995.011 73V69.48L991.651 62.568H994.179L995.235 65.08C995.395 65.4747 995.549 65.8693 995.699 66.264C995.859 66.648 996.019 67.048 996.179 67.464H996.243C996.413 67.048 996.579 66.648 996.739 66.264C996.909 65.8693 997.069 65.4747 997.219 65.08L998.275 62.568H1000.74L997.379 69.48V73H995.011Z" fill="white"/>
<path d="M881.203 116V114.32C882.416 113.293 883.476 112.367 884.383 111.54C885.303 110.7 886.016 109.933 886.523 109.24C887.03 108.533 887.283 107.88 887.283 107.28C887.283 106.653 887.096 106.18 886.723 105.86C886.363 105.527 885.856 105.36 885.203 105.36C884.696 105.36 884.23 105.493 883.803 105.76C883.39 106.013 883.003 106.313 882.643 106.66L881.063 105.08C881.716 104.4 882.39 103.893 883.083 103.56C883.79 103.227 884.63 103.06 885.603 103.06C886.483 103.06 887.256 103.227 887.923 103.56C888.603 103.893 889.13 104.367 889.503 104.98C889.89 105.58 890.083 106.287 890.083 107.1C890.083 107.82 889.863 108.547 889.423 109.28C888.996 110.013 888.423 110.753 887.703 111.5C886.996 112.233 886.236 112.96 885.423 113.68C885.783 113.64 886.176 113.607 886.603 113.58C887.03 113.54 887.403 113.52 887.723 113.52H890.743V116H881.203ZM898.735 116.24C897.762 116.24 896.908 115.987 896.175 115.48C895.442 114.96 894.868 114.207 894.455 113.22C894.055 112.233 893.855 111.027 893.855 109.6C893.855 107.427 894.302 105.793 895.195 104.7C896.088 103.607 897.268 103.06 898.735 103.06C900.215 103.06 901.395 103.607 902.275 104.7C903.168 105.793 903.615 107.427 903.615 109.6C903.615 111.027 903.408 112.233 902.995 113.22C902.595 114.207 902.028 114.96 901.295 115.48C900.575 115.987 899.722 116.24 898.735 116.24ZM898.735 113.96C899.162 113.96 899.542 113.827 899.875 113.56C900.222 113.293 900.495 112.84 900.695 112.2C900.895 111.56 900.995 110.693 900.995 109.6C900.995 108.493 900.895 107.633 900.695 107.02C900.495 106.393 900.222 105.96 899.875 105.72C899.542 105.467 899.162 105.34 898.735 105.34C898.322 105.34 897.942 105.467 897.595 105.72C897.248 105.96 896.975 106.393 896.775 107.02C896.575 107.633 896.475 108.493 896.475 109.6C896.475 110.693 896.575 111.56 896.775 112.2C896.975 112.84 897.248 113.293 897.595 113.56C897.942 113.827 898.322 113.96 898.735 113.96ZM898.735 111.08C898.322 111.08 897.968 110.94 897.675 110.66C897.382 110.38 897.235 110.013 897.235 109.56C897.235 109.093 897.382 108.727 897.675 108.46C897.968 108.18 898.322 108.04 898.735 108.04C899.162 108.04 899.515 108.18 899.795 108.46C900.088 108.727 900.235 109.093 900.235 109.56C900.235 110.013 900.088 110.38 899.795 110.66C899.515 110.94 899.162 111.08 898.735 111.08ZM911.427 116.24C910.454 116.24 909.601 115.987 908.867 115.48C908.134 114.96 907.561 114.207 907.147 113.22C906.747 112.233 906.547 111.027 906.547 109.6C906.547 107.427 906.994 105.793 907.887 104.7C908.781 103.607 909.961 103.06 911.427 103.06C912.907 103.06 914.087 103.607 914.967 104.7C915.861 105.793 916.307 107.427 916.307 109.6C916.307 111.027 916.101 112.233 915.687 113.22C915.287 114.207 914.721 114.96 913.987 115.48C913.267 115.987 912.414 116.24 911.427 116.24ZM911.427 113.96C911.854 113.96 912.234 113.827 912.567 113.56C912.914 113.293 913.187 112.84 913.387 112.2C913.587 111.56 913.687 110.693 913.687 109.6C913.687 108.493 913.587 107.633 913.387 107.02C913.187 106.393 912.914 105.96 912.567 105.72C912.234 105.467 911.854 105.34 911.427 105.34C911.014 105.34 910.634 105.467 910.287 105.72C909.941 105.96 909.667 106.393 909.467 107.02C909.267 107.633 909.167 108.493 909.167 109.6C909.167 110.693 909.267 111.56 909.467 112.2C909.667 112.84 909.941 113.293 910.287 113.56C910.634 113.827 911.014 113.96 911.427 113.96ZM911.427 111.08C911.014 111.08 910.661 110.94 910.367 110.66C910.074 110.38 909.927 110.013 909.927 109.56C909.927 109.093 910.074 108.727 910.367 108.46C910.661 108.18 911.014 108.04 911.427 108.04C911.854 108.04 912.207 108.18 912.487 108.46C912.781 108.727 912.927 109.093 912.927 109.56C912.927 110.013 912.781 110.38 912.487 110.66C912.207 110.94 911.854 111.08 911.427 111.08ZM922.5 120.34L921.76 118.62C922.653 118.313 923.313 117.913 923.74 117.42C924.18 116.927 924.386 116.36 924.36 115.72L924.26 113.34L925.46 115.34C925.273 115.5 925.066 115.62 924.84 115.7C924.626 115.767 924.393 115.8 924.14 115.8C923.766 115.8 923.413 115.72 923.08 115.56C922.746 115.4 922.48 115.173 922.28 114.88C922.08 114.573 921.98 114.2 921.98 113.76C921.98 113.147 922.2 112.653 922.64 112.28C923.08 111.893 923.606 111.7 924.22 111.7C925.046 111.7 925.666 112.007 926.08 112.62C926.493 113.22 926.7 114.06 926.7 115.14C926.7 116.407 926.34 117.48 925.62 118.36C924.913 119.253 923.873 119.913 922.5 120.34ZM936.812 116.24C935.838 116.24 934.985 115.987 934.252 115.48C933.518 114.96 932.945 114.207 932.532 113.22C932.132 112.233 931.932 111.027 931.932 109.6C931.932 107.427 932.378 105.793 933.272 104.7C934.165 103.607 935.345 103.06 936.812 103.06C938.292 103.06 939.472 103.607 940.352 104.7C941.245 105.793 941.692 107.427 941.692 109.6C941.692 111.027 941.485 112.233 941.072 113.22C940.672 114.207 940.105 114.96 939.372 115.48C938.652 115.987 937.798 116.24 936.812 116.24ZM936.812 113.96C937.238 113.96 937.618 113.827 937.952 113.56C938.298 113.293 938.572 112.84 938.772 112.2C938.972 111.56 939.072 110.693 939.072 109.6C939.072 108.493 938.972 107.633 938.772 107.02C938.572 106.393 938.298 105.96 937.952 105.72C937.618 105.467 937.238 105.34 936.812 105.34C936.398 105.34 936.018 105.467 935.672 105.72C935.325 105.96 935.052 106.393 934.852 107.02C934.652 107.633 934.552 108.493 934.552 109.6C934.552 110.693 934.652 111.56 934.852 112.2C935.052 112.84 935.325 113.293 935.672 113.56C936.018 113.827 936.398 113.96 936.812 113.96ZM936.812 111.08C936.398 111.08 936.045 110.94 935.752 110.66C935.458 110.38 935.312 110.013 935.312 109.56C935.312 109.093 935.458 108.727 935.752 108.46C936.045 108.18 936.398 108.04 936.812 108.04C937.238 108.04 937.592 108.18 937.872 108.46C938.165 108.727 938.312 109.093 938.312 109.56C938.312 110.013 938.165 110.38 937.872 110.66C937.592 110.94 937.238 111.08 936.812 111.08ZM949.504 116.24C948.531 116.24 947.677 115.987 946.944 115.48C946.211 114.96 945.637 114.207 945.224 113.22C944.824 112.233 944.624 111.027 944.624 109.6C944.624 107.427 945.071 105.793 945.964 104.7C946.857 103.607 948.037 103.06 949.504 103.06C950.984 103.06 952.164 103.607 953.044 104.7C953.937 105.793 954.384 107.427 954.384 109.6C954.384 111.027 954.177 112.233 953.764 113.22C953.364 114.207 952.797 114.96 952.064 115.48C951.344 115.987 950.491 116.24 949.504 116.24ZM949.504 113.96C949.931 113.96 950.311 113.827 950.644 113.56C950.991 113.293 951.264 112.84 951.464 112.2C951.664 111.56 951.764 110.693 951.764 109.6C951.764 108.493 951.664 107.633 951.464 107.02C951.264 106.393 950.991 105.96 950.644 105.72C950.311 105.467 949.931 105.34 949.504 105.34C949.091 105.34 948.711 105.467 948.364 105.72C948.017 105.96 947.744 106.393 947.544 107.02C947.344 107.633 947.244 108.493 947.244 109.6C947.244 110.693 947.344 111.56 947.544 112.2C947.744 112.84 948.017 113.293 948.364 113.56C948.711 113.827 949.091 113.96 949.504 113.96ZM949.504 111.08C949.091 111.08 948.737 110.94 948.444 110.66C948.151 110.38 948.004 110.013 948.004 109.56C948.004 109.093 948.151 108.727 948.444 108.46C948.737 108.18 949.091 108.04 949.504 108.04C949.931 108.04 950.284 108.18 950.564 108.46C950.857 108.727 951.004 109.093 951.004 109.56C951.004 110.013 950.857 110.38 950.564 110.66C950.284 110.94 949.931 111.08 949.504 111.08ZM962.196 116.24C961.223 116.24 960.369 115.987 959.636 115.48C958.903 114.96 958.329 114.207 957.916 113.22C957.516 112.233 957.316 111.027 957.316 109.6C957.316 107.427 957.763 105.793 958.656 104.7C959.549 103.607 960.729 103.06 962.196 103.06C963.676 103.06 964.856 103.607 965.736 104.7C966.629 105.793 967.076 107.427 967.076 109.6C967.076 111.027 966.869 112.233 966.456 113.22C966.056 114.207 965.489 114.96 964.756 115.48C964.036 115.987 963.183 116.24 962.196 116.24ZM962.196 113.96C962.623 113.96 963.003 113.827 963.336 113.56C963.683 113.293 963.956 112.84 964.156 112.2C964.356 111.56 964.456 110.693 964.456 109.6C964.456 108.493 964.356 107.633 964.156 107.02C963.956 106.393 963.683 105.96 963.336 105.72C963.003 105.467 962.623 105.34 962.196 105.34C961.783 105.34 961.403 105.467 961.056 105.72C960.709 105.96 960.436 106.393 960.236 107.02C960.036 107.633 959.936 108.493 959.936 109.6C959.936 110.693 960.036 111.56 960.236 112.2C960.436 112.84 960.709 113.293 961.056 113.56C961.403 113.827 961.783 113.96 962.196 113.96ZM962.196 111.08C961.783 111.08 961.429 110.94 961.136 110.66C960.843 110.38 960.696 110.013 960.696 109.56C960.696 109.093 960.843 108.727 961.136 108.46C961.429 108.18 961.783 108.04 962.196 108.04C962.623 108.04 962.976 108.18 963.256 108.46C963.549 108.727 963.696 109.093 963.696 109.56C963.696 110.013 963.549 110.38 963.256 110.66C962.976 110.94 962.623 111.08 962.196 111.08ZM973.268 120.34L972.528 118.62C973.422 118.313 974.082 117.913 974.508 117.42C974.948 116.927 975.155 116.36 975.128 115.72L975.028 113.34L976.228 115.34C976.042 115.5 975.835 115.62 975.608 115.7C975.395 115.767 975.162 115.8 974.908 115.8C974.535 115.8 974.182 115.72 973.848 115.56C973.515 115.4 973.248 115.173 973.048 114.88C972.848 114.573 972.748 114.2 972.748 113.76C972.748 113.147 972.968 112.653 973.408 112.28C973.848 111.893 974.375 111.7 974.988 111.7C975.815 111.7 976.435 112.007 976.848 112.62C977.262 113.22 977.468 114.06 977.468 115.14C977.468 116.407 977.108 117.48 976.388 118.36C975.682 119.253 974.642 119.913 973.268 120.34ZM987.58 116.24C986.607 116.24 985.754 115.987 985.02 115.48C984.287 114.96 983.714 114.207 983.3 113.22C982.9 112.233 982.7 111.027 982.7 109.6C982.7 107.427 983.147 105.793 984.04 104.7C984.934 103.607 986.114 103.06 987.58 103.06C989.06 103.06 990.24 103.607 991.12 104.7C992.014 105.793 992.46 107.427 992.46 109.6C992.46 111.027 992.254 112.233 991.84 113.22C991.44 114.207 990.874 114.96 990.14 115.48C989.42 115.987 988.567 116.24 987.58 116.24ZM987.58 113.96C988.007 113.96 988.387 113.827 988.72 113.56C989.067 113.293 989.34 112.84 989.54 112.2C989.74 111.56 989.84 110.693 989.84 109.6C989.84 108.493 989.74 107.633 989.54 107.02C989.34 106.393 989.067 105.96 988.72 105.72C988.387 105.467 988.007 105.34 987.58 105.34C987.167 105.34 986.787 105.467 986.44 105.72C986.094 105.96 985.82 106.393 985.62 107.02C985.42 107.633 985.32 108.493 985.32 109.6C985.32 110.693 985.42 111.56 985.62 112.2C985.82 112.84 986.094 113.293 986.44 113.56C986.787 113.827 987.167 113.96 987.58 113.96ZM987.58 111.08C987.167 111.08 986.814 110.94 986.52 110.66C986.227 110.38 986.08 110.013 986.08 109.56C986.08 109.093 986.227 108.727 986.52 108.46C986.814 108.18 987.167 108.04 987.58 108.04C988.007 108.04 988.36 108.18 988.64 108.46C988.934 108.727 989.08 109.093 989.08 109.56C989.08 110.013 988.934 110.38 988.64 110.66C988.36 110.94 988.007 111.08 987.58 111.08ZM1000.27 116.24C999.299 116.24 998.446 115.987 997.713 115.48C996.979 114.96 996.406 114.207 995.993 113.22C995.593 112.233 995.393 111.027 995.393 109.6C995.393 107.427 995.839 105.793 996.733 104.7C997.626 103.607 998.806 103.06 1000.27 103.06C1001.75 103.06 1002.93 103.607 1003.81 104.7C1004.71 105.793 1005.15 107.427 1005.15 109.6C1005.15 111.027 1004.95 112.233 1004.53 113.22C1004.13 114.207 1003.57 114.96 1002.83 115.48C1002.11 115.987 1001.26 116.24 1000.27 116.24ZM1000.27 113.96C1000.7 113.96 1001.08 113.827 1001.41 113.56C1001.76 113.293 1002.03 112.84 1002.23 112.2C1002.43 111.56 1002.53 110.693 1002.53 109.6C1002.53 108.493 1002.43 107.633 1002.23 107.02C1002.03 106.393 1001.76 105.96 1001.41 105.72C1001.08 105.467 1000.7 105.34 1000.27 105.34C999.859 105.34 999.479 105.467 999.133 105.72C998.786 105.96 998.513 106.393 998.313 107.02C998.113 107.633 998.013 108.493 998.013 109.6C998.013 110.693 998.113 111.56 998.313 112.2C998.513 112.84 998.786 113.293 999.133 113.56C999.479 113.827 999.859 113.96 1000.27 113.96ZM1000.27 111.08C999.859 111.08 999.506 110.94 999.213 110.66C998.919 110.38 998.773 110.013 998.773 109.56C998.773 109.093 998.919 108.727 999.213 108.46C999.506 108.18 999.859 108.04 1000.27 108.04C1000.7 108.04 1001.05 108.18 1001.33 108.46C1001.63 108.727 1001.77 109.093 1001.77 109.56C1001.77 110.013 1001.63 110.38 1001.33 110.66C1001.05 110.94 1000.7 111.08 1000.27 111.08ZM1012.96 116.24C1011.99 116.24 1011.14 115.987 1010.4 115.48C1009.67 114.96 1009.1 114.207 1008.68 113.22C1008.28 112.233 1008.08 111.027 1008.08 109.6C1008.08 107.427 1008.53 105.793 1009.42 104.7C1010.32 103.607 1011.5 103.06 1012.96 103.06C1014.44 103.06 1015.62 103.607 1016.5 104.7C1017.4 105.793 1017.84 107.427 1017.84 109.6C1017.84 111.027 1017.64 112.233 1017.22 113.22C1016.82 114.207 1016.26 114.96 1015.52 115.48C1014.8 115.987 1013.95 116.24 1012.96 116.24ZM1012.96 113.96C1013.39 113.96 1013.77 113.827 1014.1 113.56C1014.45 113.293 1014.72 112.84 1014.92 112.2C1015.12 111.56 1015.22 110.693 1015.22 109.6C1015.22 108.493 1015.12 107.633 1014.92 107.02C1014.72 106.393 1014.45 105.96 1014.1 105.72C1013.77 105.467 1013.39 105.34 1012.96 105.34C1012.55 105.34 1012.17 105.467 1011.82 105.72C1011.48 105.96 1011.2 106.393 1011 107.02C1010.8 107.633 1010.7 108.493 1010.7 109.6C1010.7 110.693 1010.8 111.56 1011 112.2C1011.2 112.84 1011.48 113.293 1011.82 113.56C1012.17 113.827 1012.55 113.96 1012.96 113.96ZM1012.96 111.08C1012.55 111.08 1012.2 110.94 1011.9 110.66C1011.61 110.38 1011.46 110.013 1011.46 109.56C1011.46 109.093 1011.61 108.727 1011.9 108.46C1012.2 108.18 1012.55 108.04 1012.96 108.04C1013.39 108.04 1013.74 108.18 1014.02 108.46C1014.32 108.727 1014.46 109.093 1014.46 109.56C1014.46 110.013 1014.32 110.38 1014.02 110.66C1013.74 110.94 1013.39 111.08 1012.96 111.08Z" fill="#AC6AFF"/>
<path d="M1338.76 41.4278L1338.77 41.4302L1348.33 46.3974C1350.65 47.6017 1352.1 49.9967 1352.1 52.6092V61.5V89V136C1352.1 139.866 1348.97 143 1345.1 143H1150.6C1146.73 143 1143.6 139.866 1143.6 136V42C1143.6 38.134 1146.73 35 1150.6 35H1247.85H1300.48H1324.81C1325.95 35 1327.07 35.2762 1328.07 35.8048L1338.76 41.4278Z" stroke="url(#paint3_linear_1_384)" stroke-width="2"/>
<path d="M1198.2 73V62.568H1201.7C1202.42 62.568 1203.08 62.648 1203.65 62.808C1204.23 62.9573 1204.68 63.2187 1205.01 63.592C1205.35 63.9653 1205.52 64.488 1205.52 65.16C1205.52 65.6293 1205.38 66.0827 1205.09 66.52C1204.8 66.9573 1204.35 67.256 1203.73 67.416V67.48C1204.48 67.608 1205.04 67.8747 1205.43 68.28C1205.81 68.6747 1206 69.224 1206 69.928C1206 70.632 1205.83 71.2133 1205.48 71.672C1205.12 72.12 1204.64 72.456 1204.04 72.68C1203.44 72.8933 1202.76 73 1202 73H1198.2ZM1200.55 66.76H1201.59C1202.16 66.76 1202.58 66.648 1202.84 66.424C1203.09 66.1893 1203.22 65.8747 1203.22 65.48C1203.22 65.096 1203.09 64.824 1202.82 64.664C1202.56 64.4933 1202.16 64.408 1201.6 64.408H1200.55V66.76ZM1200.55 71.16H1201.81C1202.45 71.16 1202.93 71.0427 1203.24 70.808C1203.54 70.5733 1203.7 70.2213 1203.7 69.752C1203.7 69.2933 1203.54 68.9627 1203.24 68.76C1202.93 68.5573 1202.45 68.456 1201.81 68.456H1200.55V71.16ZM1208.88 73V62.568H1211.23V71.016H1215.87V73H1208.88ZM1222.12 73.192C1221.29 73.192 1220.56 72.984 1219.93 72.568C1219.3 72.152 1218.81 71.544 1218.45 70.744C1218.1 69.9333 1217.93 68.9307 1217.93 67.736C1217.93 66.5733 1218.1 65.5973 1218.45 64.808C1218.81 64.008 1219.3 63.4053 1219.93 63C1220.56 62.584 1221.29 62.376 1222.12 62.376C1222.95 62.376 1223.68 62.584 1224.31 63C1224.94 63.4053 1225.43 64.008 1225.78 64.808C1226.13 65.5973 1226.31 66.5733 1226.31 67.736C1226.31 68.9307 1226.13 69.9333 1225.78 70.744C1225.43 71.544 1224.94 72.152 1224.31 72.568C1223.68 72.984 1222.95 73.192 1222.12 73.192ZM1222.12 71.16C1222.48 71.16 1222.8 71.032 1223.06 70.776C1223.33 70.5093 1223.53 70.1253 1223.67 69.624C1223.82 69.112 1223.89 68.4827 1223.89 67.736C1223.89 67.0107 1223.82 66.4027 1223.67 65.912C1223.53 65.4213 1223.33 65.048 1223.06 64.792C1222.8 64.536 1222.48 64.408 1222.12 64.408C1221.76 64.408 1221.44 64.536 1221.17 64.792C1220.91 65.048 1220.7 65.4213 1220.55 65.912C1220.41 66.4027 1220.34 67.0107 1220.34 67.736C1220.34 68.4827 1220.41 69.112 1220.55 69.624C1220.7 70.1253 1220.91 70.5093 1221.17 70.776C1221.44 71.032 1221.76 71.16 1222.12 71.16ZM1233.17 73.192C1232.52 73.192 1231.9 73.08 1231.31 72.856C1230.74 72.632 1230.22 72.296 1229.78 71.848C1229.33 71.3893 1228.98 70.8293 1228.72 70.168C1228.46 69.496 1228.34 68.7227 1228.34 67.848C1228.34 66.696 1228.56 65.7147 1228.99 64.904C1229.44 64.0827 1230.04 63.4587 1230.78 63.032C1231.54 62.5947 1232.38 62.376 1233.31 62.376C1233.97 62.376 1234.57 62.5147 1235.1 62.792C1235.64 63.0587 1236.08 63.3627 1236.43 63.704L1235.14 65.16C1234.89 64.9253 1234.62 64.744 1234.32 64.616C1234.03 64.4773 1233.7 64.408 1233.31 64.408C1232.82 64.408 1232.38 64.5467 1232 64.824C1231.62 65.0907 1231.31 65.4747 1231.09 65.976C1230.86 66.4773 1230.75 67.0747 1230.75 67.768C1230.75 68.4827 1230.86 69.096 1231.09 69.608C1231.31 70.1093 1231.62 70.4933 1232.02 70.76C1232.42 71.0267 1232.89 71.16 1233.41 71.16C1233.79 71.16 1234.14 71.0747 1234.45 70.904C1234.76 70.7333 1235.04 70.5093 1235.3 70.232L1236.59 71.656C1236.17 72.1573 1235.66 72.5413 1235.09 72.808C1234.51 73.064 1233.87 73.192 1233.17 73.192ZM1238.71 73V62.568H1241.1V66.84H1241.15L1244.23 62.568H1246.84L1241.1 70.152V73H1238.71ZM1244.52 73L1242.09 68.152L1243.48 66.312L1247.13 73H1244.52ZM1253.48 73.192C1252.83 73.192 1252.21 73.08 1251.62 72.856C1251.04 72.632 1250.53 72.296 1250.08 71.848C1249.64 71.3893 1249.28 70.8293 1249.03 70.168C1248.77 69.496 1248.64 68.7227 1248.64 67.848C1248.64 66.696 1248.86 65.7147 1249.3 64.904C1249.75 64.0827 1250.35 63.4587 1251.09 63.032C1251.85 62.5947 1252.69 62.376 1253.62 62.376C1254.28 62.376 1254.88 62.5147 1255.41 62.792C1255.95 63.0587 1256.39 63.3627 1256.74 63.704L1255.44 65.16C1255.2 64.9253 1254.93 64.744 1254.63 64.616C1254.34 64.4773 1254 64.408 1253.62 64.408C1253.13 64.408 1252.69 64.5467 1252.31 64.824C1251.92 65.0907 1251.62 65.4747 1251.4 65.976C1251.17 66.4773 1251.06 67.0747 1251.06 67.768C1251.06 68.4827 1251.17 69.096 1251.4 69.608C1251.62 70.1093 1251.93 70.4933 1252.32 70.76C1252.73 71.0267 1253.19 71.16 1253.72 71.16C1254.1 71.16 1254.45 71.0747 1254.76 70.904C1255.07 70.7333 1255.35 70.5093 1255.6 70.232L1256.9 71.656C1256.47 72.1573 1255.97 72.5413 1255.4 72.808C1254.82 73.064 1254.18 73.192 1253.48 73.192ZM1258.96 73V62.568H1261.31V66.6H1264.16V62.568H1266.51V73H1264.16V68.648H1261.31V73H1258.96ZM1268.23 73L1271.48 62.568H1274.3L1277.54 73H1275.05L1273.7 67.72C1273.58 67.1973 1273.44 66.6427 1273.29 66.056C1273.14 65.4693 1273 64.904 1272.87 64.36H1272.81C1272.68 64.904 1272.55 65.4693 1272.41 66.056C1272.27 66.6427 1272.13 67.1973 1271.99 67.72L1270.63 73H1268.23ZM1270.38 70.52V68.68H1275.37V70.52H1270.38ZM1279.43 73V71.016H1281.86V64.552H1279.43V62.568H1286.66V64.552H1284.23V71.016H1286.66V73H1279.43ZM1289.45 73V62.568H1291.87L1294.06 67.752L1294.96 70.056H1295.02C1294.97 69.5013 1294.9 68.8827 1294.81 68.2C1294.73 67.5173 1294.68 66.872 1294.68 66.264V62.568H1296.94V73H1294.52L1292.33 67.8L1291.44 65.528H1291.37C1291.42 66.0933 1291.49 66.712 1291.58 67.384C1291.66 68.0453 1291.71 68.6853 1291.71 69.304V73H1289.45Z" fill="white"/>
<path d="M1211.37 116V102.96H1220.03V105.44H1214.31V108.46H1219.19V110.94H1214.31V116H1211.37ZM1222.15 116L1226.21 102.96H1229.73L1233.79 116H1230.67L1228.99 109.4C1228.83 108.747 1228.65 108.053 1228.47 107.32C1228.28 106.587 1228.11 105.88 1227.95 105.2H1227.87C1227.71 105.88 1227.54 106.587 1227.37 107.32C1227.19 108.053 1227.02 108.747 1226.85 109.4L1225.15 116H1222.15ZM1224.83 112.9V110.6H1231.07V112.9H1224.83ZM1235.98 116V102.96H1239L1241.74 109.44L1242.86 112.32H1242.94C1242.87 111.627 1242.79 110.853 1242.68 110C1242.57 109.147 1242.52 108.34 1242.52 107.58V102.96H1245.34V116H1242.32L1239.58 109.5L1238.46 106.66H1238.38C1238.45 107.367 1238.53 108.14 1238.64 108.98C1238.75 109.807 1238.8 110.607 1238.8 111.38V116H1235.98ZM1251.87 116V105.44H1247.97V102.96H1258.73V105.44H1254.83V116H1251.87ZM1266.04 116.24C1265 116.24 1264.09 115.98 1263.3 115.46C1262.52 114.94 1261.9 114.18 1261.46 113.18C1261.02 112.167 1260.8 110.913 1260.8 109.42C1260.8 107.967 1261.02 106.747 1261.46 105.76C1261.9 104.76 1262.52 104.007 1263.3 103.5C1264.09 102.98 1265 102.72 1266.04 102.72C1267.08 102.72 1268 102.98 1268.78 103.5C1269.57 104.007 1270.18 104.76 1270.62 105.76C1271.06 106.747 1271.28 107.967 1271.28 109.42C1271.28 110.913 1271.06 112.167 1270.62 113.18C1270.18 114.18 1269.57 114.94 1268.78 115.46C1268 115.98 1267.08 116.24 1266.04 116.24ZM1266.04 113.7C1266.5 113.7 1266.89 113.54 1267.22 113.22C1267.56 112.887 1267.81 112.407 1267.98 111.78C1268.17 111.14 1268.26 110.353 1268.26 109.42C1268.26 108.513 1268.17 107.753 1267.98 107.14C1267.81 106.527 1267.56 106.06 1267.22 105.74C1266.89 105.42 1266.5 105.26 1266.04 105.26C1265.59 105.26 1265.2 105.42 1264.86 105.74C1264.53 106.06 1264.27 106.527 1264.08 107.14C1263.91 107.753 1263.82 108.513 1263.82 109.42C1263.82 110.353 1263.91 111.14 1264.08 111.78C1264.27 112.407 1264.53 112.887 1264.86 113.22C1265.2 113.54 1265.59 113.7 1266.04 113.7ZM1273.9 116V102.96H1276.98L1278.26 107.58L1278.7 109.38H1278.78L1279.22 107.58L1280.5 102.96H1283.58V116H1281.1V111.96C1281.1 111.6 1281.11 111.153 1281.14 110.62C1281.16 110.073 1281.2 109.507 1281.24 108.92C1281.28 108.333 1281.32 107.773 1281.36 107.24C1281.41 106.707 1281.45 106.267 1281.48 105.92H1281.42L1280.42 109.4L1279.42 112.54H1277.98L1276.96 109.4L1276.02 105.92H1275.96C1275.98 106.267 1276.02 106.707 1276.06 107.24C1276.11 107.773 1276.16 108.333 1276.2 108.92C1276.24 109.507 1276.27 110.073 1276.3 110.62C1276.32 111.153 1276.34 111.6 1276.34 111.96V116H1273.9Z" fill="#AC6AFF"/>
<path d="M1377 1H1417.6C1430.86 1 1441.6 11.7452 1441.6 25V63C1441.6 76.2548 1452.35 87 1465.6 87H1538" stroke="white" stroke-opacity="0.1"/>
<path d="M1377 177H1417.6C1430.86 177 1441.6 166.255 1441.6 153V115C1441.6 101.745 1452.35 91 1465.6 91H1538" stroke="white" stroke-opacity="0.1"/>
<defs>
<linearGradient id="paint0_linear_1_384" x1="248.9" y1="35.9146" x2="303.393" y2="195.932" gradientUnits="userSpaceOnUse">
<stop stop-color="#90F7E2"/>
<stop offset="0.26" stop-color="#FACB7B"/>
<stop offset="0.53" stop-color="#8FBAF6"/>
<stop offset="0.76" stop-color="#DB86E1"/>
<stop offset="1" stop-color="#AC8EF7"/>
</linearGradient>
<linearGradient id="paint1_linear_1_384" x1="546.8" y1="35.9146" x2="601.293" y2="195.932" gradientUnits="userSpaceOnUse">
<stop stop-color="#90F7E2"/>
<stop offset="0.26" stop-color="#FACB7B"/>
<stop offset="0.53" stop-color="#8FBAF6"/>
<stop offset="0.76" stop-color="#DB86E1"/>
<stop offset="1" stop-color="#AC8EF7"/>
</linearGradient>
<linearGradient id="paint2_linear_1_384" x1="844.7" y1="35.9146" x2="899.193" y2="195.932" gradientUnits="userSpaceOnUse">
<stop stop-color="#90F7E2"/>
<stop offset="0.26" stop-color="#FACB7B"/>
<stop offset="0.53" stop-color="#8FBAF6"/>
<stop offset="0.76" stop-color="#DB86E1"/>
<stop offset="1" stop-color="#AC8EF7"/>
</linearGradient>
<linearGradient id="paint3_linear_1_384" x1="1142.6" y1="35.9146" x2="1197.09" y2="195.932" gradientUnits="userSpaceOnUse">
<stop stop-color="#90F7E2"/>
<stop offset="0.26" stop-color="#FACB7B"/>
<stop offset="0.53" stop-color="#8FBAF6"/>
<stop offset="0.76" stop-color="#DB86E1"/>
<stop offset="1" stop-color="#AC8EF7"/>
</linearGradient>
</defs>
</svg>
